<?xml version="1.0" encoding="UTF-8" standalone="no"?>
<!DOCTYPE svg PUBLIC "-//W3C//DTD SVG 1.1//EN"
 "http://www.w3.org/Graphics/SVG/1.1/DTD/svg11.dtd">
<!-- Generated by graphviz version 2.42.3 (20191010.1750)
 -->
<!-- Title: %3 Pages: 1 -->
<svg width="456pt" height="322pt"
 viewBox="0.00 0.00 455.96 321.91" xmlns="http://www.w3.org/2000/svg" xmlns:xlink="http://www.w3.org/1999/xlink">
<g id="graph0" class="graph" transform="scale(1 1) rotate(0) translate(4 317.91)">
<title>%3</title>
<polygon fill="white" stroke="transparent" points="-4,4 -4,-317.91 451.96,-317.91 451.96,4 -4,4"/>
<g id="clust1" class="cluster">
<title>cluster31</title>
<path fill="none" stroke="black" d="M98.09,-8C98.09,-8 360.09,-8 360.09,-8 366.09,-8 372.09,-14 372.09,-20 372.09,-20 372.09,-198.95 372.09,-198.95 372.09,-204.95 366.09,-210.95 360.09,-210.95 360.09,-210.95 98.09,-210.95 98.09,-210.95 92.09,-210.95 86.09,-204.95 86.09,-198.95 86.09,-198.95 86.09,-20 86.09,-20 86.09,-14 92.09,-8 98.09,-8"/>
<text text-anchor="middle" x="354.59" y="-15.8" font-family="Times,serif" font-size="14.00">31</text>
</g>
<!-- variance_of_distance -->
<g id="node1" class="node">
<title>variance_of_distance</title>
<ellipse fill="none" stroke="black" cx="118.09" cy="-276.43" rx="118.17" ry="37.45"/>
<text text-anchor="middle" x="118.09" y="-287.73" font-family="Times,serif" font-size="14.00">variance_of_distance</text>
<text text-anchor="middle" x="118.09" y="-272.73" font-family="Times,serif" font-size="14.00">~</text>
<text text-anchor="middle" x="118.09" y="-257.73" font-family="Times,serif" font-size="14.00">HalfNormal</text>
</g>
<!-- p_good_distance -->
<g id="node4" class="node">
<title>p_good_distance</title>
<polygon fill="none" stroke="black" points="230.09,-202.95 94.09,-202.95 94.09,-149.95 230.09,-149.95 230.09,-202.95"/>
<text text-anchor="middle" x="162.09" y="-187.75" font-family="Times,serif" font-size="14.00">p_good_distance</text>
<text text-anchor="middle" x="162.09" y="-172.75" font-family="Times,serif" font-size="14.00">~</text>
<text text-anchor="middle" x="162.09" y="-157.75" font-family="Times,serif" font-size="14.00">Deterministic</text>
</g>
<!-- variance_of_distance&#45;&gt;p_good_distance -->
<g id="edge2" class="edge">
<title>variance_of_distance&#45;&gt;p_good_distance</title>
<path fill="none" stroke="black" d="M134.35,-239.23C138.3,-230.42 142.52,-221.02 146.45,-212.28"/>
<polygon fill="black" stroke="black" points="149.66,-213.67 150.56,-203.11 143.28,-210.8 149.66,-213.67"/>
</g>
<!-- variance_of_shot -->
<g id="node2" class="node">
<title>variance_of_shot</title>
<ellipse fill="none" stroke="black" cx="351.09" cy="-276.43" rx="96.75" ry="37.45"/>
<text text-anchor="middle" x="351.09" y="-287.73" font-family="Times,serif" font-size="14.00">variance_of_shot</text>
<text text-anchor="middle" x="351.09" y="-272.73" font-family="Times,serif" font-size="14.00">~</text>
<text text-anchor="middle" x="351.09" y="-257.73" font-family="Times,serif" font-size="14.00">HalfNormal</text>
</g>
<!-- p_good_angle -->
<g id="node5" class="node">
<title>p_good_angle</title>
<polygon fill="none" stroke="black" points="363.59,-202.95 248.59,-202.95 248.59,-149.95 363.59,-149.95 363.59,-202.95"/>
<text text-anchor="middle" x="306.09" y="-187.75" font-family="Times,serif" font-size="14.00">p_good_angle</text>
<text text-anchor="middle" x="306.09" y="-172.75" font-family="Times,serif" font-size="14.00">~</text>
<text text-anchor="middle" x="306.09" y="-157.75" font-family="Times,serif" font-size="14.00">Deterministic</text>
</g>
<!-- variance_of_shot&#45;&gt;p_good_angle -->
<g id="edge1" class="edge">
<title>variance_of_shot&#45;&gt;p_good_angle</title>
<path fill="none" stroke="black" d="M334.46,-239.23C330.41,-230.42 326.1,-221.02 322.08,-212.28"/>
<polygon fill="black" stroke="black" points="325.22,-210.74 317.87,-203.11 318.86,-213.66 325.22,-210.74"/>
</g>
<!-- success -->
<g id="node3" class="node">
<title>success</title>
<ellipse fill="lightgrey" stroke="black" cx="234.09" cy="-76.48" rx="56.64" ry="37.45"/>
<text text-anchor="middle" x="234.09" y="-87.78" font-family="Times,serif" font-size="14.00">success</text>
<text text-anchor="middle" x="234.09" y="-72.78" font-family="Times,serif" font-size="14.00">~</text>
<text text-anchor="middle" x="234.09" y="-57.78" font-family="Times,serif" font-size="14.00">Binomial</text>
</g>
<!-- p_good_distance&#45;&gt;success -->
<g id="edge3" class="edge">
<title>p_good_distance&#45;&gt;success</title>
<path fill="none" stroke="black" d="M181,-149.71C187.97,-140.23 196.06,-129.23 203.78,-118.72"/>
<polygon fill="black" stroke="black" points="206.77,-120.56 209.87,-110.43 201.13,-116.42 206.77,-120.56"/>
</g>
<!-- p_good_angle&#45;&gt;success -->
<g id="edge4" class="edge">
<title>p_good_angle&#45;&gt;success</title>
<path fill="none" stroke="black" d="M287.17,-149.71C280.2,-140.23 272.12,-129.23 264.39,-118.72"/>
<polygon fill="black" stroke="black" points="267.05,-116.42 258.31,-110.43 261.41,-120.56 267.05,-116.42"/>
</g>
</g>
</svg>
