<?xml version="1.0" encoding="UTF-8" standalone="no"?>
<!DOCTYPE svg PUBLIC "-//W3C//DTD SVG 1.1//EN"
 "http://www.w3.org/Graphics/SVG/1.1/DTD/svg11.dtd">
<!-- Generated by graphviz version 2.38.0 (20140413.2041)
 -->
<!-- Title: %3 Pages: 1 -->
<svg width="651pt" height="329pt"
 viewBox="0.00 0.00 651.18 329.00" xmlns="http://www.w3.org/2000/svg" xmlns:xlink="http://www.w3.org/1999/xlink">
<g id="graph0" class="graph" transform="scale(1 1) rotate(0) translate(4 325)">
<title>%3</title>
<polygon fill="white" stroke="none" points="-4,4 -4,-325 647.185,-325 647.185,4 -4,4"/>
<g id="clust1" class="cluster"><title>cluster3</title>
<path fill="none" stroke="black" d="M293.243,-238C293.243,-238 435.243,-238 435.243,-238 441.243,-238 447.243,-244 447.243,-250 447.243,-250 447.243,-301 447.243,-301 447.243,-307 441.243,-313 435.243,-313 435.243,-313 293.243,-313 293.243,-313 287.243,-313 281.243,-307 281.243,-301 281.243,-301 281.243,-250 281.243,-250 281.243,-244 287.243,-238 293.243,-238"/>
<text text-anchor="middle" x="435.743" y="-245.8" font-family="Times,serif" font-size="14.00">3</text>
</g>
<g id="clust2" class="cluster"><title>cluster919</title>
<path fill="none" stroke="black" d="M304.243,-8C304.243,-8 436.243,-8 436.243,-8 442.243,-8 448.243,-14 448.243,-20 448.243,-20 448.243,-218 448.243,-218 448.243,-224 442.243,-230 436.243,-230 436.243,-230 304.243,-230 304.243,-230 298.243,-230 292.243,-224 292.243,-218 292.243,-218 292.243,-20 292.243,-20 292.243,-14 298.243,-8 304.243,-8"/>
<text text-anchor="middle" x="429.743" y="-15.8" font-family="Times,serif" font-size="14.00">919</text>
</g>
<g id="clust3" class="cluster"><title>cluster85</title>
<path fill="none" stroke="black" d="M480.243,-155C480.243,-155 608.243,-155 608.243,-155 614.243,-155 620.243,-161 620.243,-167 620.243,-167 620.243,-218 620.243,-218 620.243,-224 614.243,-230 608.243,-230 608.243,-230 480.243,-230 480.243,-230 474.243,-230 468.243,-224 468.243,-218 468.243,-218 468.243,-167 468.243,-167 468.243,-161 474.243,-155 480.243,-155"/>
<text text-anchor="middle" x="605.243" y="-162.8" font-family="Times,serif" font-size="14.00">85</text>
</g>
<!-- sigma_y -->
<g id="node1" class="node"><title>sigma_y</title>
<ellipse fill="none" stroke="black" cx="81.2428" cy="-129" rx="81.4863" ry="18"/>
<text text-anchor="middle" x="81.2428" y="-125.3" font-family="Times,serif" font-size="14.00">sigma_y ~ Uniform</text>
</g>
<!-- stl_pred -->
<g id="node2" class="node"><title>stl_pred</title>
<ellipse fill="none" stroke="black" cx="206.243" cy="-57" rx="76.0865" ry="18"/>
<text text-anchor="middle" x="206.243" y="-53.3" font-family="Times,serif" font-size="14.00">stl_pred ~ Normal</text>
</g>
<!-- sigma_y&#45;&gt;stl_pred -->
<g id="edge9" class="edge"><title>sigma_y&#45;&gt;stl_pred</title>
<path fill="none" stroke="black" d="M109.607,-112.116C127.267,-102.226 150.173,-89.3992 169.251,-78.7157"/>
<polygon fill="black" stroke="black" points="170.976,-81.7611 177.991,-73.8212 167.555,-75.6535 170.976,-81.7611"/>
</g>
<!-- y_like -->
<g id="node8" class="node"><title>y_like</title>
<ellipse fill="lightgrey" stroke="black" cx="370.243" cy="-57" rx="69.5877" ry="18"/>
<text text-anchor="middle" x="370.243" y="-53.3" font-family="Times,serif" font-size="14.00">y_like ~ Normal</text>
</g>
<!-- sigma_y&#45;&gt;y_like -->
<g id="edge6" class="edge"><title>sigma_y&#45;&gt;y_like</title>
<path fill="none" stroke="black" d="M133.914,-115.242C184.081,-103.091 259.464,-84.8323 311.539,-72.2188"/>
<polygon fill="black" stroke="black" points="312.41,-75.6093 321.305,-69.8535 310.762,-68.806 312.41,-75.6093"/>
</g>
<!-- b -->
<g id="node3" class="node"><title>b</title>
<ellipse fill="none" stroke="black" cx="232.243" cy="-129" rx="51.9908" ry="18"/>
<text text-anchor="middle" x="232.243" y="-125.3" font-family="Times,serif" font-size="14.00">b ~ Normal</text>
</g>
<!-- b&#45;&gt;stl_pred -->
<g id="edge10" class="edge"><title>b&#45;&gt;stl_pred</title>
<path fill="none" stroke="black" d="M225.949,-111.055C223.023,-103.176 219.472,-93.6165 216.195,-84.794"/>
<polygon fill="black" stroke="black" points="219.422,-83.4309 212.659,-75.2753 212.86,-85.8682 219.422,-83.4309"/>
</g>
<!-- b&#45;&gt;y_like -->
<g id="edge7" class="edge"><title>b&#45;&gt;y_like</title>
<path fill="none" stroke="black" d="M260.502,-113.666C280.878,-103.33 308.639,-89.2484 331.141,-77.8345"/>
<polygon fill="black" stroke="black" points="332.774,-80.9306 340.109,-73.2854 329.607,-74.6878 332.774,-80.9306"/>
</g>
<!-- sigma_a -->
<g id="node4" class="node"><title>sigma_a</title>
<ellipse fill="none" stroke="black" cx="550.243" cy="-287" rx="92.8835" ry="18"/>
<text text-anchor="middle" x="550.243" y="-283.3" font-family="Times,serif" font-size="14.00">sigma_a ~ HalfCauchy</text>
</g>
<!-- eps_a -->
<g id="node9" class="node"><title>eps_a</title>
<ellipse fill="none" stroke="black" cx="544.243" cy="-204" rx="67.6881" ry="18"/>
<text text-anchor="middle" x="544.243" y="-200.3" font-family="Times,serif" font-size="14.00">eps_a ~ Normal</text>
</g>
<!-- sigma_a&#45;&gt;eps_a -->
<g id="edge2" class="edge"><title>sigma_a&#45;&gt;eps_a</title>
<path fill="none" stroke="black" d="M548.97,-268.822C548.183,-258.19 547.154,-244.306 546.258,-232.204"/>
<polygon fill="black" stroke="black" points="549.743,-231.867 545.513,-222.153 542.762,-232.385 549.743,-231.867"/>
</g>
<!-- gamma -->
<g id="node5" class="node"><title>gamma</title>
<ellipse fill="none" stroke="black" cx="364.243" cy="-287" rx="74.9875" ry="18"/>
<text text-anchor="middle" x="364.243" y="-283.3" font-family="Times,serif" font-size="14.00">gamma ~ Normal</text>
</g>
<!-- mu_a -->
<g id="node6" class="node"><title>mu_a</title>
<polygon fill="none" stroke="black" points="438.743,-222 301.743,-222 301.743,-186 438.743,-186 438.743,-222"/>
<text text-anchor="middle" x="370.243" y="-200.3" font-family="Times,serif" font-size="14.00">mu_a ~ Deterministic</text>
</g>
<!-- gamma&#45;&gt;mu_a -->
<g id="edge1" class="edge"><title>gamma&#45;&gt;mu_a</title>
<path fill="none" stroke="black" d="M365.515,-268.822C366.303,-258.19 367.331,-244.306 368.228,-232.204"/>
<polygon fill="black" stroke="black" points="371.724,-232.385 368.972,-222.153 364.743,-231.867 371.724,-232.385"/>
</g>
<!-- a -->
<g id="node7" class="node"><title>a</title>
<polygon fill="none" stroke="black" points="426.243,-147 314.243,-147 314.243,-111 426.243,-111 426.243,-147"/>
<text text-anchor="middle" x="370.243" y="-125.3" font-family="Times,serif" font-size="14.00">a ~ Deterministic</text>
</g>
<!-- mu_a&#45;&gt;a -->
<g id="edge4" class="edge"><title>mu_a&#45;&gt;a</title>
<path fill="none" stroke="black" d="M370.243,-185.7C370.243,-177.245 370.243,-166.869 370.243,-157.373"/>
<polygon fill="black" stroke="black" points="373.743,-157.176 370.243,-147.176 366.743,-157.176 373.743,-157.176"/>
</g>
<!-- a&#45;&gt;stl_pred -->
<g id="edge8" class="edge"><title>a&#45;&gt;stl_pred</title>
<path fill="none" stroke="black" d="M330.124,-110.876C306.181,-100.657 275.727,-87.6579 251.006,-77.1061"/>
<polygon fill="black" stroke="black" points="252.064,-73.7523 241.493,-73.0456 249.316,-80.1904 252.064,-73.7523"/>
</g>
<!-- a&#45;&gt;y_like -->
<g id="edge5" class="edge"><title>a&#45;&gt;y_like</title>
<path fill="none" stroke="black" d="M370.243,-110.697C370.243,-102.983 370.243,-93.7125 370.243,-85.1124"/>
<polygon fill="black" stroke="black" points="373.743,-85.1043 370.243,-75.1043 366.743,-85.1044 373.743,-85.1043"/>
</g>
<!-- eps_a&#45;&gt;a -->
<g id="edge3" class="edge"><title>eps_a&#45;&gt;a</title>
<path fill="none" stroke="black" d="M517.497,-187.364C499.466,-177.246 474.919,-164.279 452.243,-155 446.948,-152.834 441.395,-150.754 435.78,-148.784"/>
<polygon fill="black" stroke="black" points="436.902,-145.469 426.307,-145.577 434.657,-152.099 436.902,-145.469"/>
</g>
</g>
</svg>
