<?xml version="1.0" encoding="UTF-8" standalone="no"?>
<!DOCTYPE svg PUBLIC "-//W3C//DTD SVG 1.1//EN"
 "http://www.w3.org/Graphics/SVG/1.1/DTD/svg11.dtd">
<!-- Generated by graphviz version 2.38.0 (20140413.2041)
 -->
<!-- Title: %3 Pages: 1 -->
<svg width="496pt" height="182pt"
 viewBox="0.00 0.00 496.49 182.00" xmlns="http://www.w3.org/2000/svg" xmlns:xlink="http://www.w3.org/1999/xlink">
<g id="graph0" class="graph" transform="scale(1 1) rotate(0) translate(4 178)">
<title>%3</title>
<polygon fill="white" stroke="none" points="-4,4 -4,-178 492.493,-178 492.493,4 -4,4"/>
<g id="clust1" class="cluster"><title>cluster85</title>
<path fill="none" stroke="black" d="M20,-91C20,-91 146,-91 146,-91 152,-91 158,-97 158,-103 158,-103 158,-154 158,-154 158,-160 152,-166 146,-166 146,-166 20,-166 20,-166 14,-166 8,-160 8,-154 8,-154 8,-103 8,-103 8,-97 14,-91 20,-91"/>
<text text-anchor="middle" x="143" y="-98.8" font-family="Times,serif" font-size="14.00">85</text>
</g>
<g id="clust2" class="cluster"><title>cluster919</title>
<path fill="none" stroke="black" d="M187,-8C187,-8 283,-8 283,-8 289,-8 295,-14 295,-20 295,-20 295,-71 295,-71 295,-77 289,-83 283,-83 283,-83 187,-83 187,-83 181,-83 175,-77 175,-71 175,-71 175,-20 175,-20 175,-14 181,-8 187,-8"/>
<text text-anchor="middle" x="276.5" y="-15.8" font-family="Times,serif" font-size="14.00">919</text>
</g>
<!-- beta0 -->
<g id="node1" class="node"><title>beta0</title>
<ellipse fill="none" stroke="black" cx="83" cy="-140" rx="66.8882" ry="18"/>
<text text-anchor="middle" x="83" y="-136.3" font-family="Times,serif" font-size="14.00">beta0 ~ Normal</text>
</g>
<!-- y -->
<g id="node4" class="node"><title>y</title>
<ellipse fill="lightgrey" stroke="black" cx="235" cy="-57" rx="51.9908" ry="18"/>
<text text-anchor="middle" x="235" y="-53.3" font-family="Times,serif" font-size="14.00">y ~ Normal</text>
</g>
<!-- beta0&#45;&gt;y -->
<g id="edge2" class="edge"><title>beta0&#45;&gt;y</title>
<path fill="none" stroke="black" d="M106.402,-122.903C121.153,-113.091 140.79,-100.631 159,-91 169.622,-85.3825 181.403,-79.9174 192.457,-75.1035"/>
<polygon fill="black" stroke="black" points="194.116,-78.2009 201.936,-71.0531 191.365,-71.7639 194.116,-78.2009"/>
</g>
<!-- beta1 -->
<g id="node2" class="node"><title>beta1</title>
<ellipse fill="none" stroke="black" cx="235" cy="-140" rx="66.8882" ry="18"/>
<text text-anchor="middle" x="235" y="-136.3" font-family="Times,serif" font-size="14.00">beta1 ~ Normal</text>
</g>
<!-- beta1&#45;&gt;y -->
<g id="edge1" class="edge"><title>beta1&#45;&gt;y</title>
<path fill="none" stroke="black" d="M235,-121.822C235,-111.19 235,-97.306 235,-85.2035"/>
<polygon fill="black" stroke="black" points="238.5,-85.1532 235,-75.1533 231.5,-85.1533 238.5,-85.1532"/>
</g>
<!-- sigma -->
<g id="node3" class="node"><title>sigma</title>
<ellipse fill="none" stroke="black" cx="404" cy="-140" rx="84.485" ry="18"/>
<text text-anchor="middle" x="404" y="-136.3" font-family="Times,serif" font-size="14.00">sigma ~ HalfCauchy</text>
</g>
<!-- sigma&#45;&gt;y -->
<g id="edge3" class="edge"><title>sigma&#45;&gt;y</title>
<path fill="none" stroke="black" d="M374.098,-122.922C355.989,-113.346 332.34,-101.126 311,-91 299.832,-85.7005 287.597,-80.2402 276.271,-75.3243"/>
<polygon fill="black" stroke="black" points="277.583,-72.0785 267.014,-71.3385 274.815,-78.5079 277.583,-72.0785"/>
</g>
</g>
</svg>
