<?xml version="1.0" encoding="UTF-8" standalone="no"?>
<!DOCTYPE svg PUBLIC "-//W3C//DTD SVG 1.1//EN"
 "http://www.w3.org/Graphics/SVG/1.1/DTD/svg11.dtd">
<!-- Generated by graphviz version 2.38.0 (20140413.2041)
 -->
<!-- Title: %3 Pages: 1 -->
<svg width="452pt" height="227pt"
 viewBox="0.00 0.00 452.49 227.00" xmlns="http://www.w3.org/2000/svg" xmlns:xlink="http://www.w3.org/1999/xlink">
<g id="graph0" class="graph" transform="scale(1 1) rotate(0) translate(4 223)">
<title>%3</title>
<polygon fill="white" stroke="none" points="-4,4 -4,-223 448.494,-223 448.494,4 -4,4"/>
<g id="clust1" class="cluster"><title>cluster2,905</title>
<path fill="none" stroke="black" d="M20,-8C20,-8 280,-8 280,-8 286,-8 292,-14 292,-20 292,-20 292,-143 292,-143 292,-149 286,-155 280,-155 280,-155 20,-155 20,-155 14,-155 8,-149 8,-143 8,-143 8,-20 8,-20 8,-14 14,-8 20,-8"/>
<text text-anchor="middle" x="268.5" y="-15.8" font-family="Times,serif" font-size="14.00">2,905</text>
</g>
<!-- step_size -->
<g id="node1" class="node"><title>step_size</title>
<ellipse fill="none" stroke="black" cx="150" cy="-201" rx="94.7833" ry="18"/>
<text text-anchor="middle" x="150" y="-197.3" font-family="Times,serif" font-size="14.00">step_size ~ Exponential</text>
</g>
<!-- volatility -->
<g id="node3" class="node"><title>volatility</title>
<ellipse fill="none" stroke="black" cx="150" cy="-129" rx="133.776" ry="18"/>
<text text-anchor="middle" x="150" y="-125.3" font-family="Times,serif" font-size="14.00">volatility ~ GaussianRandomWalk</text>
</g>
<!-- step_size&#45;&gt;volatility -->
<g id="edge1" class="edge"><title>step_size&#45;&gt;volatility</title>
<path fill="none" stroke="black" d="M150,-182.697C150,-174.983 150,-165.712 150,-157.112"/>
<polygon fill="black" stroke="black" points="153.5,-157.104 150,-147.104 146.5,-157.104 153.5,-157.104"/>
</g>
<!-- nu -->
<g id="node2" class="node"><title>nu</title>
<ellipse fill="none" stroke="black" cx="373" cy="-129" rx="71.4873" ry="18"/>
<text text-anchor="middle" x="373" y="-125.3" font-family="Times,serif" font-size="14.00">nu ~ Exponential</text>
</g>
<!-- returns -->
<g id="node4" class="node"><title>returns</title>
<ellipse fill="lightgrey" stroke="black" cx="178" cy="-57" rx="77.1866" ry="18"/>
<text text-anchor="middle" x="178" y="-53.3" font-family="Times,serif" font-size="14.00">returns ~ StudentT</text>
</g>
<!-- nu&#45;&gt;returns -->
<g id="edge2" class="edge"><title>nu&#45;&gt;returns</title>
<path fill="none" stroke="black" d="M333.539,-113.834C303.051,-102.89 260.658,-87.6721 227.829,-75.8875"/>
<polygon fill="black" stroke="black" points="229.002,-72.5899 218.408,-72.5054 226.637,-79.1783 229.002,-72.5899"/>
</g>
<!-- volatility&#45;&gt;returns -->
<g id="edge3" class="edge"><title>volatility&#45;&gt;returns</title>
<path fill="none" stroke="black" d="M156.921,-110.697C160.075,-102.813 163.878,-93.3042 167.381,-84.5464"/>
<polygon fill="black" stroke="black" points="170.694,-85.689 171.158,-75.1043 164.195,-83.0892 170.694,-85.689"/>
</g>
</g>
</svg>
