<?xml version="1.0" encoding="UTF-8" standalone="no"?>
<!DOCTYPE svg PUBLIC "-//W3C//DTD SVG 1.1//EN"
 "http://www.w3.org/Graphics/SVG/1.1/DTD/svg11.dtd">
<!-- Generated by graphviz version 2.38.0 (20140413.2041)
 -->
<!-- Title: %3 Pages: 1 -->
<svg width="541pt" height="238pt"
 viewBox="0.00 0.00 541.23 238.00" xmlns="http://www.w3.org/2000/svg" xmlns:xlink="http://www.w3.org/1999/xlink">
<g id="graph0" class="graph" transform="scale(1 1) rotate(0) translate(4 234)">
<title>%3</title>
<polygon fill="white" stroke="none" points="-4,4 -4,-234 537.235,-234 537.235,4 -4,4"/>
<g id="clust1" class="cluster"><title>cluster85</title>
<path fill="none" stroke="black" d="M302.293,-91C302.293,-91 398.293,-91 398.293,-91 404.293,-91 410.293,-97 410.293,-103 410.293,-103 410.293,-154 410.293,-154 410.293,-160 404.293,-166 398.293,-166 398.293,-166 302.293,-166 302.293,-166 296.293,-166 290.293,-160 290.293,-154 290.293,-154 290.293,-103 290.293,-103 290.293,-97 296.293,-91 302.293,-91"/>
<text text-anchor="middle" x="395.293" y="-98.8" font-family="Times,serif" font-size="14.00">85</text>
</g>
<g id="clust2" class="cluster"><title>cluster919</title>
<path fill="none" stroke="black" d="M162.293,-8C162.293,-8 294.293,-8 294.293,-8 300.293,-8 306.293,-14 306.293,-20 306.293,-20 306.293,-71 306.293,-71 306.293,-77 300.293,-83 294.293,-83 294.293,-83 162.293,-83 162.293,-83 156.293,-83 150.293,-77 150.293,-71 150.293,-71 150.293,-20 150.293,-20 150.293,-14 156.293,-8 162.293,-8"/>
<text text-anchor="middle" x="287.793" y="-15.8" font-family="Times,serif" font-size="14.00">919</text>
</g>
<!-- sd_y -->
<g id="node1" class="node"><title>sd_y</title>
<ellipse fill="none" stroke="black" cx="79.293" cy="-140" rx="79.0865" ry="18"/>
<text text-anchor="middle" x="79.293" y="-136.3" font-family="Times,serif" font-size="14.00">sd_y ~ HalfCauchy</text>
</g>
<!-- y_like -->
<g id="node6" class="node"><title>y_like</title>
<ellipse fill="lightgrey" stroke="black" cx="228.293" cy="-57" rx="69.5877" ry="18"/>
<text text-anchor="middle" x="228.293" y="-53.3" font-family="Times,serif" font-size="14.00">y_like ~ Normal</text>
</g>
<!-- sd_y&#45;&gt;y_like -->
<g id="edge5" class="edge"><title>sd_y&#45;&gt;y_like</title>
<path fill="none" stroke="black" d="M108.212,-123.193C125.375,-113.82 147.566,-101.716 167.293,-91 174.898,-86.869 183.041,-82.4564 190.82,-78.2459"/>
<polygon fill="black" stroke="black" points="192.601,-81.2616 199.731,-73.425 189.271,-75.1048 192.601,-81.2616"/>
</g>
<!-- mu_a -->
<g id="node2" class="node"><title>mu_a</title>
<ellipse fill="none" stroke="black" cx="261.293" cy="-212" rx="67.6881" ry="18"/>
<text text-anchor="middle" x="261.293" y="-208.3" font-family="Times,serif" font-size="14.00">mu_a ~ Normal</text>
</g>
<!-- a -->
<g id="node5" class="node"><title>a</title>
<ellipse fill="none" stroke="black" cx="350.293" cy="-140" rx="51.9908" ry="18"/>
<text text-anchor="middle" x="350.293" y="-136.3" font-family="Times,serif" font-size="14.00">a ~ Normal</text>
</g>
<!-- mu_a&#45;&gt;a -->
<g id="edge1" class="edge"><title>mu_a&#45;&gt;a</title>
<path fill="none" stroke="black" d="M281.935,-194.765C293.898,-185.355 309.127,-173.378 322.173,-163.117"/>
<polygon fill="black" stroke="black" points="324.679,-165.599 330.375,-156.666 320.351,-160.097 324.679,-165.599"/>
</g>
<!-- b -->
<g id="node3" class="node"><title>b</title>
<ellipse fill="none" stroke="black" cx="228.293" cy="-140" rx="51.9908" ry="18"/>
<text text-anchor="middle" x="228.293" y="-136.3" font-family="Times,serif" font-size="14.00">b ~ Normal</text>
</g>
<!-- b&#45;&gt;y_like -->
<g id="edge4" class="edge"><title>b&#45;&gt;y_like</title>
<path fill="none" stroke="black" d="M228.293,-121.822C228.293,-111.19 228.293,-97.306 228.293,-85.2035"/>
<polygon fill="black" stroke="black" points="231.793,-85.1532 228.293,-75.1533 224.793,-85.1533 231.793,-85.1532"/>
</g>
<!-- sigma_a -->
<g id="node4" class="node"><title>sigma_a</title>
<ellipse fill="none" stroke="black" cx="440.293" cy="-212" rx="92.8835" ry="18"/>
<text text-anchor="middle" x="440.293" y="-208.3" font-family="Times,serif" font-size="14.00">sigma_a ~ HalfCauchy</text>
</g>
<!-- sigma_a&#45;&gt;a -->
<g id="edge2" class="edge"><title>sigma_a&#45;&gt;a</title>
<path fill="none" stroke="black" d="M418.964,-194.411C406.94,-185.058 391.763,-173.254 378.736,-163.123"/>
<polygon fill="black" stroke="black" points="380.584,-160.126 370.542,-156.749 376.286,-165.651 380.584,-160.126"/>
</g>
<!-- a&#45;&gt;y_like -->
<g id="edge3" class="edge"><title>a&#45;&gt;y_like</title>
<path fill="none" stroke="black" d="M331.686,-123C319.913,-113.224 304.159,-100.768 289.293,-91 282.571,-86.5837 275.204,-82.2253 267.986,-78.1953"/>
<polygon fill="black" stroke="black" points="269.438,-75.0007 258.983,-73.2866 266.088,-81.1465 269.438,-75.0007"/>
</g>
</g>
</svg>
