<?xml version="1.0" encoding="UTF-8" standalone="no"?>
<!DOCTYPE svg PUBLIC "-//W3C//DTD SVG 1.1//EN"
 "http://www.w3.org/Graphics/SVG/1.1/DTD/svg11.dtd">
<!-- Generated by graphviz version 2.42.3 (20191010.1750)
 -->
<!-- Title: %3 Pages: 1 -->
<svg width="226pt" height="233pt"
 viewBox="0.00 0.00 226.41 232.91" xmlns="http://www.w3.org/2000/svg" xmlns:xlink="http://www.w3.org/1999/xlink">
<g id="graph0" class="graph" transform="scale(1 1) rotate(0) translate(4 228.91)">
<title>%3</title>
<polygon fill="white" stroke="transparent" points="-4,4 -4,-228.91 222.41,-228.91 222.41,4 -4,4"/>
<g id="clust1" class="cluster">
<title>cluster19</title>
<path fill="none" stroke="black" d="M56.2,-8C56.2,-8 162.2,-8 162.2,-8 168.2,-8 174.2,-14 174.2,-20 174.2,-20 174.2,-109.95 174.2,-109.95 174.2,-115.95 168.2,-121.95 162.2,-121.95 162.2,-121.95 56.2,-121.95 56.2,-121.95 50.2,-121.95 44.2,-115.95 44.2,-109.95 44.2,-109.95 44.2,-20 44.2,-20 44.2,-14 50.2,-8 56.2,-8"/>
<text text-anchor="middle" x="156.7" y="-15.8" font-family="Times,serif" font-size="14.00">19</text>
</g>
<!-- b -->
<g id="node1" class="node">
<title>b</title>
<ellipse fill="none" stroke="black" cx="50.2" cy="-187.43" rx="50.41" ry="37.45"/>
<text text-anchor="middle" x="50.2" y="-198.73" font-family="Times,serif" font-size="14.00">b</text>
<text text-anchor="middle" x="50.2" y="-183.73" font-family="Times,serif" font-size="14.00">~</text>
<text text-anchor="middle" x="50.2" y="-168.73" font-family="Times,serif" font-size="14.00">Normal</text>
</g>
<!-- success -->
<g id="node3" class="node">
<title>success</title>
<ellipse fill="lightgrey" stroke="black" cx="109.2" cy="-76.48" rx="56.64" ry="37.45"/>
<text text-anchor="middle" x="109.2" y="-87.78" font-family="Times,serif" font-size="14.00">success</text>
<text text-anchor="middle" x="109.2" y="-72.78" font-family="Times,serif" font-size="14.00">~</text>
<text text-anchor="middle" x="109.2" y="-57.78" font-family="Times,serif" font-size="14.00">Binomial</text>
</g>
<!-- b&#45;&gt;success -->
<g id="edge1" class="edge">
<title>b&#45;&gt;success</title>
<path fill="none" stroke="black" d="M68.71,-152.26C74.1,-142.31 80.05,-131.32 85.7,-120.89"/>
<polygon fill="black" stroke="black" points="88.88,-122.36 90.56,-111.9 82.72,-119.03 88.88,-122.36"/>
</g>
<!-- a -->
<g id="node2" class="node">
<title>a</title>
<ellipse fill="none" stroke="black" cx="168.2" cy="-187.43" rx="50.41" ry="37.45"/>
<text text-anchor="middle" x="168.2" y="-198.73" font-family="Times,serif" font-size="14.00">a</text>
<text text-anchor="middle" x="168.2" y="-183.73" font-family="Times,serif" font-size="14.00">~</text>
<text text-anchor="middle" x="168.2" y="-168.73" font-family="Times,serif" font-size="14.00">Normal</text>
</g>
<!-- a&#45;&gt;success -->
<g id="edge2" class="edge">
<title>a&#45;&gt;success</title>
<path fill="none" stroke="black" d="M149.7,-152.26C144.31,-142.31 138.36,-131.32 132.71,-120.89"/>
<polygon fill="black" stroke="black" points="135.69,-119.03 127.85,-111.9 129.53,-122.36 135.69,-119.03"/>
</g>
</g>
</svg>
