<?xml version="1.0" encoding="UTF-8" standalone="no"?>
<!DOCTYPE svg PUBLIC "-//W3C//DTD SVG 1.1//EN"
 "http://www.w3.org/Graphics/SVG/1.1/DTD/svg11.dtd">
<!-- Generated by graphviz version 2.38.0 (20140413.2041)
 -->
<!-- Title: %3 Pages: 1 -->
<svg width="234pt" height="155pt"
 viewBox="0.00 0.00 233.99 155.00" xmlns="http://www.w3.org/2000/svg" xmlns:xlink="http://www.w3.org/1999/xlink">
<g id="graph0" class="graph" transform="scale(1 1) rotate(0) translate(4 151)">
<title>%3</title>
<polygon fill="white" stroke="none" points="-4,4 -4,-151 229.991,-151 229.991,4 -4,4"/>
<g id="clust1" class="cluster"><title>cluster19</title>
<path fill="none" stroke="black" d="M36.9954,-8C36.9954,-8 188.995,-8 188.995,-8 194.995,-8 200.995,-14 200.995,-20 200.995,-20 200.995,-71 200.995,-71 200.995,-77 194.995,-83 188.995,-83 188.995,-83 36.9954,-83 36.9954,-83 30.9954,-83 24.9954,-77 24.9954,-71 24.9954,-71 24.9954,-20 24.9954,-20 24.9954,-14 30.9954,-8 36.9954,-8"/>
<text text-anchor="middle" x="185.995" y="-15.8" font-family="Times,serif" font-size="14.00">19</text>
</g>
<!-- b -->
<g id="node1" class="node"><title>b</title>
<ellipse fill="none" stroke="black" cx="51.9954" cy="-129" rx="51.9908" ry="18"/>
<text text-anchor="middle" x="51.9954" y="-125.3" font-family="Times,serif" font-size="14.00">b ~ Normal</text>
</g>
<!-- success -->
<g id="node3" class="node"><title>success</title>
<ellipse fill="lightgrey" stroke="black" cx="112.995" cy="-57" rx="79.8859" ry="18"/>
<text text-anchor="middle" x="112.995" y="-53.3" font-family="Times,serif" font-size="14.00">success ~ Binomial</text>
</g>
<!-- b&#45;&gt;success -->
<g id="edge1" class="edge"><title>b&#45;&gt;success</title>
<path fill="none" stroke="black" d="M66.4515,-111.411C73.9382,-102.82 83.2279,-92.1594 91.5343,-82.6275"/>
<polygon fill="black" stroke="black" points="94.2881,-84.7948 98.2193,-74.9562 89.0108,-80.1959 94.2881,-84.7948"/>
</g>
<!-- a -->
<g id="node2" class="node"><title>a</title>
<ellipse fill="none" stroke="black" cx="173.995" cy="-129" rx="51.9908" ry="18"/>
<text text-anchor="middle" x="173.995" y="-125.3" font-family="Times,serif" font-size="14.00">a ~ Normal</text>
</g>
<!-- a&#45;&gt;success -->
<g id="edge2" class="edge"><title>a&#45;&gt;success</title>
<path fill="none" stroke="black" d="M159.539,-111.411C152.053,-102.82 142.763,-92.1594 134.456,-82.6275"/>
<polygon fill="black" stroke="black" points="136.98,-80.1959 127.772,-74.9562 131.703,-84.7948 136.98,-80.1959"/>
</g>
</g>
</svg>
