<?xml version="1.0" encoding="UTF-8" standalone="no"?>
<!DOCTYPE svg PUBLIC "-//W3C//DTD SVG 1.1//EN"
 "http://www.w3.org/Graphics/SVG/1.1/DTD/svg11.dtd">
<!-- Generated by graphviz version 2.42.3 (20191010.1750)
 -->
<!-- Title: %3 Pages: 1 -->
<svg width="435pt" height="344pt"
 viewBox="0.00 0.00 435.12 343.86" xmlns="http://www.w3.org/2000/svg" xmlns:xlink="http://www.w3.org/1999/xlink">
<g id="graph0" class="graph" transform="scale(1 1) rotate(0) translate(4 339.86)">
<title>%3</title>
<polygon fill="white" stroke="transparent" points="-4,4 -4,-339.86 431.12,-339.86 431.12,4 -4,4"/>
<g id="clust1" class="cluster">
<title>cluster2,905</title>
<path fill="none" stroke="black" d="M20,-8C20,-8 260,-8 260,-8 266,-8 272,-14 272,-20 272,-20 272,-220.91 272,-220.91 272,-226.91 266,-232.91 260,-232.91 260,-232.91 20,-232.91 20,-232.91 14,-232.91 8,-226.91 8,-220.91 8,-220.91 8,-20 8,-20 8,-14 14,-8 20,-8"/>
<text text-anchor="middle" x="243.5" y="-15.8" font-family="Times,serif" font-size="14.00">2,905</text>
</g>
<!-- step_size -->
<g id="node1" class="node">
<title>step_size</title>
<ellipse fill="none" stroke="black" cx="140" cy="-298.38" rx="72.25" ry="37.45"/>
<text text-anchor="middle" x="140" y="-309.68" font-family="Times,serif" font-size="14.00">step_size</text>
<text text-anchor="middle" x="140" y="-294.68" font-family="Times,serif" font-size="14.00">~</text>
<text text-anchor="middle" x="140" y="-279.68" font-family="Times,serif" font-size="14.00">Exponential</text>
</g>
<!-- volatility -->
<g id="node4" class="node">
<title>volatility</title>
<ellipse fill="none" stroke="black" cx="140" cy="-187.43" rx="124.4" ry="37.45"/>
<text text-anchor="middle" x="140" y="-198.73" font-family="Times,serif" font-size="14.00">volatility</text>
<text text-anchor="middle" x="140" y="-183.73" font-family="Times,serif" font-size="14.00">~</text>
<text text-anchor="middle" x="140" y="-168.73" font-family="Times,serif" font-size="14.00">GaussianRandomWalk</text>
</g>
<!-- step_size&#45;&gt;volatility -->
<g id="edge1" class="edge">
<title>step_size&#45;&gt;volatility</title>
<path fill="none" stroke="black" d="M140,-260.8C140,-252.63 140,-243.85 140,-235.32"/>
<polygon fill="black" stroke="black" points="143.5,-235.1 140,-225.1 136.5,-235.1 143.5,-235.1"/>
</g>
<!-- nu -->
<g id="node2" class="node">
<title>nu</title>
<ellipse fill="none" stroke="black" cx="355" cy="-187.43" rx="72.25" ry="37.45"/>
<text text-anchor="middle" x="355" y="-198.73" font-family="Times,serif" font-size="14.00">nu</text>
<text text-anchor="middle" x="355" y="-183.73" font-family="Times,serif" font-size="14.00">~</text>
<text text-anchor="middle" x="355" y="-168.73" font-family="Times,serif" font-size="14.00">Exponential</text>
</g>
<!-- returns -->
<g id="node3" class="node">
<title>returns</title>
<ellipse fill="lightgrey" stroke="black" cx="172" cy="-76.48" rx="58.88" ry="37.45"/>
<text text-anchor="middle" x="172" y="-87.78" font-family="Times,serif" font-size="14.00">returns</text>
<text text-anchor="middle" x="172" y="-72.78" font-family="Times,serif" font-size="14.00">~</text>
<text text-anchor="middle" x="172" y="-57.78" font-family="Times,serif" font-size="14.00">StudentT</text>
</g>
<!-- nu&#45;&gt;returns -->
<g id="edge2" class="edge">
<title>nu&#45;&gt;returns</title>
<path fill="none" stroke="black" d="M308.35,-158.65C282.28,-143.13 249.76,-123.77 223.02,-107.85"/>
<polygon fill="black" stroke="black" points="224.57,-104.7 214.19,-102.59 220.99,-110.72 224.57,-104.7"/>
</g>
<!-- volatility&#45;&gt;returns -->
<g id="edge3" class="edge">
<title>volatility&#45;&gt;returns</title>
<path fill="none" stroke="black" d="M150.74,-149.85C153.25,-141.31 155.95,-132.12 158.56,-123.24"/>
<polygon fill="black" stroke="black" points="161.99,-123.99 161.45,-113.41 155.27,-122.02 161.99,-123.99"/>
</g>
</g>
</svg>
