<?xml version="1.0" encoding="UTF-8" standalone="no"?>
<!DOCTYPE svg PUBLIC "-//W3C//DTD SVG 1.1//EN"
 "http://www.w3.org/Graphics/SVG/1.1/DTD/svg11.dtd">
<!-- Generated by graphviz version 2.42.3 (20191010.1750)
 -->
<!-- Title: %3 Pages: 1 -->
<svg width="292pt" height="233pt"
 viewBox="0.00 0.00 291.94 232.91" xmlns="http://www.w3.org/2000/svg" xmlns:xlink="http://www.w3.org/1999/xlink">
<g id="graph0" class="graph" transform="scale(1 1) rotate(0) translate(4 228.91)">
<title>%3</title>
<polygon fill="white" stroke="transparent" points="-4,4 -4,-228.91 287.94,-228.91 287.94,4 -4,4"/>
<g id="clust1" class="cluster">
<title>cluster20</title>
<path fill="none" stroke="black" d="M74.57,-8C74.57,-8 188.57,-8 188.57,-8 194.57,-8 200.57,-14 200.57,-20 200.57,-20 200.57,-109.95 200.57,-109.95 200.57,-115.95 194.57,-121.95 188.57,-121.95 188.57,-121.95 74.57,-121.95 74.57,-121.95 68.57,-121.95 62.57,-115.95 62.57,-109.95 62.57,-109.95 62.57,-20 62.57,-20 62.57,-14 68.57,-8 74.57,-8"/>
<text text-anchor="middle" x="183.07" y="-15.8" font-family="Times,serif" font-size="14.00">20</text>
</g>
<!-- b1_slope -->
<g id="node1" class="node">
<title>b1_slope</title>
<ellipse fill="none" stroke="black" cx="56.57" cy="-187.43" rx="56.64" ry="37.45"/>
<text text-anchor="middle" x="56.57" y="-198.73" font-family="Times,serif" font-size="14.00">b1_slope</text>
<text text-anchor="middle" x="56.57" y="-183.73" font-family="Times,serif" font-size="14.00">~</text>
<text text-anchor="middle" x="56.57" y="-168.73" font-family="Times,serif" font-size="14.00">Normal</text>
</g>
<!-- likelihood -->
<g id="node3" class="node">
<title>likelihood</title>
<ellipse fill="lightgrey" stroke="black" cx="131.57" cy="-76.48" rx="60.62" ry="37.45"/>
<text text-anchor="middle" x="131.57" y="-87.78" font-family="Times,serif" font-size="14.00">likelihood</text>
<text text-anchor="middle" x="131.57" y="-72.78" font-family="Times,serif" font-size="14.00">~</text>
<text text-anchor="middle" x="131.57" y="-57.78" font-family="Times,serif" font-size="14.00">Normal</text>
</g>
<!-- b1_slope&#45;&gt;likelihood -->
<g id="edge1" class="edge">
<title>b1_slope&#45;&gt;likelihood</title>
<path fill="none" stroke="black" d="M79.48,-153.15C86.76,-142.58 94.9,-130.74 102.55,-119.63"/>
<polygon fill="black" stroke="black" points="105.49,-121.53 108.28,-111.31 99.73,-117.56 105.49,-121.53"/>
</g>
<!-- b0_intercept -->
<g id="node2" class="node">
<title>b0_intercept</title>
<ellipse fill="none" stroke="black" cx="207.57" cy="-187.43" rx="76.24" ry="37.45"/>
<text text-anchor="middle" x="207.57" y="-198.73" font-family="Times,serif" font-size="14.00">b0_intercept</text>
<text text-anchor="middle" x="207.57" y="-183.73" font-family="Times,serif" font-size="14.00">~</text>
<text text-anchor="middle" x="207.57" y="-168.73" font-family="Times,serif" font-size="14.00">Normal</text>
</g>
<!-- b0_intercept&#45;&gt;likelihood -->
<g id="edge2" class="edge">
<title>b0_intercept&#45;&gt;likelihood</title>
<path fill="none" stroke="black" d="M183.31,-151.66C176.18,-141.44 168.31,-130.14 160.9,-119.52"/>
<polygon fill="black" stroke="black" points="163.67,-117.38 155.08,-111.18 157.93,-121.38 163.67,-117.38"/>
</g>
</g>
</svg>
