<?xml version="1.0" encoding="UTF-8" standalone="no"?>
<!DOCTYPE svg PUBLIC "-//W3C//DTD SVG 1.1//EN"
 "http://www.w3.org/Graphics/SVG/1.1/DTD/svg11.dtd">
<!-- Generated by graphviz version 2.40.1 (20161225.0304)
 -->
<!-- Title: %3 Pages: 1 -->
<svg width="588pt" height="347pt"
 viewBox="0.00 0.00 587.72 346.86" xmlns="http://www.w3.org/2000/svg" xmlns:xlink="http://www.w3.org/1999/xlink">
<g id="graph0" class="graph" transform="scale(1 1) rotate(0) translate(4 342.86)">
<title>%3</title>
<polygon fill="#ffffff" stroke="transparent" points="-4,4 -4,-342.86 583.7193,-342.86 583.7193,4 -4,4"/>
<g id="clust1" class="cluster">
<title>cluster919</title>
<path fill="none" stroke="#000000" d="M20,-8C20,-8 175,-8 175,-8 181,-8 187,-14 187,-20 187,-20 187,-212.93 187,-212.93 187,-218.93 181,-224.93 175,-224.93 175,-224.93 20,-224.93 20,-224.93 14,-224.93 8,-218.93 8,-212.93 8,-212.93 8,-20 8,-20 8,-14 14,-8 20,-8"/>
<text text-anchor="middle" x="168.5" y="-15.8" font-family="Times,serif" font-size="14.00" fill="#000000">919</text>
</g>
<g id="clust2" class="cluster">
<title>cluster85</title>
<path fill="none" stroke="#000000" d="M436,-121.9533C436,-121.9533 522,-121.9533 522,-121.9533 528,-121.9533 534,-127.9533 534,-133.9533 534,-133.9533 534,-223.9066 534,-223.9066 534,-229.9066 528,-235.9066 522,-235.9066 522,-235.9066 436,-235.9066 436,-235.9066 430,-235.9066 424,-229.9066 424,-223.9066 424,-223.9066 424,-133.9533 424,-133.9533 424,-127.9533 430,-121.9533 436,-121.9533"/>
<text text-anchor="middle" x="519" y="-129.7533" font-family="Times,serif" font-size="14.00" fill="#000000">85</text>
</g>
<!-- county_idx -->
<g id="node1" class="node">
<title>county_idx</title>
<path fill="#d3d3d3" stroke="#000000" d="M166.5,-216.93C166.5,-216.93 113.5,-216.93 113.5,-216.93 107.5,-216.93 101.5,-210.93 101.5,-204.93 101.5,-204.93 101.5,-175.93 101.5,-175.93 101.5,-169.93 107.5,-163.93 113.5,-163.93 113.5,-163.93 166.5,-163.93 166.5,-163.93 172.5,-163.93 178.5,-169.93 178.5,-175.93 178.5,-175.93 178.5,-204.93 178.5,-204.93 178.5,-210.93 172.5,-216.93 166.5,-216.93"/>
<text text-anchor="middle" x="140" y="-201.73" font-family="Times,serif" font-size="14.00" fill="#000000">county_idx</text>
<text text-anchor="middle" x="140" y="-186.73" font-family="Times,serif" font-size="14.00" fill="#000000">~</text>
<text text-anchor="middle" x="140" y="-171.73" font-family="Times,serif" font-size="14.00" fill="#000000">Data</text>
</g>
<!-- y -->
<g id="node3" class="node">
<title>y</title>
<ellipse fill="#d3d3d3" stroke="#000000" cx="137" cy="-76.4767" rx="41.9398" ry="37.4533"/>
<text text-anchor="middle" x="137" y="-87.7767" font-family="Times,serif" font-size="14.00" fill="#000000">y</text>
<text text-anchor="middle" x="137" y="-72.7767" font-family="Times,serif" font-size="14.00" fill="#000000">~</text>
<text text-anchor="middle" x="137" y="-57.7767" font-family="Times,serif" font-size="14.00" fill="#000000">Normal</text>
</g>
<!-- county_idx&#45;&gt;y -->
<g id="edge3" class="edge">
<title>county_idx&#45;&gt;y</title>
<path fill="none" stroke="#000000" d="M139.2966,-163.713C138.9875,-151.9706 138.6148,-137.8127 138.2604,-124.3507"/>
<polygon fill="#000000" stroke="#000000" points="141.7563,-124.1478 137.9943,-114.2434 134.7588,-124.3321 141.7563,-124.1478"/>
</g>
<!-- floor_idx -->
<g id="node2" class="node">
<title>floor_idx</title>
<path fill="#d3d3d3" stroke="#000000" d="M71.5,-216.93C71.5,-216.93 28.5,-216.93 28.5,-216.93 22.5,-216.93 16.5,-210.93 16.5,-204.93 16.5,-204.93 16.5,-175.93 16.5,-175.93 16.5,-169.93 22.5,-163.93 28.5,-163.93 28.5,-163.93 71.5,-163.93 71.5,-163.93 77.5,-163.93 83.5,-169.93 83.5,-175.93 83.5,-175.93 83.5,-204.93 83.5,-204.93 83.5,-210.93 77.5,-216.93 71.5,-216.93"/>
<text text-anchor="middle" x="50" y="-201.73" font-family="Times,serif" font-size="14.00" fill="#000000">floor_idx</text>
<text text-anchor="middle" x="50" y="-186.73" font-family="Times,serif" font-size="14.00" fill="#000000">~</text>
<text text-anchor="middle" x="50" y="-171.73" font-family="Times,serif" font-size="14.00" fill="#000000">Data</text>
</g>
<!-- floor_idx&#45;&gt;y -->
<g id="edge7" class="edge">
<title>floor_idx&#45;&gt;y</title>
<path fill="none" stroke="#000000" d="M64.4108,-163.8058C71.9617,-150.7261 81.7572,-135.0115 92,-121.9533 94.7742,-118.4166 97.7958,-114.8616 100.9173,-111.3825"/>
<polygon fill="#000000" stroke="#000000" points="103.6064,-113.6304 107.8531,-103.9239 98.4803,-108.8636 103.6064,-113.6304"/>
</g>
<!-- b -->
<g id="node4" class="node">
<title>b</title>
<ellipse fill="none" stroke="#000000" cx="238" cy="-190.43" rx="41.9398" ry="37.4533"/>
<text text-anchor="middle" x="238" y="-201.73" font-family="Times,serif" font-size="14.00" fill="#000000">b</text>
<text text-anchor="middle" x="238" y="-186.73" font-family="Times,serif" font-size="14.00" fill="#000000">~</text>
<text text-anchor="middle" x="238" y="-171.73" font-family="Times,serif" font-size="14.00" fill="#000000">Normal</text>
</g>
<!-- b&#45;&gt;y -->
<g id="edge6" class="edge">
<title>b&#45;&gt;y</title>
<path fill="none" stroke="#000000" d="M217.9294,-157.3878C210.1574,-145.6804 200.7789,-132.7452 191,-121.9533 186.5211,-117.0104 181.5061,-112.1139 176.3853,-107.4674"/>
<polygon fill="#000000" stroke="#000000" points="178.6825,-104.8267 168.8573,-100.8624 174.0658,-110.0885 178.6825,-104.8267"/>
</g>
<!-- sigma_a -->
<g id="node5" class="node">
<title>sigma_a</title>
<ellipse fill="none" stroke="#000000" cx="420" cy="-301.3833" rx="57.9655" ry="37.4533"/>
<text text-anchor="middle" x="420" y="-312.6833" font-family="Times,serif" font-size="14.00" fill="#000000">sigma_a</text>
<text text-anchor="middle" x="420" y="-297.6833" font-family="Times,serif" font-size="14.00" fill="#000000">~</text>
<text text-anchor="middle" x="420" y="-282.6833" font-family="Times,serif" font-size="14.00" fill="#000000">Exponential</text>
</g>
<!-- a_county -->
<g id="node8" class="node">
<title>a_county</title>
<ellipse fill="none" stroke="#000000" cx="479" cy="-190.43" rx="46.8387" ry="37.4533"/>
<text text-anchor="middle" x="479" y="-201.73" font-family="Times,serif" font-size="14.00" fill="#000000">a_county</text>
<text text-anchor="middle" x="479" y="-186.73" font-family="Times,serif" font-size="14.00" fill="#000000">~</text>
<text text-anchor="middle" x="479" y="-171.73" font-family="Times,serif" font-size="14.00" fill="#000000">Normal</text>
</g>
<!-- sigma_a&#45;&gt;a_county -->
<g id="edge1" class="edge">
<title>sigma_a&#45;&gt;a_county</title>
<path fill="none" stroke="#000000" d="M438.9927,-265.6662C444.36,-255.5728 450.261,-244.4756 455.8438,-233.9767"/>
<polygon fill="#000000" stroke="#000000" points="459.0418,-235.4173 460.6466,-224.9447 452.8613,-232.1307 459.0418,-235.4173"/>
</g>
<!-- a -->
<g id="node6" class="node">
<title>a</title>
<ellipse fill="none" stroke="#000000" cx="538" cy="-301.3833" rx="41.9398" ry="37.4533"/>
<text text-anchor="middle" x="538" y="-312.6833" font-family="Times,serif" font-size="14.00" fill="#000000">a</text>
<text text-anchor="middle" x="538" y="-297.6833" font-family="Times,serif" font-size="14.00" fill="#000000">~</text>
<text text-anchor="middle" x="538" y="-282.6833" font-family="Times,serif" font-size="14.00" fill="#000000">Normal</text>
</g>
<!-- a&#45;&gt;a_county -->
<g id="edge2" class="edge">
<title>a&#45;&gt;a_county</title>
<path fill="none" stroke="#000000" d="M519.9775,-267.4908C514.4177,-257.0352 508.2135,-245.3678 502.3487,-234.3388"/>
<polygon fill="#000000" stroke="#000000" points="505.3091,-232.4512 497.5238,-225.2651 499.1286,-235.7377 505.3091,-232.4512"/>
</g>
<!-- sigma -->
<g id="node7" class="node">
<title>sigma</title>
<ellipse fill="none" stroke="#000000" cx="356" cy="-190.43" rx="57.9655" ry="37.4533"/>
<text text-anchor="middle" x="356" y="-201.73" font-family="Times,serif" font-size="14.00" fill="#000000">sigma</text>
<text text-anchor="middle" x="356" y="-186.73" font-family="Times,serif" font-size="14.00" fill="#000000">~</text>
<text text-anchor="middle" x="356" y="-171.73" font-family="Times,serif" font-size="14.00" fill="#000000">Exponential</text>
</g>
<!-- sigma&#45;&gt;y -->
<g id="edge5" class="edge">
<title>sigma&#45;&gt;y</title>
<path fill="none" stroke="#000000" d="M329.4903,-156.842C318.1703,-144.3778 304.0898,-131.0706 289,-121.9533 258.1815,-103.3326 219.2032,-91.8707 188.4344,-85.1119"/>
<polygon fill="#000000" stroke="#000000" points="188.8434,-81.6217 178.3382,-82.9965 187.4079,-88.4729 188.8434,-81.6217"/>
</g>
<!-- a_county&#45;&gt;y -->
<g id="edge4" class="edge">
<title>a_county&#45;&gt;y</title>
<path fill="none" stroke="#000000" d="M458.911,-156.5173C449.5953,-143.6946 437.3814,-130.2161 423,-121.9533 384.0467,-99.5729 260.1031,-86.2774 188.8139,-80.2894"/>
<polygon fill="#000000" stroke="#000000" points="188.9471,-76.7886 178.6943,-79.4587 188.3744,-83.7651 188.9471,-76.7886"/>
</g>
</g>
</svg>
