<?xml version="1.0" encoding="UTF-8" standalone="no"?>
<!DOCTYPE svg PUBLIC "-//W3C//DTD SVG 1.1//EN"
 "http://www.w3.org/Graphics/SVG/1.1/DTD/svg11.dtd">
<!-- Generated by graphviz version 2.38.0 (20140413.2041)
 -->
<!-- Title: %3 Pages: 1 -->
<svg width="550pt" height="227pt"
 viewBox="0.00 0.00 549.93 227.00" xmlns="http://www.w3.org/2000/svg" xmlns:xlink="http://www.w3.org/1999/xlink">
<g id="graph0" class="graph" transform="scale(1 1) rotate(0) translate(4 223)">
<title>%3</title>
<polygon fill="white" stroke="none" points="-4,4 -4,-223 545.927,-223 545.927,4 -4,4"/>
<g id="clust1" class="cluster"><title>cluster31</title>
<path fill="none" stroke="black" d="M73.139,-8C73.139,-8 463.139,-8 463.139,-8 469.139,-8 475.139,-14 475.139,-20 475.139,-20 475.139,-143 475.139,-143 475.139,-149 469.139,-155 463.139,-155 463.139,-155 73.139,-155 73.139,-155 67.139,-155 61.139,-149 61.139,-143 61.139,-143 61.139,-20 61.139,-20 61.139,-14 67.139,-8 73.139,-8"/>
<text text-anchor="middle" x="460.139" y="-15.8" font-family="Times,serif" font-size="14.00">31</text>
</g>
<!-- variance_of_shot -->
<g id="node1" class="node"><title>variance_of_shot</title>
<ellipse fill="none" stroke="black" cx="124.139" cy="-201" rx="124.278" ry="18"/>
<text text-anchor="middle" x="124.139" y="-197.3" font-family="Times,serif" font-size="14.00">variance_of_shot ~ HalfNormal</text>
</g>
<!-- p_good_angle -->
<g id="node4" class="node"><title>p_good_angle</title>
<polygon fill="none" stroke="black" points="251.139,-147 69.139,-147 69.139,-111 251.139,-111 251.139,-147"/>
<text text-anchor="middle" x="160.139" y="-125.3" font-family="Times,serif" font-size="14.00">p_good_angle ~ Deterministic</text>
</g>
<!-- variance_of_shot&#45;&gt;p_good_angle -->
<g id="edge1" class="edge"><title>variance_of_shot&#45;&gt;p_good_angle</title>
<path fill="none" stroke="black" d="M133.038,-182.697C137.136,-174.728 142.088,-165.1 146.632,-156.264"/>
<polygon fill="black" stroke="black" points="149.881,-157.598 151.342,-147.104 143.656,-154.396 149.881,-157.598"/>
</g>
<!-- variance_of_distance -->
<g id="node2" class="node"><title>variance_of_distance</title>
<ellipse fill="none" stroke="black" cx="404.139" cy="-201" rx="137.576" ry="18"/>
<text text-anchor="middle" x="404.139" y="-197.3" font-family="Times,serif" font-size="14.00">variance_of_distance ~ HalfNormal</text>
</g>
<!-- p_good_distance -->
<g id="node5" class="node"><title>p_good_distance</title>
<polygon fill="none" stroke="black" points="466.639,-147 269.639,-147 269.639,-111 466.639,-111 466.639,-147"/>
<text text-anchor="middle" x="368.139" y="-125.3" font-family="Times,serif" font-size="14.00">p_good_distance ~ Deterministic</text>
</g>
<!-- variance_of_distance&#45;&gt;p_good_distance -->
<g id="edge2" class="edge"><title>variance_of_distance&#45;&gt;p_good_distance</title>
<path fill="none" stroke="black" d="M395.24,-182.697C391.142,-174.728 386.19,-165.1 381.646,-156.264"/>
<polygon fill="black" stroke="black" points="384.622,-154.396 376.935,-147.104 378.397,-157.598 384.622,-154.396"/>
</g>
<!-- success -->
<g id="node3" class="node"><title>success</title>
<ellipse fill="lightgrey" stroke="black" cx="264.139" cy="-57" rx="79.8859" ry="18"/>
<text text-anchor="middle" x="264.139" y="-53.3" font-family="Times,serif" font-size="14.00">success ~ Binomial</text>
</g>
<!-- p_good_angle&#45;&gt;success -->
<g id="edge3" class="edge"><title>p_good_angle&#45;&gt;success</title>
<path fill="none" stroke="black" d="M185.58,-110.876C199.454,-101.538 216.777,-89.8784 231.622,-79.8862"/>
<polygon fill="black" stroke="black" points="233.691,-82.7131 240.032,-74.2257 229.782,-76.906 233.691,-82.7131"/>
</g>
<!-- p_good_distance&#45;&gt;success -->
<g id="edge4" class="edge"><title>p_good_distance&#45;&gt;success</title>
<path fill="none" stroke="black" d="M342.698,-110.876C328.823,-101.538 311.501,-89.8784 296.656,-79.8862"/>
<polygon fill="black" stroke="black" points="298.496,-76.906 288.246,-74.2257 294.587,-82.7131 298.496,-76.906"/>
</g>
</g>
</svg>
