<?xml version="1.0" encoding="UTF-8" standalone="no"?>
<!DOCTYPE svg PUBLIC "-//W3C//DTD SVG 1.1//EN"
 "http://www.w3.org/Graphics/SVG/1.1/DTD/svg11.dtd">
<!-- Generated by graphviz version 2.38.0 (20140413.2041)
 -->
<!-- Title: %3 Pages: 1 -->
<svg width="692pt" height="227pt"
 viewBox="0.00 0.00 691.58 227.00" xmlns="http://www.w3.org/2000/svg" xmlns:xlink="http://www.w3.org/1999/xlink">
<g id="graph0" class="graph" transform="scale(1 1) rotate(0) translate(4 223)">
<title>%3</title>
<polygon fill="white" stroke="none" points="-4,4 -4,-223 687.58,-223 687.58,4 -4,4"/>
<g id="clust1" class="cluster"><title>cluster31</title>
<path fill="none" stroke="black" d="M73.139,-8C73.139,-8 463.139,-8 463.139,-8 469.139,-8 475.139,-14 475.139,-20 475.139,-20 475.139,-143 475.139,-143 475.139,-149 469.139,-155 463.139,-155 463.139,-155 73.139,-155 73.139,-155 67.139,-155 61.139,-149 61.139,-143 61.139,-143 61.139,-20 61.139,-20 61.139,-14 67.139,-8 73.139,-8"/>
<text text-anchor="middle" x="460.139" y="-15.8" font-family="Times,serif" font-size="14.00">31</text>
</g>
<!-- variance_of_shot -->
<g id="node1" class="node"><title>variance_of_shot</title>
<ellipse fill="none" stroke="black" cx="124.139" cy="-201" rx="124.278" ry="18"/>
<text text-anchor="middle" x="124.139" y="-197.3" font-family="Times,serif" font-size="14.00">variance_of_shot ~ HalfNormal</text>
</g>
<!-- p_good_angle -->
<g id="node4" class="node"><title>p_good_angle</title>
<polygon fill="none" stroke="black" points="251.139,-147 69.139,-147 69.139,-111 251.139,-111 251.139,-147"/>
<text text-anchor="middle" x="160.139" y="-125.3" font-family="Times,serif" font-size="14.00">p_good_angle ~ Deterministic</text>
</g>
<!-- variance_of_shot&#45;&gt;p_good_angle -->
<g id="edge1" class="edge"><title>variance_of_shot&#45;&gt;p_good_angle</title>
<path fill="none" stroke="black" d="M133.038,-182.697C137.136,-174.728 142.088,-165.1 146.632,-156.264"/>
<polygon fill="black" stroke="black" points="149.881,-157.598 151.342,-147.104 143.656,-154.396 149.881,-157.598"/>
</g>
<!-- variance_of_distance -->
<g id="node2" class="node"><title>variance_of_distance</title>
<ellipse fill="none" stroke="black" cx="404.139" cy="-201" rx="137.576" ry="18"/>
<text text-anchor="middle" x="404.139" y="-197.3" font-family="Times,serif" font-size="14.00">variance_of_distance ~ HalfNormal</text>
</g>
<!-- p_good_distance -->
<g id="node6" class="node"><title>p_good_distance</title>
<polygon fill="none" stroke="black" points="466.639,-147 269.639,-147 269.639,-111 466.639,-111 466.639,-147"/>
<text text-anchor="middle" x="368.139" y="-125.3" font-family="Times,serif" font-size="14.00">p_good_distance ~ Deterministic</text>
</g>
<!-- variance_of_distance&#45;&gt;p_good_distance -->
<g id="edge2" class="edge"><title>variance_of_distance&#45;&gt;p_good_distance</title>
<path fill="none" stroke="black" d="M395.24,-182.697C391.142,-174.728 386.19,-165.1 381.646,-156.264"/>
<polygon fill="black" stroke="black" points="384.622,-154.396 376.935,-147.104 378.397,-157.598 384.622,-154.396"/>
</g>
<!-- dispersion -->
<g id="node3" class="node"><title>dispersion</title>
<ellipse fill="none" stroke="black" cx="584.139" cy="-129" rx="99.3824" ry="18"/>
<text text-anchor="middle" x="584.139" y="-125.3" font-family="Times,serif" font-size="14.00">dispersion ~ HalfNormal</text>
</g>
<!-- p_success -->
<g id="node5" class="node"><title>p_success</title>
<ellipse fill="lightgrey" stroke="black" cx="368.139" cy="-57" rx="83.3857" ry="18"/>
<text text-anchor="middle" x="368.139" y="-53.3" font-family="Times,serif" font-size="14.00">p_success ~ Normal</text>
</g>
<!-- dispersion&#45;&gt;p_success -->
<g id="edge3" class="edge"><title>dispersion&#45;&gt;p_success</title>
<path fill="none" stroke="black" d="M537.802,-112.983C503.809,-101.967 457.561,-86.9793 421.935,-75.4339"/>
<polygon fill="black" stroke="black" points="422.78,-72.0284 412.188,-72.275 420.621,-78.6875 422.78,-72.0284"/>
</g>
<!-- p_good_angle&#45;&gt;p_success -->
<g id="edge4" class="edge"><title>p_good_angle&#45;&gt;p_success</title>
<path fill="none" stroke="black" d="M210.756,-110.966C242.468,-100.293 283.266,-86.563 315.377,-75.7565"/>
<polygon fill="black" stroke="black" points="316.682,-79.0101 325.044,-72.5032 314.45,-72.3757 316.682,-79.0101"/>
</g>
<!-- p_good_distance&#45;&gt;p_success -->
<g id="edge5" class="edge"><title>p_good_distance&#45;&gt;p_success</title>
<path fill="none" stroke="black" d="M368.139,-110.697C368.139,-102.983 368.139,-93.7125 368.139,-85.1124"/>
<polygon fill="black" stroke="black" points="371.639,-85.1043 368.139,-75.1043 364.639,-85.1044 371.639,-85.1043"/>
</g>
</g>
</svg>
