<?xml version="1.0" encoding="UTF-8" standalone="no"?>
<!DOCTYPE svg PUBLIC "-//W3C//DTD SVG 1.1//EN"
 "http://www.w3.org/Graphics/SVG/1.1/DTD/svg11.dtd">
<!-- Generated by graphviz version 2.38.0 (20140413.2041)
 -->
<!-- Title: %3 Pages: 1 -->
<svg width="256pt" height="227pt"
 viewBox="0.00 0.00 256.28 227.00" xmlns="http://www.w3.org/2000/svg" xmlns:xlink="http://www.w3.org/1999/xlink">
<g id="graph0" class="graph" transform="scale(1 1) rotate(0) translate(4 223)">
<title>%3</title>
<polygon fill="white" stroke="none" points="-4,4 -4,-223 252.278,-223 252.278,4 -4,4"/>
<g id="clust1" class="cluster"><title>cluster19</title>
<path fill="none" stroke="black" d="M47.139,-8C47.139,-8 201.139,-8 201.139,-8 207.139,-8 213.139,-14 213.139,-20 213.139,-20 213.139,-143 213.139,-143 213.139,-149 207.139,-155 201.139,-155 201.139,-155 47.139,-155 47.139,-155 41.139,-155 35.139,-149 35.139,-143 35.139,-143 35.139,-20 35.139,-20 35.139,-14 41.139,-8 47.139,-8"/>
<text text-anchor="middle" x="198.139" y="-15.8" font-family="Times,serif" font-size="14.00">19</text>
</g>
<!-- variance_of_shot -->
<g id="node1" class="node"><title>variance_of_shot</title>
<ellipse fill="none" stroke="black" cx="124.139" cy="-201" rx="124.278" ry="18"/>
<text text-anchor="middle" x="124.139" y="-197.3" font-family="Times,serif" font-size="14.00">variance_of_shot ~ HalfNormal</text>
</g>
<!-- p_goes_in -->
<g id="node3" class="node"><title>p_goes_in</title>
<polygon fill="none" stroke="black" points="204.639,-147 43.639,-147 43.639,-111 204.639,-111 204.639,-147"/>
<text text-anchor="middle" x="124.139" y="-125.3" font-family="Times,serif" font-size="14.00">p_goes_in ~ Deterministic</text>
</g>
<!-- variance_of_shot&#45;&gt;p_goes_in -->
<g id="edge1" class="edge"><title>variance_of_shot&#45;&gt;p_goes_in</title>
<path fill="none" stroke="black" d="M124.139,-182.697C124.139,-174.983 124.139,-165.712 124.139,-157.112"/>
<polygon fill="black" stroke="black" points="127.639,-157.104 124.139,-147.104 120.639,-157.104 127.639,-157.104"/>
</g>
<!-- success -->
<g id="node2" class="node"><title>success</title>
<ellipse fill="lightgrey" stroke="black" cx="124.139" cy="-57" rx="79.8859" ry="18"/>
<text text-anchor="middle" x="124.139" y="-53.3" font-family="Times,serif" font-size="14.00">success ~ Binomial</text>
</g>
<!-- p_goes_in&#45;&gt;success -->
<g id="edge2" class="edge"><title>p_goes_in&#45;&gt;success</title>
<path fill="none" stroke="black" d="M124.139,-110.697C124.139,-102.983 124.139,-93.7125 124.139,-85.1124"/>
<polygon fill="black" stroke="black" points="127.639,-85.1043 124.139,-75.1043 120.639,-85.1044 127.639,-85.1043"/>
</g>
</g>
</svg>
