<?xml version="1.0" encoding="UTF-8" standalone="no"?>
<!DOCTYPE svg PUBLIC "-//W3C//DTD SVG 1.1//EN"
 "http://www.w3.org/Graphics/SVG/1.1/DTD/svg11.dtd">
<!-- Generated by graphviz version 2.38.0 (20140413.2041)
 -->
<!-- Title: %3 Pages: 1 -->
<svg width="496pt" height="182pt"
 viewBox="0.00 0.00 495.94 182.00" xmlns="http://www.w3.org/2000/svg" xmlns:xlink="http://www.w3.org/1999/xlink">
<g id="graph0" class="graph" transform="scale(1 1) rotate(0) translate(4 178)">
<title>%3</title>
<polygon fill="white" stroke="none" points="-4,4 -4,-178 491.944,-178 491.944,4 -4,4"/>
<g id="clust1" class="cluster"><title>cluster85</title>
<path fill="none" stroke="black" d="M20,-91C20,-91 146,-91 146,-91 152,-91 158,-97 158,-103 158,-103 158,-154 158,-154 158,-160 152,-166 146,-166 146,-166 20,-166 20,-166 14,-166 8,-160 8,-154 8,-154 8,-103 8,-103 8,-97 14,-91 20,-91"/>
<text text-anchor="middle" x="143" y="-98.8" font-family="Times,serif" font-size="14.00">85</text>
</g>
<g id="clust2" class="cluster"><title>cluster919</title>
<path fill="none" stroke="black" d="M204,-8C204,-8 300,-8 300,-8 306,-8 312,-14 312,-20 312,-20 312,-71 312,-71 312,-77 306,-83 300,-83 300,-83 204,-83 204,-83 198,-83 192,-77 192,-71 192,-71 192,-20 192,-20 192,-14 198,-8 204,-8"/>
<text text-anchor="middle" x="293.5" y="-15.8" font-family="Times,serif" font-size="14.00">919</text>
</g>
<!-- beta0 -->
<g id="node1" class="node"><title>beta0</title>
<ellipse fill="none" stroke="black" cx="83" cy="-140" rx="66.8882" ry="18"/>
<text text-anchor="middle" x="83" y="-136.3" font-family="Times,serif" font-size="14.00">beta0 ~ Normal</text>
</g>
<!-- y -->
<g id="node4" class="node"><title>y</title>
<ellipse fill="lightgrey" stroke="black" cx="252" cy="-57" rx="51.9908" ry="18"/>
<text text-anchor="middle" x="252" y="-53.3" font-family="Times,serif" font-size="14.00">y ~ Normal</text>
</g>
<!-- beta0&#45;&gt;y -->
<g id="edge1" class="edge"><title>beta0&#45;&gt;y</title>
<path fill="none" stroke="black" d="M105.514,-122.911C120.248,-112.859 140.19,-100.136 159,-91 173.285,-84.0617 189.418,-77.8214 204.188,-72.6833"/>
<polygon fill="black" stroke="black" points="205.318,-75.9959 213.664,-69.4697 203.07,-69.3667 205.318,-75.9959"/>
</g>
<!-- sigma -->
<g id="node2" class="node"><title>sigma</title>
<ellipse fill="none" stroke="black" cx="252" cy="-140" rx="84.485" ry="18"/>
<text text-anchor="middle" x="252" y="-136.3" font-family="Times,serif" font-size="14.00">sigma ~ HalfCauchy</text>
</g>
<!-- sigma&#45;&gt;y -->
<g id="edge3" class="edge"><title>sigma&#45;&gt;y</title>
<path fill="none" stroke="black" d="M252,-121.822C252,-111.19 252,-97.306 252,-85.2035"/>
<polygon fill="black" stroke="black" points="255.5,-85.1532 252,-75.1533 248.5,-85.1533 255.5,-85.1532"/>
</g>
<!-- beta1 -->
<g id="node3" class="node"><title>beta1</title>
<ellipse fill="none" stroke="black" cx="421" cy="-140" rx="66.8882" ry="18"/>
<text text-anchor="middle" x="421" y="-136.3" font-family="Times,serif" font-size="14.00">beta1 ~ Normal</text>
</g>
<!-- beta1&#45;&gt;y -->
<g id="edge2" class="edge"><title>beta1&#45;&gt;y</title>
<path fill="none" stroke="black" d="M398.486,-122.911C383.752,-112.859 363.81,-100.136 345,-91 330.715,-84.0617 314.582,-77.8214 299.812,-72.6833"/>
<polygon fill="black" stroke="black" points="300.93,-69.3667 290.336,-69.4697 298.682,-75.9959 300.93,-69.3667"/>
</g>
</g>
</svg>
