<?xml version="1.0" encoding="UTF-8" standalone="no"?>
<!DOCTYPE svg PUBLIC "-//W3C//DTD SVG 1.1//EN"
 "http://www.w3.org/Graphics/SVG/1.1/DTD/svg11.dtd">
<!-- Generated by graphviz version 2.38.0 (20140413.2041)
 -->
<!-- Title: %3 Pages: 1 -->
<svg width="706pt" height="238pt"
 viewBox="0.00 0.00 706.19 238.00" xmlns="http://www.w3.org/2000/svg" xmlns:xlink="http://www.w3.org/1999/xlink">
<g id="graph0" class="graph" transform="scale(1 1) rotate(0) translate(4 234)">
<title>%3</title>
<polygon fill="white" stroke="none" points="-4,4 -4,-234 702.186,-234 702.186,4 -4,4"/>
<g id="clust1" class="cluster"><title>cluster85</title>
<path fill="none" stroke="black" d="M227.244,-91C227.244,-91 445.244,-91 445.244,-91 451.244,-91 457.244,-97 457.244,-103 457.244,-103 457.244,-154 457.244,-154 457.244,-160 451.244,-166 445.244,-166 445.244,-166 227.244,-166 227.244,-166 221.244,-166 215.244,-160 215.244,-154 215.244,-154 215.244,-103 215.244,-103 215.244,-97 221.244,-91 227.244,-91"/>
<text text-anchor="middle" x="442.244" y="-98.8" font-family="Times,serif" font-size="14.00">85</text>
</g>
<g id="clust2" class="cluster"><title>cluster919</title>
<path fill="none" stroke="black" d="M209.244,-8C209.244,-8 341.244,-8 341.244,-8 347.244,-8 353.244,-14 353.244,-20 353.244,-20 353.244,-71 353.244,-71 353.244,-77 347.244,-83 341.244,-83 341.244,-83 209.244,-83 209.244,-83 203.244,-83 197.244,-77 197.244,-71 197.244,-71 197.244,-20 197.244,-20 197.244,-14 203.244,-8 209.244,-8"/>
<text text-anchor="middle" x="334.744" y="-15.8" font-family="Times,serif" font-size="14.00">919</text>
</g>
<!-- sigma_y -->
<g id="node1" class="node"><title>sigma_y</title>
<ellipse fill="none" stroke="black" cx="124.244" cy="-140" rx="81.4863" ry="18"/>
<text text-anchor="middle" x="124.244" y="-136.3" font-family="Times,serif" font-size="14.00">sigma_y ~ Uniform</text>
</g>
<!-- y_like -->
<g id="node8" class="node"><title>y_like</title>
<ellipse fill="lightgrey" stroke="black" cx="275.244" cy="-57" rx="69.5877" ry="18"/>
<text text-anchor="middle" x="275.244" y="-53.3" font-family="Times,serif" font-size="14.00">y_like ~ Normal</text>
</g>
<!-- sigma_y&#45;&gt;y_like -->
<g id="edge6" class="edge"><title>sigma_y&#45;&gt;y_like</title>
<path fill="none" stroke="black" d="M152.738,-123.015C169.673,-113.582 191.61,-101.475 211.244,-91 219.258,-86.7244 227.878,-82.2176 236.114,-77.9552"/>
<polygon fill="black" stroke="black" points="237.914,-80.9653 245.198,-73.2721 234.706,-74.7435 237.914,-80.9653"/>
</g>
<!-- mu_b -->
<g id="node2" class="node"><title>mu_b</title>
<ellipse fill="none" stroke="black" cx="68.2439" cy="-212" rx="68.4888" ry="18"/>
<text text-anchor="middle" x="68.2439" y="-208.3" font-family="Times,serif" font-size="14.00">mu_b ~ Normal</text>
</g>
<!-- b -->
<g id="node7" class="node"><title>b</title>
<ellipse fill="none" stroke="black" cx="275.244" cy="-140" rx="51.9908" ry="18"/>
<text text-anchor="middle" x="275.244" y="-136.3" font-family="Times,serif" font-size="14.00">b ~ Normal</text>
</g>
<!-- mu_b&#45;&gt;b -->
<g id="edge4" class="edge"><title>mu_b&#45;&gt;b</title>
<path fill="none" stroke="black" d="M112.993,-198.342C142.063,-189.841 180.659,-178.03 214.244,-166 220.759,-163.666 227.6,-161.04 234.249,-158.39"/>
<polygon fill="black" stroke="black" points="235.84,-161.521 243.793,-154.521 233.211,-155.034 235.84,-161.521"/>
</g>
<!-- mu_a -->
<g id="node3" class="node"><title>mu_a</title>
<ellipse fill="none" stroke="black" cx="426.244" cy="-212" rx="67.6881" ry="18"/>
<text text-anchor="middle" x="426.244" y="-208.3" font-family="Times,serif" font-size="14.00">mu_a ~ Normal</text>
</g>
<!-- a -->
<g id="node6" class="node"><title>a</title>
<ellipse fill="none" stroke="black" cx="397.244" cy="-140" rx="51.9908" ry="18"/>
<text text-anchor="middle" x="397.244" y="-136.3" font-family="Times,serif" font-size="14.00">a ~ Normal</text>
</g>
<!-- mu_a&#45;&gt;a -->
<g id="edge1" class="edge"><title>mu_a&#45;&gt;a</title>
<path fill="none" stroke="black" d="M419.224,-194.055C415.96,-186.176 411.999,-176.617 408.344,-167.794"/>
<polygon fill="black" stroke="black" points="411.462,-166.174 404.401,-158.275 404.995,-168.853 411.462,-166.174"/>
</g>
<!-- sigma_b -->
<g id="node4" class="node"><title>sigma_b</title>
<ellipse fill="none" stroke="black" cx="247.244" cy="-212" rx="92.8835" ry="18"/>
<text text-anchor="middle" x="247.244" y="-208.3" font-family="Times,serif" font-size="14.00">sigma_b ~ HalfCauchy</text>
</g>
<!-- sigma_b&#45;&gt;b -->
<g id="edge3" class="edge"><title>sigma_b&#45;&gt;b</title>
<path fill="none" stroke="black" d="M254.165,-193.697C257.319,-185.813 261.122,-176.304 264.625,-167.546"/>
<polygon fill="black" stroke="black" points="267.938,-168.689 268.402,-158.104 261.439,-166.089 267.938,-168.689"/>
</g>
<!-- sigma_a -->
<g id="node5" class="node"><title>sigma_a</title>
<ellipse fill="none" stroke="black" cx="605.244" cy="-212" rx="92.8835" ry="18"/>
<text text-anchor="middle" x="605.244" y="-208.3" font-family="Times,serif" font-size="14.00">sigma_a ~ HalfCauchy</text>
</g>
<!-- sigma_a&#45;&gt;a -->
<g id="edge2" class="edge"><title>sigma_a&#45;&gt;a</title>
<path fill="none" stroke="black" d="M561.132,-196.155C526.361,-184.453 478.039,-168.191 442.879,-156.358"/>
<polygon fill="black" stroke="black" points="443.928,-153.018 433.334,-153.146 441.695,-159.652 443.928,-153.018"/>
</g>
<!-- a&#45;&gt;y_like -->
<g id="edge5" class="edge"><title>a&#45;&gt;y_like</title>
<path fill="none" stroke="black" d="M378.637,-123C366.864,-113.224 351.11,-100.768 336.244,-91 329.522,-86.5837 322.155,-82.2253 314.937,-78.1953"/>
<polygon fill="black" stroke="black" points="316.389,-75.0007 305.934,-73.2866 313.039,-81.1465 316.389,-75.0007"/>
</g>
<!-- b&#45;&gt;y_like -->
<g id="edge7" class="edge"><title>b&#45;&gt;y_like</title>
<path fill="none" stroke="black" d="M275.244,-121.822C275.244,-111.19 275.244,-97.306 275.244,-85.2035"/>
<polygon fill="black" stroke="black" points="278.744,-85.1532 275.244,-75.1533 271.744,-85.1533 278.744,-85.1532"/>
</g>
</g>
</svg>
