<?xml version="1.0" encoding="UTF-8" standalone="no"?>
<!DOCTYPE svg PUBLIC "-//W3C//DTD SVG 1.1//EN"
 "http://www.w3.org/Graphics/SVG/1.1/DTD/svg11.dtd">
<!-- Generated by graphviz version 2.40.1 (20161225.0304)
 -->
<!-- Title: %3 Pages: 1 -->
<svg width="406pt" height="347pt"
 viewBox="0.00 0.00 405.72 346.86" xmlns="http://www.w3.org/2000/svg" xmlns:xlink="http://www.w3.org/1999/xlink">
<g id="graph0" class="graph" transform="scale(1 1) rotate(0) translate(4 342.86)">
<title>%3</title>
<polygon fill="#ffffff" stroke="transparent" points="-4,4 -4,-342.86 401.7193,-342.86 401.7193,4 -4,4"/>
<g id="clust1" class="cluster">
<title>cluster919</title>
<path fill="none" stroke="#000000" d="M20,-8C20,-8 96,-8 96,-8 102,-8 108,-14 108,-20 108,-20 108,-212.93 108,-212.93 108,-218.93 102,-224.93 96,-224.93 96,-224.93 20,-224.93 20,-224.93 14,-224.93 8,-218.93 8,-212.93 8,-212.93 8,-20 8,-20 8,-14 14,-8 20,-8"/>
<text text-anchor="middle" x="89.5" y="-15.8" font-family="Times,serif" font-size="14.00" fill="#000000">919</text>
</g>
<g id="clust2" class="cluster">
<title>cluster85</title>
<path fill="none" stroke="#000000" d="M254,-121.9533C254,-121.9533 340,-121.9533 340,-121.9533 346,-121.9533 352,-127.9533 352,-133.9533 352,-133.9533 352,-223.9066 352,-223.9066 352,-229.9066 346,-235.9066 340,-235.9066 340,-235.9066 254,-235.9066 254,-235.9066 248,-235.9066 242,-229.9066 242,-223.9066 242,-223.9066 242,-133.9533 242,-133.9533 242,-127.9533 248,-121.9533 254,-121.9533"/>
<text text-anchor="middle" x="337" y="-129.7533" font-family="Times,serif" font-size="14.00" fill="#000000">85</text>
</g>
<!-- county_idx -->
<g id="node1" class="node">
<title>county_idx</title>
<path fill="#d3d3d3" stroke="#000000" d="M84.5,-216.93C84.5,-216.93 31.5,-216.93 31.5,-216.93 25.5,-216.93 19.5,-210.93 19.5,-204.93 19.5,-204.93 19.5,-175.93 19.5,-175.93 19.5,-169.93 25.5,-163.93 31.5,-163.93 31.5,-163.93 84.5,-163.93 84.5,-163.93 90.5,-163.93 96.5,-169.93 96.5,-175.93 96.5,-175.93 96.5,-204.93 96.5,-204.93 96.5,-210.93 90.5,-216.93 84.5,-216.93"/>
<text text-anchor="middle" x="58" y="-201.73" font-family="Times,serif" font-size="14.00" fill="#000000">county_idx</text>
<text text-anchor="middle" x="58" y="-186.73" font-family="Times,serif" font-size="14.00" fill="#000000">~</text>
<text text-anchor="middle" x="58" y="-171.73" font-family="Times,serif" font-size="14.00" fill="#000000">Data</text>
</g>
<!-- y -->
<g id="node2" class="node">
<title>y</title>
<ellipse fill="#d3d3d3" stroke="#000000" cx="58" cy="-76.4767" rx="41.9398" ry="37.4533"/>
<text text-anchor="middle" x="58" y="-87.7767" font-family="Times,serif" font-size="14.00" fill="#000000">y</text>
<text text-anchor="middle" x="58" y="-72.7767" font-family="Times,serif" font-size="14.00" fill="#000000">~</text>
<text text-anchor="middle" x="58" y="-57.7767" font-family="Times,serif" font-size="14.00" fill="#000000">Normal</text>
</g>
<!-- county_idx&#45;&gt;y -->
<g id="edge3" class="edge">
<title>county_idx&#45;&gt;y</title>
<path fill="none" stroke="#000000" d="M58,-163.713C58,-151.9706 58,-137.8127 58,-124.3507"/>
<polygon fill="#000000" stroke="#000000" points="61.5001,-124.2434 58,-114.2434 54.5001,-124.2434 61.5001,-124.2434"/>
</g>
<!-- sigma -->
<g id="node3" class="node">
<title>sigma</title>
<ellipse fill="none" stroke="#000000" cx="174" cy="-190.43" rx="57.9655" ry="37.4533"/>
<text text-anchor="middle" x="174" y="-201.73" font-family="Times,serif" font-size="14.00" fill="#000000">sigma</text>
<text text-anchor="middle" x="174" y="-186.73" font-family="Times,serif" font-size="14.00" fill="#000000">~</text>
<text text-anchor="middle" x="174" y="-171.73" font-family="Times,serif" font-size="14.00" fill="#000000">Exponential</text>
</g>
<!-- sigma&#45;&gt;y -->
<g id="edge5" class="edge">
<title>sigma&#45;&gt;y</title>
<path fill="none" stroke="#000000" d="M145.8479,-157.5407C135.5268,-145.9726 123.5416,-133.0881 112,-121.9533 107.1995,-117.3221 101.9997,-112.6047 96.7872,-108.0471"/>
<polygon fill="#000000" stroke="#000000" points="99.0511,-105.3777 89.1864,-101.5126 94.4877,-110.6858 99.0511,-105.3777"/>
</g>
<!-- sigma_a -->
<g id="node4" class="node">
<title>sigma_a</title>
<ellipse fill="none" stroke="#000000" cx="238" cy="-301.3833" rx="57.9655" ry="37.4533"/>
<text text-anchor="middle" x="238" y="-312.6833" font-family="Times,serif" font-size="14.00" fill="#000000">sigma_a</text>
<text text-anchor="middle" x="238" y="-297.6833" font-family="Times,serif" font-size="14.00" fill="#000000">~</text>
<text text-anchor="middle" x="238" y="-282.6833" font-family="Times,serif" font-size="14.00" fill="#000000">Exponential</text>
</g>
<!-- a_county -->
<g id="node6" class="node">
<title>a_county</title>
<ellipse fill="none" stroke="#000000" cx="297" cy="-190.43" rx="46.8387" ry="37.4533"/>
<text text-anchor="middle" x="297" y="-201.73" font-family="Times,serif" font-size="14.00" fill="#000000">a_county</text>
<text text-anchor="middle" x="297" y="-186.73" font-family="Times,serif" font-size="14.00" fill="#000000">~</text>
<text text-anchor="middle" x="297" y="-171.73" font-family="Times,serif" font-size="14.00" fill="#000000">Normal</text>
</g>
<!-- sigma_a&#45;&gt;a_county -->
<g id="edge1" class="edge">
<title>sigma_a&#45;&gt;a_county</title>
<path fill="none" stroke="#000000" d="M256.9927,-265.6662C262.36,-255.5728 268.261,-244.4756 273.8438,-233.9767"/>
<polygon fill="#000000" stroke="#000000" points="277.0418,-235.4173 278.6466,-224.9447 270.8613,-232.1307 277.0418,-235.4173"/>
</g>
<!-- a -->
<g id="node5" class="node">
<title>a</title>
<ellipse fill="none" stroke="#000000" cx="356" cy="-301.3833" rx="41.9398" ry="37.4533"/>
<text text-anchor="middle" x="356" y="-312.6833" font-family="Times,serif" font-size="14.00" fill="#000000">a</text>
<text text-anchor="middle" x="356" y="-297.6833" font-family="Times,serif" font-size="14.00" fill="#000000">~</text>
<text text-anchor="middle" x="356" y="-282.6833" font-family="Times,serif" font-size="14.00" fill="#000000">Normal</text>
</g>
<!-- a&#45;&gt;a_county -->
<g id="edge2" class="edge">
<title>a&#45;&gt;a_county</title>
<path fill="none" stroke="#000000" d="M337.9775,-267.4908C332.4177,-257.0352 326.2135,-245.3678 320.3487,-234.3388"/>
<polygon fill="#000000" stroke="#000000" points="323.3091,-232.4512 315.5238,-225.2651 317.1286,-235.7377 323.3091,-232.4512"/>
</g>
<!-- a_county&#45;&gt;y -->
<g id="edge4" class="edge">
<title>a_county&#45;&gt;y</title>
<path fill="none" stroke="#000000" d="M276.281,-156.7749C266.9446,-144.1486 254.8837,-130.7437 241,-121.9533 201.264,-96.7947 148.4952,-85.5515 109.8349,-80.5286"/>
<polygon fill="#000000" stroke="#000000" points="110.1743,-77.0442 99.8279,-79.3255 109.3387,-83.9942 110.1743,-77.0442"/>
</g>
</g>
</svg>
