<?xml version="1.0" encoding="UTF-8" standalone="no"?>
<!DOCTYPE svg PUBLIC "-//W3C//DTD SVG 1.1//EN"
 "http://www.w3.org/Graphics/SVG/1.1/DTD/svg11.dtd">
<!-- Generated by graphviz version 2.38.0 (20140413.2041)
 -->
<!-- Title: %3 Pages: 1 -->
<svg width="529pt" height="329pt"
 viewBox="0.00 0.00 529.18 329.00" xmlns="http://www.w3.org/2000/svg" xmlns:xlink="http://www.w3.org/1999/xlink">
<g id="graph0" class="graph" transform="scale(1 1) rotate(0) translate(4 325)">
<title>%3</title>
<polygon fill="white" stroke="none" points="-4,4 -4,-325 525.185,-325 525.185,4 -4,4"/>
<g id="clust1" class="cluster"><title>cluster3</title>
<path fill="none" stroke="black" d="M171.243,-238C171.243,-238 313.243,-238 313.243,-238 319.243,-238 325.243,-244 325.243,-250 325.243,-250 325.243,-301 325.243,-301 325.243,-307 319.243,-313 313.243,-313 313.243,-313 171.243,-313 171.243,-313 165.243,-313 159.243,-307 159.243,-301 159.243,-301 159.243,-250 159.243,-250 159.243,-244 165.243,-238 171.243,-238"/>
<text text-anchor="middle" x="313.743" y="-245.8" font-family="Times,serif" font-size="14.00">3</text>
</g>
<g id="clust2" class="cluster"><title>cluster919</title>
<path fill="none" stroke="black" d="M182.243,-8C182.243,-8 314.243,-8 314.243,-8 320.243,-8 326.243,-14 326.243,-20 326.243,-20 326.243,-218 326.243,-218 326.243,-224 320.243,-230 314.243,-230 314.243,-230 182.243,-230 182.243,-230 176.243,-230 170.243,-224 170.243,-218 170.243,-218 170.243,-20 170.243,-20 170.243,-14 176.243,-8 182.243,-8"/>
<text text-anchor="middle" x="307.743" y="-15.8" font-family="Times,serif" font-size="14.00">919</text>
</g>
<g id="clust3" class="cluster"><title>cluster85</title>
<path fill="none" stroke="black" d="M358.243,-155C358.243,-155 486.243,-155 486.243,-155 492.243,-155 498.243,-161 498.243,-167 498.243,-167 498.243,-218 498.243,-218 498.243,-224 492.243,-230 486.243,-230 486.243,-230 358.243,-230 358.243,-230 352.243,-230 346.243,-224 346.243,-218 346.243,-218 346.243,-167 346.243,-167 346.243,-161 352.243,-155 358.243,-155"/>
<text text-anchor="middle" x="483.243" y="-162.8" font-family="Times,serif" font-size="14.00">85</text>
</g>
<!-- sigma_y -->
<g id="node1" class="node"><title>sigma_y</title>
<ellipse fill="none" stroke="black" cx="81.2428" cy="-129" rx="81.4863" ry="18"/>
<text text-anchor="middle" x="81.2428" y="-125.3" font-family="Times,serif" font-size="14.00">sigma_y ~ Uniform</text>
</g>
<!-- y_like -->
<g id="node7" class="node"><title>y_like</title>
<ellipse fill="lightgrey" stroke="black" cx="248.243" cy="-57" rx="69.5877" ry="18"/>
<text text-anchor="middle" x="248.243" y="-53.3" font-family="Times,serif" font-size="14.00">y_like ~ Normal</text>
</g>
<!-- sigma_y&#45;&gt;y_like -->
<g id="edge6" class="edge"><title>sigma_y&#45;&gt;y_like</title>
<path fill="none" stroke="black" d="M117.479,-112.811C142.88,-102.164 176.98,-87.8704 203.99,-76.5492"/>
<polygon fill="black" stroke="black" points="205.352,-79.7733 213.221,-72.6796 202.646,-73.3175 205.352,-79.7733"/>
</g>
<!-- b -->
<g id="node2" class="node"><title>b</title>
<ellipse fill="none" stroke="black" cx="386.243" cy="-129" rx="51.9908" ry="18"/>
<text text-anchor="middle" x="386.243" y="-125.3" font-family="Times,serif" font-size="14.00">b ~ Normal</text>
</g>
<!-- b&#45;&gt;y_like -->
<g id="edge7" class="edge"><title>b&#45;&gt;y_like</title>
<path fill="none" stroke="black" d="M357.983,-113.666C337.607,-103.33 309.847,-89.2484 287.345,-77.8345"/>
<polygon fill="black" stroke="black" points="288.879,-74.6878 278.377,-73.2854 285.712,-80.9306 288.879,-74.6878"/>
</g>
<!-- sigma_a -->
<g id="node3" class="node"><title>sigma_a</title>
<ellipse fill="none" stroke="black" cx="428.243" cy="-287" rx="92.8835" ry="18"/>
<text text-anchor="middle" x="428.243" y="-283.3" font-family="Times,serif" font-size="14.00">sigma_a ~ HalfCauchy</text>
</g>
<!-- eps_a -->
<g id="node8" class="node"><title>eps_a</title>
<ellipse fill="none" stroke="black" cx="422.243" cy="-204" rx="67.6881" ry="18"/>
<text text-anchor="middle" x="422.243" y="-200.3" font-family="Times,serif" font-size="14.00">eps_a ~ Normal</text>
</g>
<!-- sigma_a&#45;&gt;eps_a -->
<g id="edge2" class="edge"><title>sigma_a&#45;&gt;eps_a</title>
<path fill="none" stroke="black" d="M426.97,-268.822C426.183,-258.19 425.154,-244.306 424.258,-232.204"/>
<polygon fill="black" stroke="black" points="427.743,-231.867 423.513,-222.153 420.762,-232.385 427.743,-231.867"/>
</g>
<!-- gamma -->
<g id="node4" class="node"><title>gamma</title>
<ellipse fill="none" stroke="black" cx="242.243" cy="-287" rx="74.9875" ry="18"/>
<text text-anchor="middle" x="242.243" y="-283.3" font-family="Times,serif" font-size="14.00">gamma ~ Normal</text>
</g>
<!-- mu_a -->
<g id="node5" class="node"><title>mu_a</title>
<polygon fill="none" stroke="black" points="316.743,-222 179.743,-222 179.743,-186 316.743,-186 316.743,-222"/>
<text text-anchor="middle" x="248.243" y="-200.3" font-family="Times,serif" font-size="14.00">mu_a ~ Deterministic</text>
</g>
<!-- gamma&#45;&gt;mu_a -->
<g id="edge1" class="edge"><title>gamma&#45;&gt;mu_a</title>
<path fill="none" stroke="black" d="M243.515,-268.822C244.303,-258.19 245.331,-244.306 246.228,-232.204"/>
<polygon fill="black" stroke="black" points="249.724,-232.385 246.972,-222.153 242.743,-231.867 249.724,-232.385"/>
</g>
<!-- a -->
<g id="node6" class="node"><title>a</title>
<polygon fill="none" stroke="black" points="304.243,-147 192.243,-147 192.243,-111 304.243,-111 304.243,-147"/>
<text text-anchor="middle" x="248.243" y="-125.3" font-family="Times,serif" font-size="14.00">a ~ Deterministic</text>
</g>
<!-- mu_a&#45;&gt;a -->
<g id="edge4" class="edge"><title>mu_a&#45;&gt;a</title>
<path fill="none" stroke="black" d="M248.243,-185.7C248.243,-177.245 248.243,-166.869 248.243,-157.373"/>
<polygon fill="black" stroke="black" points="251.743,-157.176 248.243,-147.176 244.743,-157.176 251.743,-157.176"/>
</g>
<!-- a&#45;&gt;y_like -->
<g id="edge5" class="edge"><title>a&#45;&gt;y_like</title>
<path fill="none" stroke="black" d="M248.243,-110.697C248.243,-102.983 248.243,-93.7125 248.243,-85.1124"/>
<polygon fill="black" stroke="black" points="251.743,-85.1043 248.243,-75.1043 244.743,-85.1044 251.743,-85.1043"/>
</g>
<!-- eps_a&#45;&gt;a -->
<g id="edge3" class="edge"><title>eps_a&#45;&gt;a</title>
<path fill="none" stroke="black" d="M395.497,-187.364C377.466,-177.246 352.919,-164.279 330.243,-155 324.948,-152.834 319.395,-150.754 313.78,-148.784"/>
<polygon fill="black" stroke="black" points="314.902,-145.469 304.307,-145.577 312.657,-152.099 314.902,-145.469"/>
</g>
</g>
</svg>
