<?xml version="1.0" encoding="UTF-8" standalone="no"?>
<!DOCTYPE svg PUBLIC "-//W3C//DTD SVG 1.1//EN"
 "http://www.w3.org/Graphics/SVG/1.1/DTD/svg11.dtd">
<!-- Generated by graphviz version 2.38.0 (20140413.2041)
 -->
<!-- Title: %3 Pages: 1 -->
<svg width="335pt" height="182pt"
 viewBox="0.00 0.00 335.49 182.00" xmlns="http://www.w3.org/2000/svg" xmlns:xlink="http://www.w3.org/1999/xlink">
<g id="graph0" class="graph" transform="scale(1 1) rotate(0) translate(4 178)">
<title>%3</title>
<polygon fill="white" stroke="none" points="-4,4 -4,-178 331.493,-178 331.493,4 -4,4"/>
<g id="clust1" class="cluster"><title>cluster2</title>
<path fill="none" stroke="black" d="M20,-91C20,-91 136,-91 136,-91 142,-91 148,-97 148,-103 148,-103 148,-154 148,-154 148,-160 142,-166 136,-166 136,-166 20,-166 20,-166 14,-166 8,-160 8,-154 8,-154 8,-103 8,-103 8,-97 14,-91 20,-91"/>
<text text-anchor="middle" x="136.5" y="-98.8" font-family="Times,serif" font-size="14.00">2</text>
</g>
<g id="clust2" class="cluster"><title>cluster919</title>
<path fill="none" stroke="black" d="M35,-8C35,-8 131,-8 131,-8 137,-8 143,-14 143,-20 143,-20 143,-71 143,-71 143,-77 137,-83 131,-83 131,-83 35,-83 35,-83 29,-83 23,-77 23,-71 23,-71 23,-20 23,-20 23,-14 29,-8 35,-8"/>
<text text-anchor="middle" x="124.5" y="-15.8" font-family="Times,serif" font-size="14.00">919</text>
</g>
<!-- beta -->
<g id="node1" class="node"><title>beta</title>
<ellipse fill="none" stroke="black" cx="78" cy="-140" rx="62.2891" ry="18"/>
<text text-anchor="middle" x="78" y="-136.3" font-family="Times,serif" font-size="14.00">beta ~ Normal</text>
</g>
<!-- y -->
<g id="node3" class="node"><title>y</title>
<ellipse fill="lightgrey" stroke="black" cx="83" cy="-57" rx="51.9908" ry="18"/>
<text text-anchor="middle" x="83" y="-53.3" font-family="Times,serif" font-size="14.00">y ~ Normal</text>
</g>
<!-- beta&#45;&gt;y -->
<g id="edge2" class="edge"><title>beta&#45;&gt;y</title>
<path fill="none" stroke="black" d="M79.0604,-121.822C79.7166,-111.19 80.5737,-97.306 81.3208,-85.2035"/>
<polygon fill="black" stroke="black" points="84.8183,-85.3499 81.9412,-75.1533 77.8316,-84.9186 84.8183,-85.3499"/>
</g>
<!-- sigma -->
<g id="node2" class="node"><title>sigma</title>
<ellipse fill="none" stroke="black" cx="243" cy="-140" rx="84.485" ry="18"/>
<text text-anchor="middle" x="243" y="-136.3" font-family="Times,serif" font-size="14.00">sigma ~ HalfCauchy</text>
</g>
<!-- sigma&#45;&gt;y -->
<g id="edge1" class="edge"><title>sigma&#45;&gt;y</title>
<path fill="none" stroke="black" d="M213.233,-122.921C195.533,-113.455 172.587,-101.348 152,-91 142.29,-86.1194 131.736,-80.9866 121.87,-76.2616"/>
<polygon fill="black" stroke="black" points="123.205,-73.0208 112.672,-71.8781 120.194,-79.3399 123.205,-73.0208"/>
</g>
</g>
</svg>
