<?xml version="1.0" encoding="UTF-8" standalone="no"?>
<!DOCTYPE svg PUBLIC "-//W3C//DTD SVG 1.1//EN"
 "http://www.w3.org/Graphics/SVG/1.1/DTD/svg11.dtd">
<!-- Generated by graphviz version 2.38.0 (20140413.2041)
 -->
<!-- Title: %3 Pages: 1 -->
<svg width="569pt" height="238pt"
 viewBox="0.00 0.00 568.94 238.00" xmlns="http://www.w3.org/2000/svg" xmlns:xlink="http://www.w3.org/1999/xlink">
<g id="graph0" class="graph" transform="scale(1 1) rotate(0) translate(4 234)">
<title>%3</title>
<polygon fill="white" stroke="none" points="-4,4 -4,-234 564.937,-234 564.937,4 -4,4"/>
<g id="clust1" class="cluster"><title>cluster85</title>
<path fill="none" stroke="black" d="M329.995,-91C329.995,-91 425.995,-91 425.995,-91 431.995,-91 437.995,-97 437.995,-103 437.995,-103 437.995,-154 437.995,-154 437.995,-160 431.995,-166 425.995,-166 425.995,-166 329.995,-166 329.995,-166 323.995,-166 317.995,-160 317.995,-154 317.995,-154 317.995,-103 317.995,-103 317.995,-97 323.995,-91 329.995,-91"/>
<text text-anchor="middle" x="422.995" y="-98.8" font-family="Times,serif" font-size="14.00">85</text>
</g>
<g id="clust2" class="cluster"><title>cluster919</title>
<path fill="none" stroke="black" d="M148.995,-8C148.995,-8 280.995,-8 280.995,-8 286.995,-8 292.995,-14 292.995,-20 292.995,-20 292.995,-71 292.995,-71 292.995,-77 286.995,-83 280.995,-83 280.995,-83 148.995,-83 148.995,-83 142.995,-83 136.995,-77 136.995,-71 136.995,-71 136.995,-20 136.995,-20 136.995,-14 142.995,-8 148.995,-8"/>
<text text-anchor="middle" x="274.495" y="-15.8" font-family="Times,serif" font-size="14.00">919</text>
</g>
<!-- a -->
<g id="node1" class="node"><title>a</title>
<ellipse fill="none" stroke="black" cx="51.9954" cy="-140" rx="51.9908" ry="18"/>
<text text-anchor="middle" x="51.9954" y="-136.3" font-family="Times,serif" font-size="14.00">a ~ Normal</text>
</g>
<!-- y_like -->
<g id="node6" class="node"><title>y_like</title>
<ellipse fill="lightgrey" stroke="black" cx="214.995" cy="-57" rx="69.5877" ry="18"/>
<text text-anchor="middle" x="214.995" y="-53.3" font-family="Times,serif" font-size="14.00">y_like ~ Normal</text>
</g>
<!-- a&#45;&gt;y_like -->
<g id="edge3" class="edge"><title>a&#45;&gt;y_like</title>
<path fill="none" stroke="black" d="M68.9792,-122.93C80.6179,-112.63 96.823,-99.6219 112.995,-91 126.473,-83.8146 141.791,-77.8449 156.385,-73.0499"/>
<polygon fill="black" stroke="black" points="157.853,-76.2573 166.341,-69.9173 155.752,-69.58 157.853,-76.2573"/>
</g>
<!-- sigma_y -->
<g id="node2" class="node"><title>sigma_y</title>
<ellipse fill="none" stroke="black" cx="214.995" cy="-140" rx="92.8835" ry="18"/>
<text text-anchor="middle" x="214.995" y="-136.3" font-family="Times,serif" font-size="14.00">sigma_y ~ HalfCauchy</text>
</g>
<!-- sigma_y&#45;&gt;y_like -->
<g id="edge4" class="edge"><title>sigma_y&#45;&gt;y_like</title>
<path fill="none" stroke="black" d="M214.995,-121.822C214.995,-111.19 214.995,-97.306 214.995,-85.2035"/>
<polygon fill="black" stroke="black" points="218.495,-85.1532 214.995,-75.1533 211.495,-85.1533 218.495,-85.1532"/>
</g>
<!-- mu_b -->
<g id="node3" class="node"><title>mu_b</title>
<ellipse fill="none" stroke="black" cx="288.995" cy="-212" rx="68.4888" ry="18"/>
<text text-anchor="middle" x="288.995" y="-208.3" font-family="Times,serif" font-size="14.00">mu_b ~ Normal</text>
</g>
<!-- b -->
<g id="node5" class="node"><title>b</title>
<ellipse fill="none" stroke="black" cx="377.995" cy="-140" rx="51.9908" ry="18"/>
<text text-anchor="middle" x="377.995" y="-136.3" font-family="Times,serif" font-size="14.00">b ~ Normal</text>
</g>
<!-- mu_b&#45;&gt;b -->
<g id="edge1" class="edge"><title>mu_b&#45;&gt;b</title>
<path fill="none" stroke="black" d="M309.637,-194.765C321.601,-185.355 336.83,-173.378 349.876,-163.117"/>
<polygon fill="black" stroke="black" points="352.381,-165.599 358.077,-156.666 348.054,-160.097 352.381,-165.599"/>
</g>
<!-- sigma_b -->
<g id="node4" class="node"><title>sigma_b</title>
<ellipse fill="none" stroke="black" cx="467.995" cy="-212" rx="92.8835" ry="18"/>
<text text-anchor="middle" x="467.995" y="-208.3" font-family="Times,serif" font-size="14.00">sigma_b ~ HalfCauchy</text>
</g>
<!-- sigma_b&#45;&gt;b -->
<g id="edge2" class="edge"><title>sigma_b&#45;&gt;b</title>
<path fill="none" stroke="black" d="M446.667,-194.411C434.642,-185.058 419.465,-173.254 406.439,-163.123"/>
<polygon fill="black" stroke="black" points="408.286,-160.126 398.244,-156.749 403.989,-165.651 408.286,-160.126"/>
</g>
<!-- b&#45;&gt;y_like -->
<g id="edge5" class="edge"><title>b&#45;&gt;y_like</title>
<path fill="none" stroke="black" d="M361.012,-122.93C349.373,-112.63 333.168,-99.6219 316.995,-91 303.518,-83.8146 288.199,-77.8449 273.606,-73.0499"/>
<polygon fill="black" stroke="black" points="274.239,-69.58 263.65,-69.9173 272.138,-76.2573 274.239,-69.58"/>
</g>
</g>
</svg>
