<?xml version="1.0" encoding="UTF-8" standalone="no"?>
<!DOCTYPE svg PUBLIC "-//W3C//DTD SVG 1.1//EN"
 "http://www.w3.org/Graphics/SVG/1.1/DTD/svg11.dtd">
<!-- Generated by graphviz version 2.42.3 (20191010.1750)
 -->
<!-- Title: %3 Pages: 1 -->
<svg width="533pt" height="344pt"
 viewBox="0.00 0.00 532.50 343.86" xmlns="http://www.w3.org/2000/svg" xmlns:xlink="http://www.w3.org/1999/xlink">
<g id="graph0" class="graph" transform="scale(1 1) rotate(0) translate(4 339.86)">
<title>%3</title>
<polygon fill="white" stroke="transparent" points="-4,4 -4,-339.86 528.5,-339.86 528.5,4 -4,4"/>
<g id="clust1" class="cluster">
<title>cluster31</title>
<path fill="none" stroke="black" d="M98.09,-8C98.09,-8 360.09,-8 360.09,-8 366.09,-8 372.09,-14 372.09,-20 372.09,-20 372.09,-209.93 372.09,-209.93 372.09,-215.93 366.09,-221.93 360.09,-221.93 360.09,-221.93 98.09,-221.93 98.09,-221.93 92.09,-221.93 86.09,-215.93 86.09,-209.93 86.09,-209.93 86.09,-20 86.09,-20 86.09,-14 92.09,-8 98.09,-8"/>
<text text-anchor="middle" x="354.59" y="-15.8" font-family="Times,serif" font-size="14.00">31</text>
</g>
<!-- variance_of_distance -->
<g id="node1" class="node">
<title>variance_of_distance</title>
<ellipse fill="none" stroke="black" cx="118.09" cy="-298.38" rx="118.17" ry="37.45"/>
<text text-anchor="middle" x="118.09" y="-309.68" font-family="Times,serif" font-size="14.00">variance_of_distance</text>
<text text-anchor="middle" x="118.09" y="-294.68" font-family="Times,serif" font-size="14.00">~</text>
<text text-anchor="middle" x="118.09" y="-279.68" font-family="Times,serif" font-size="14.00">HalfNormal</text>
</g>
<!-- p_good_distance -->
<g id="node5" class="node">
<title>p_good_distance</title>
<polygon fill="none" stroke="black" points="230.09,-213.93 94.09,-213.93 94.09,-160.93 230.09,-160.93 230.09,-213.93"/>
<text text-anchor="middle" x="162.09" y="-198.73" font-family="Times,serif" font-size="14.00">p_good_distance</text>
<text text-anchor="middle" x="162.09" y="-183.73" font-family="Times,serif" font-size="14.00">~</text>
<text text-anchor="middle" x="162.09" y="-168.73" font-family="Times,serif" font-size="14.00">Deterministic</text>
</g>
<!-- variance_of_distance&#45;&gt;p_good_distance -->
<g id="edge2" class="edge">
<title>variance_of_distance&#45;&gt;p_good_distance</title>
<path fill="none" stroke="black" d="M132.74,-261.1C137.63,-248.99 143.07,-235.52 147.92,-223.5"/>
<polygon fill="black" stroke="black" points="151.17,-224.81 151.67,-214.22 144.68,-222.19 151.17,-224.81"/>
</g>
<!-- dispersion -->
<g id="node2" class="node">
<title>dispersion</title>
<ellipse fill="none" stroke="black" cx="453.09" cy="-187.43" rx="71.34" ry="37.45"/>
<text text-anchor="middle" x="453.09" y="-198.73" font-family="Times,serif" font-size="14.00">dispersion</text>
<text text-anchor="middle" x="453.09" y="-183.73" font-family="Times,serif" font-size="14.00">~</text>
<text text-anchor="middle" x="453.09" y="-168.73" font-family="Times,serif" font-size="14.00">HalfNormal</text>
</g>
<!-- p_success -->
<g id="node4" class="node">
<title>p_success</title>
<ellipse fill="lightgrey" stroke="black" cx="301.09" cy="-76.48" rx="62.87" ry="37.45"/>
<text text-anchor="middle" x="301.09" y="-87.78" font-family="Times,serif" font-size="14.00">p_success</text>
<text text-anchor="middle" x="301.09" y="-72.78" font-family="Times,serif" font-size="14.00">~</text>
<text text-anchor="middle" x="301.09" y="-57.78" font-family="Times,serif" font-size="14.00">Normal</text>
</g>
<!-- dispersion&#45;&gt;p_success -->
<g id="edge3" class="edge">
<title>dispersion&#45;&gt;p_success</title>
<path fill="none" stroke="black" d="M411.55,-156.66C392.08,-142.7 368.79,-126 348.62,-111.55"/>
<polygon fill="black" stroke="black" points="350.64,-108.69 340.48,-105.71 346.57,-114.38 350.64,-108.69"/>
</g>
<!-- variance_of_shot -->
<g id="node3" class="node">
<title>variance_of_shot</title>
<ellipse fill="none" stroke="black" cx="351.09" cy="-298.38" rx="96.75" ry="37.45"/>
<text text-anchor="middle" x="351.09" y="-309.68" font-family="Times,serif" font-size="14.00">variance_of_shot</text>
<text text-anchor="middle" x="351.09" y="-294.68" font-family="Times,serif" font-size="14.00">~</text>
<text text-anchor="middle" x="351.09" y="-279.68" font-family="Times,serif" font-size="14.00">HalfNormal</text>
</g>
<!-- p_good_angle -->
<g id="node6" class="node">
<title>p_good_angle</title>
<polygon fill="none" stroke="black" points="363.59,-213.93 248.59,-213.93 248.59,-160.93 363.59,-160.93 363.59,-213.93"/>
<text text-anchor="middle" x="306.09" y="-198.73" font-family="Times,serif" font-size="14.00">p_good_angle</text>
<text text-anchor="middle" x="306.09" y="-183.73" font-family="Times,serif" font-size="14.00">~</text>
<text text-anchor="middle" x="306.09" y="-168.73" font-family="Times,serif" font-size="14.00">Deterministic</text>
</g>
<!-- variance_of_shot&#45;&gt;p_good_angle -->
<g id="edge1" class="edge">
<title>variance_of_shot&#45;&gt;p_good_angle</title>
<path fill="none" stroke="black" d="M336.1,-261.1C331.1,-248.99 325.54,-235.52 320.57,-223.5"/>
<polygon fill="black" stroke="black" points="323.79,-222.13 316.74,-214.22 317.32,-224.8 323.79,-222.13"/>
</g>
<!-- p_good_distance&#45;&gt;p_success -->
<g id="edge4" class="edge">
<title>p_good_distance&#45;&gt;p_success</title>
<path fill="none" stroke="black" d="M194.68,-160.89C212.87,-146.62 235.82,-128.63 255.75,-113.02"/>
<polygon fill="black" stroke="black" points="258.08,-115.63 263.79,-106.71 253.76,-110.13 258.08,-115.63"/>
</g>
<!-- p_good_angle&#45;&gt;p_success -->
<g id="edge5" class="edge">
<title>p_good_angle&#45;&gt;p_success</title>
<path fill="none" stroke="black" d="M304.91,-160.89C304.41,-149.98 303.81,-136.89 303.24,-124.35"/>
<polygon fill="black" stroke="black" points="306.72,-123.83 302.76,-114 299.73,-124.15 306.72,-123.83"/>
</g>
</g>
</svg>
