<?xml version="1.0" encoding="UTF-8" standalone="no"?>
<!DOCTYPE svg PUBLIC "-//W3C//DTD SVG 1.1//EN"
 "http://www.w3.org/Graphics/SVG/1.1/DTD/svg11.dtd">
<!-- Generated by graphviz version 2.38.0 (20140413.2041)
 -->
<!-- Title: %3 Pages: 1 -->
<svg width="706pt" height="238pt"
 viewBox="0.00 0.00 706.19 238.00" xmlns="http://www.w3.org/2000/svg" xmlns:xlink="http://www.w3.org/1999/xlink">
<g id="graph0" class="graph" transform="scale(1 1) rotate(0) translate(4 234)">
<title>%3</title>
<polygon fill="white" stroke="none" points="-4,4 -4,-234 702.186,-234 702.186,4 -4,4"/>
<g id="clust1" class="cluster"><title>cluster85</title>
<path fill="none" stroke="black" d="M251.942,-91C251.942,-91 469.942,-91 469.942,-91 475.942,-91 481.942,-97 481.942,-103 481.942,-103 481.942,-154 481.942,-154 481.942,-160 475.942,-166 469.942,-166 469.942,-166 251.942,-166 251.942,-166 245.942,-166 239.942,-160 239.942,-154 239.942,-154 239.942,-103 239.942,-103 239.942,-97 245.942,-91 251.942,-91"/>
<text text-anchor="middle" x="466.942" y="-98.8" font-family="Times,serif" font-size="14.00">85</text>
</g>
<g id="clust2" class="cluster"><title>cluster919</title>
<path fill="none" stroke="black" d="M233.942,-8C233.942,-8 365.942,-8 365.942,-8 371.942,-8 377.942,-14 377.942,-20 377.942,-20 377.942,-71 377.942,-71 377.942,-77 371.942,-83 365.942,-83 365.942,-83 233.942,-83 233.942,-83 227.942,-83 221.942,-77 221.942,-71 221.942,-71 221.942,-20 221.942,-20 221.942,-14 227.942,-8 233.942,-8"/>
<text text-anchor="middle" x="359.442" y="-15.8" font-family="Times,serif" font-size="14.00">919</text>
</g>
<!-- sigma_y -->
<g id="node1" class="node"><title>sigma_y</title>
<ellipse fill="none" stroke="black" cx="148.942" cy="-140" rx="81.4863" ry="18"/>
<text text-anchor="middle" x="148.942" y="-136.3" font-family="Times,serif" font-size="14.00">sigma_y ~ Uniform</text>
</g>
<!-- y_like -->
<g id="node8" class="node"><title>y_like</title>
<ellipse fill="lightgrey" stroke="black" cx="299.942" cy="-57" rx="69.5877" ry="18"/>
<text text-anchor="middle" x="299.942" y="-53.3" font-family="Times,serif" font-size="14.00">y_like ~ Normal</text>
</g>
<!-- sigma_y&#45;&gt;y_like -->
<g id="edge6" class="edge"><title>sigma_y&#45;&gt;y_like</title>
<path fill="none" stroke="black" d="M177.436,-123.015C194.371,-113.582 216.308,-101.475 235.942,-91 243.955,-86.7244 252.575,-82.2176 260.812,-77.9552"/>
<polygon fill="black" stroke="black" points="262.612,-80.9653 269.896,-73.2721 259.404,-74.7435 262.612,-80.9653"/>
</g>
<!-- sigma_b -->
<g id="node2" class="node"><title>sigma_b</title>
<ellipse fill="none" stroke="black" cx="450.942" cy="-212" rx="92.8835" ry="18"/>
<text text-anchor="middle" x="450.942" y="-208.3" font-family="Times,serif" font-size="14.00">sigma_b ~ HalfCauchy</text>
</g>
<!-- b -->
<g id="node7" class="node"><title>b</title>
<ellipse fill="none" stroke="black" cx="421.942" cy="-140" rx="51.9908" ry="18"/>
<text text-anchor="middle" x="421.942" y="-136.3" font-family="Times,serif" font-size="14.00">b ~ Normal</text>
</g>
<!-- sigma_b&#45;&gt;b -->
<g id="edge4" class="edge"><title>sigma_b&#45;&gt;b</title>
<path fill="none" stroke="black" d="M443.773,-193.697C440.507,-185.813 436.568,-176.304 432.94,-167.546"/>
<polygon fill="black" stroke="black" points="436.089,-166.003 429.028,-158.104 429.622,-168.683 436.089,-166.003"/>
</g>
<!-- sigma_a -->
<g id="node3" class="node"><title>sigma_a</title>
<ellipse fill="none" stroke="black" cx="92.9418" cy="-212" rx="92.8835" ry="18"/>
<text text-anchor="middle" x="92.9418" y="-208.3" font-family="Times,serif" font-size="14.00">sigma_a ~ HalfCauchy</text>
</g>
<!-- a -->
<g id="node6" class="node"><title>a</title>
<ellipse fill="none" stroke="black" cx="299.942" cy="-140" rx="51.9908" ry="18"/>
<text text-anchor="middle" x="299.942" y="-136.3" font-family="Times,serif" font-size="14.00">a ~ Normal</text>
</g>
<!-- sigma_a&#45;&gt;a -->
<g id="edge2" class="edge"><title>sigma_a&#45;&gt;a</title>
<path fill="none" stroke="black" d="M142.976,-196.791C171.335,-188.435 207.354,-177.315 238.942,-166 245.457,-163.666 252.298,-161.04 258.947,-158.39"/>
<polygon fill="black" stroke="black" points="260.538,-161.521 268.491,-154.521 257.909,-155.034 260.538,-161.521"/>
</g>
<!-- mu_a -->
<g id="node4" class="node"><title>mu_a</title>
<ellipse fill="none" stroke="black" cx="271.942" cy="-212" rx="67.6881" ry="18"/>
<text text-anchor="middle" x="271.942" y="-208.3" font-family="Times,serif" font-size="14.00">mu_a ~ Normal</text>
</g>
<!-- mu_a&#45;&gt;a -->
<g id="edge1" class="edge"><title>mu_a&#45;&gt;a</title>
<path fill="none" stroke="black" d="M278.72,-194.055C281.871,-186.176 285.695,-176.617 289.224,-167.794"/>
<polygon fill="black" stroke="black" points="292.567,-168.86 293.032,-158.275 286.068,-166.26 292.567,-168.86"/>
</g>
<!-- mu_b -->
<g id="node5" class="node"><title>mu_b</title>
<ellipse fill="none" stroke="black" cx="629.942" cy="-212" rx="68.4888" ry="18"/>
<text text-anchor="middle" x="629.942" y="-208.3" font-family="Times,serif" font-size="14.00">mu_b ~ Normal</text>
</g>
<!-- mu_b&#45;&gt;b -->
<g id="edge3" class="edge"><title>mu_b&#45;&gt;b</title>
<path fill="none" stroke="black" d="M589.343,-197.337C554.438,-185.59 504.124,-168.658 467.779,-156.426"/>
<polygon fill="black" stroke="black" points="468.517,-152.982 457.923,-153.109 466.284,-159.616 468.517,-152.982"/>
</g>
<!-- a&#45;&gt;y_like -->
<g id="edge5" class="edge"><title>a&#45;&gt;y_like</title>
<path fill="none" stroke="black" d="M299.942,-121.822C299.942,-111.19 299.942,-97.306 299.942,-85.2035"/>
<polygon fill="black" stroke="black" points="303.442,-85.1532 299.942,-75.1533 296.442,-85.1533 303.442,-85.1532"/>
</g>
<!-- b&#45;&gt;y_like -->
<g id="edge7" class="edge"><title>b&#45;&gt;y_like</title>
<path fill="none" stroke="black" d="M403.335,-123C391.562,-113.224 375.808,-100.768 360.942,-91 354.22,-86.5837 346.853,-82.2253 339.635,-78.1953"/>
<polygon fill="black" stroke="black" points="341.087,-75.0007 330.632,-73.2866 337.736,-81.1465 341.087,-75.0007"/>
</g>
</g>
</svg>
