<?xml version="1.0" encoding="UTF-8" standalone="no"?>
<!DOCTYPE svg PUBLIC "-//W3C//DTD SVG 1.1//EN"
 "http://www.w3.org/Graphics/SVG/1.1/DTD/svg11.dtd">
<!-- Generated by graphviz version 2.38.0 (20140413.2041)
 -->
<!-- Title: %3 Pages: 1 -->
<svg width="537pt" height="310pt"
 viewBox="0.00 0.00 537.13 310.00" xmlns="http://www.w3.org/2000/svg" xmlns:xlink="http://www.w3.org/1999/xlink">
<g id="graph0" class="graph" transform="scale(1 1) rotate(0) translate(4 306)">
<title>%3</title>
<polygon fill="white" stroke="none" points="-4,4 -4,-306 533.134,-306 533.134,4 -4,4"/>
<g id="clust1" class="cluster"><title>cluster85</title>
<path fill="none" stroke="black" d="M372.193,-163C372.193,-163 500.193,-163 500.193,-163 506.193,-163 512.193,-169 512.193,-175 512.193,-175 512.193,-226 512.193,-226 512.193,-232 506.193,-238 500.193,-238 500.193,-238 372.193,-238 372.193,-238 366.193,-238 360.193,-232 360.193,-226 360.193,-226 360.193,-175 360.193,-175 360.193,-169 366.193,-163 372.193,-163"/>
<text text-anchor="middle" x="497.193" y="-170.8" font-family="Times,serif" font-size="14.00">85</text>
</g>
<g id="clust2" class="cluster"><title>cluster919</title>
<path fill="none" stroke="black" d="M201.193,-8C201.193,-8 333.193,-8 333.193,-8 339.193,-8 345.193,-14 345.193,-20 345.193,-20 345.193,-143 345.193,-143 345.193,-149 339.193,-155 333.193,-155 333.193,-155 201.193,-155 201.193,-155 195.193,-155 189.193,-149 189.193,-143 189.193,-143 189.193,-20 189.193,-20 189.193,-14 195.193,-8 201.193,-8"/>
<text text-anchor="middle" x="326.693" y="-15.8" font-family="Times,serif" font-size="14.00">919</text>
</g>
<!-- sigma_y -->
<g id="node1" class="node"><title>sigma_y</title>
<ellipse fill="none" stroke="black" cx="100.193" cy="-129" rx="81.4863" ry="18"/>
<text text-anchor="middle" x="100.193" y="-125.3" font-family="Times,serif" font-size="14.00">sigma_y ~ Uniform</text>
</g>
<!-- y_like -->
<g id="node8" class="node"><title>y_like</title>
<ellipse fill="lightgrey" stroke="black" cx="267.193" cy="-57" rx="69.5877" ry="18"/>
<text text-anchor="middle" x="267.193" y="-53.3" font-family="Times,serif" font-size="14.00">y_like ~ Normal</text>
</g>
<!-- sigma_y&#45;&gt;y_like -->
<g id="edge6" class="edge"><title>sigma_y&#45;&gt;y_like</title>
<path fill="none" stroke="black" d="M136.429,-112.811C161.83,-102.164 195.93,-87.8704 222.939,-76.5492"/>
<polygon fill="black" stroke="black" points="224.302,-79.7733 232.171,-72.6796 221.596,-73.3175 224.302,-79.7733"/>
</g>
<!-- gamma_1 -->
<g id="node2" class="node"><title>gamma_1</title>
<ellipse fill="none" stroke="black" cx="83.1926" cy="-212" rx="83.3857" ry="18"/>
<text text-anchor="middle" x="83.1926" y="-208.3" font-family="Times,serif" font-size="14.00">gamma_1 ~ Normal</text>
</g>
<!-- a -->
<g id="node7" class="node"><title>a</title>
<polygon fill="none" stroke="black" points="323.193,-147 211.193,-147 211.193,-111 323.193,-111 323.193,-147"/>
<text text-anchor="middle" x="267.193" y="-125.3" font-family="Times,serif" font-size="14.00">a ~ Deterministic</text>
</g>
<!-- gamma_1&#45;&gt;a -->
<g id="edge4" class="edge"><title>gamma_1&#45;&gt;a</title>
<path fill="none" stroke="black" d="M111.704,-194.837C129.629,-185 153.408,-172.537 175.193,-163 185.071,-158.676 195.713,-154.465 206.133,-150.577"/>
<polygon fill="black" stroke="black" points="207.425,-153.832 215.61,-147.105 205.017,-147.259 207.425,-153.832"/>
</g>
<!-- b -->
<g id="node3" class="node"><title>b</title>
<ellipse fill="none" stroke="black" cx="405.193" cy="-129" rx="51.9908" ry="18"/>
<text text-anchor="middle" x="405.193" y="-125.3" font-family="Times,serif" font-size="14.00">b ~ Normal</text>
</g>
<!-- b&#45;&gt;y_like -->
<g id="edge7" class="edge"><title>b&#45;&gt;y_like</title>
<path fill="none" stroke="black" d="M376.933,-113.666C356.557,-103.33 328.797,-89.2484 306.295,-77.8345"/>
<polygon fill="black" stroke="black" points="307.828,-74.6878 297.327,-73.2854 304.662,-80.9306 307.828,-74.6878"/>
</g>
<!-- sigma_a -->
<g id="node4" class="node"><title>sigma_a</title>
<ellipse fill="none" stroke="black" cx="436.193" cy="-284" rx="92.8835" ry="18"/>
<text text-anchor="middle" x="436.193" y="-280.3" font-family="Times,serif" font-size="14.00">sigma_a ~ HalfCauchy</text>
</g>
<!-- eps_a -->
<g id="node6" class="node"><title>eps_a</title>
<ellipse fill="none" stroke="black" cx="436.193" cy="-212" rx="67.6881" ry="18"/>
<text text-anchor="middle" x="436.193" y="-208.3" font-family="Times,serif" font-size="14.00">eps_a ~ Normal</text>
</g>
<!-- sigma_a&#45;&gt;eps_a -->
<g id="edge1" class="edge"><title>sigma_a&#45;&gt;eps_a</title>
<path fill="none" stroke="black" d="M436.193,-265.697C436.193,-257.983 436.193,-248.712 436.193,-240.112"/>
<polygon fill="black" stroke="black" points="439.693,-240.104 436.193,-230.104 432.693,-240.104 439.693,-240.104"/>
</g>
<!-- gamma_0 -->
<g id="node5" class="node"><title>gamma_0</title>
<ellipse fill="none" stroke="black" cx="267.193" cy="-212" rx="83.3857" ry="18"/>
<text text-anchor="middle" x="267.193" y="-208.3" font-family="Times,serif" font-size="14.00">gamma_0 ~ Normal</text>
</g>
<!-- gamma_0&#45;&gt;a -->
<g id="edge3" class="edge"><title>gamma_0&#45;&gt;a</title>
<path fill="none" stroke="black" d="M267.193,-193.822C267.193,-183.19 267.193,-169.306 267.193,-157.204"/>
<polygon fill="black" stroke="black" points="270.693,-157.153 267.193,-147.153 263.693,-157.153 270.693,-157.153"/>
</g>
<!-- eps_a&#45;&gt;a -->
<g id="edge2" class="edge"><title>eps_a&#45;&gt;a</title>
<path fill="none" stroke="black" d="M413.342,-194.954C398.398,-184.919 378.191,-172.199 359.193,-163 350.144,-158.619 340.355,-154.498 330.654,-150.751"/>
<polygon fill="black" stroke="black" points="331.605,-147.37 321.013,-147.134 329.146,-153.924 331.605,-147.37"/>
</g>
<!-- a&#45;&gt;y_like -->
<g id="edge5" class="edge"><title>a&#45;&gt;y_like</title>
<path fill="none" stroke="black" d="M267.193,-110.697C267.193,-102.983 267.193,-93.7125 267.193,-85.1124"/>
<polygon fill="black" stroke="black" points="270.693,-85.1043 267.193,-75.1043 263.693,-85.1044 270.693,-85.1043"/>
</g>
</g>
</svg>
