<?xml version="1.0" encoding="UTF-8" standalone="no"?>
<!DOCTYPE svg PUBLIC "-//W3C//DTD SVG 1.1//EN"
 "http://www.w3.org/Graphics/SVG/1.1/DTD/svg11.dtd">
<!-- Generated by graphviz version 2.40.1 (20161225.0304)
 -->
<!-- Title: %3 Pages: 1 -->
<svg width="290pt" height="171pt"
 viewBox="0.00 0.00 289.79 171.00" xmlns="http://www.w3.org/2000/svg" xmlns:xlink="http://www.w3.org/1999/xlink">
<g id="graph0" class="graph" transform="scale(1 1) rotate(0) translate(4 167)">
<title>%3</title>
<polygon fill="#ffffff" stroke="transparent" points="-4,4 -4,-167 285.7947,-167 285.7947,4 -4,4"/>
<g id="clust1" class="cluster">
<title>cluster10</title>
<path fill="none" stroke="#000000" d="M20,-8C20,-8 140,-8 140,-8 146,-8 152,-14 152,-20 152,-20 152,-143 152,-143 152,-149 146,-155 140,-155 140,-155 20,-155 20,-155 14,-155 8,-149 8,-143 8,-143 8,-20 8,-20 8,-14 14,-8 20,-8"/>
<text text-anchor="middle" x="137" y="-15.8" font-family="Times,serif" font-size="14.00" fill="#000000">10</text>
</g>
<!-- y -->
<g id="node1" class="node">
<title>y</title>
<ellipse fill="#d3d3d3" stroke="#000000" cx="86" cy="-57" rx="51.9908" ry="18"/>
<text text-anchor="middle" x="86" y="-53.3" font-family="Times,serif" font-size="14.00" fill="#000000">y ~ Normal</text>
</g>
<!-- data -->
<g id="node2" class="node">
<title>data</title>
<polygon fill="#d3d3d3" stroke="#000000" points="144,-147 16,-147 16,-111 144,-111 144,-147"/>
<text text-anchor="middle" x="80" y="-125.3" font-family="Times,serif" font-size="14.00" fill="#000000">data ~ Deterministic</text>
</g>
<!-- data&#45;&gt;y -->
<g id="edge1" class="edge">
<title>data&#45;&gt;y</title>
<path fill="none" stroke="#000000" d="M81.5141,-110.8314C82.1558,-103.131 82.9188,-93.9743 83.6319,-85.4166"/>
<polygon fill="#000000" stroke="#000000" points="87.1229,-85.6694 84.4656,-75.4133 80.1471,-85.088 87.1229,-85.6694"/>
</g>
<!-- mu -->
<g id="node3" class="node">
<title>mu</title>
<ellipse fill="none" stroke="#000000" cx="222" cy="-129" rx="59.5901" ry="18"/>
<text text-anchor="middle" x="222" y="-125.3" font-family="Times,serif" font-size="14.00" fill="#000000">mu ~ Normal</text>
</g>
<!-- mu&#45;&gt;y -->
<g id="edge2" class="edge">
<title>mu&#45;&gt;y</title>
<path fill="none" stroke="#000000" d="M192.1542,-113.1993C172.0396,-102.5504 145.3394,-88.415 123.7493,-76.9849"/>
<polygon fill="#000000" stroke="#000000" points="125.3189,-73.8557 114.8434,-72.27 122.0437,-80.0422 125.3189,-73.8557"/>
</g>
</g>
</svg>
