<?xml version="1.0" encoding="UTF-8" standalone="no"?>
<!DOCTYPE svg PUBLIC "-//W3C//DTD SVG 1.1//EN"
 "http://www.w3.org/Graphics/SVG/1.1/DTD/svg11.dtd">
<!-- Generated by graphviz version 2.42.3 (20191010.1750)
 -->
<!-- Title: %3 Pages: 1 -->
<svg width="487pt" height="233pt"
 viewBox="0.00 0.00 486.76 232.91" xmlns="http://www.w3.org/2000/svg" xmlns:xlink="http://www.w3.org/1999/xlink">
<g id="graph0" class="graph" transform="scale(1 1) rotate(0) translate(4 228.91)">
<title>%3</title>
<polygon fill="white" stroke="transparent" points="-4,4 -4,-228.91 482.76,-228.91 482.76,4 -4,4"/>
<g id="clust1" class="cluster">
<title>cluster20</title>
<path fill="none" stroke="black" d="M194.39,-8C194.39,-8 308.39,-8 308.39,-8 314.39,-8 320.39,-14 320.39,-20 320.39,-20 320.39,-109.95 320.39,-109.95 320.39,-115.95 314.39,-121.95 308.39,-121.95 308.39,-121.95 194.39,-121.95 194.39,-121.95 188.39,-121.95 182.39,-115.95 182.39,-109.95 182.39,-109.95 182.39,-20 182.39,-20 182.39,-14 188.39,-8 194.39,-8"/>
<text text-anchor="middle" x="302.89" y="-15.8" font-family="Times,serif" font-size="14.00">20</text>
</g>
<!-- nu -->
<g id="node1" class="node">
<title>nu</title>
<ellipse fill="none" stroke="black" cx="88.39" cy="-187.43" rx="88.28" ry="37.45"/>
<text text-anchor="middle" x="88.39" y="-198.73" font-family="Times,serif" font-size="14.00">nu</text>
<text text-anchor="middle" x="88.39" y="-183.73" font-family="Times,serif" font-size="14.00">~</text>
<text text-anchor="middle" x="88.39" y="-168.73" font-family="Times,serif" font-size="14.00">InverseGamma</text>
</g>
<!-- likelihood -->
<g id="node4" class="node">
<title>likelihood</title>
<ellipse fill="lightgrey" stroke="black" cx="251.39" cy="-76.48" rx="60.62" ry="37.45"/>
<text text-anchor="middle" x="251.39" y="-87.78" font-family="Times,serif" font-size="14.00">likelihood</text>
<text text-anchor="middle" x="251.39" y="-72.78" font-family="Times,serif" font-size="14.00">~</text>
<text text-anchor="middle" x="251.39" y="-57.78" font-family="Times,serif" font-size="14.00">StudentT</text>
</g>
<!-- nu&#45;&gt;likelihood -->
<g id="edge1" class="edge">
<title>nu&#45;&gt;likelihood</title>
<path fill="none" stroke="black" d="M135.1,-155.21C156.1,-141.17 180.89,-124.6 202.18,-110.37"/>
<polygon fill="black" stroke="black" points="204.4,-113.1 210.76,-104.63 200.51,-107.28 204.4,-113.1"/>
</g>
<!-- b1_slope -->
<g id="node2" class="node">
<title>b1_slope</title>
<ellipse fill="none" stroke="black" cx="251.39" cy="-187.43" rx="56.64" ry="37.45"/>
<text text-anchor="middle" x="251.39" y="-198.73" font-family="Times,serif" font-size="14.00">b1_slope</text>
<text text-anchor="middle" x="251.39" y="-183.73" font-family="Times,serif" font-size="14.00">~</text>
<text text-anchor="middle" x="251.39" y="-168.73" font-family="Times,serif" font-size="14.00">Normal</text>
</g>
<!-- b1_slope&#45;&gt;likelihood -->
<g id="edge2" class="edge">
<title>b1_slope&#45;&gt;likelihood</title>
<path fill="none" stroke="black" d="M251.39,-149.85C251.39,-141.67 251.39,-132.89 251.39,-124.37"/>
<polygon fill="black" stroke="black" points="254.89,-124.15 251.39,-114.15 247.89,-124.15 254.89,-124.15"/>
</g>
<!-- b0_intercept -->
<g id="node3" class="node">
<title>b0_intercept</title>
<ellipse fill="none" stroke="black" cx="402.39" cy="-187.43" rx="76.24" ry="37.45"/>
<text text-anchor="middle" x="402.39" y="-198.73" font-family="Times,serif" font-size="14.00">b0_intercept</text>
<text text-anchor="middle" x="402.39" y="-183.73" font-family="Times,serif" font-size="14.00">~</text>
<text text-anchor="middle" x="402.39" y="-168.73" font-family="Times,serif" font-size="14.00">Normal</text>
</g>
<!-- b0_intercept&#45;&gt;likelihood -->
<g id="edge3" class="edge">
<title>b0_intercept&#45;&gt;likelihood</title>
<path fill="none" stroke="black" d="M360.33,-156.08C341.08,-142.2 318.21,-125.69 298.4,-111.4"/>
<polygon fill="black" stroke="black" points="300.28,-108.44 290.12,-105.42 296.18,-114.11 300.28,-108.44"/>
</g>
</g>
</svg>
