<?xml version="1.0" encoding="UTF-8" standalone="no"?>
<!DOCTYPE svg PUBLIC "-//W3C//DTD SVG 1.1//EN"
 "http://www.w3.org/Graphics/SVG/1.1/DTD/svg11.dtd">
<!-- Generated by graphviz version 2.40.1 (20161225.0304)
 -->
<!-- Title: %3 Pages: 1 -->
<svg width="767pt" height="374pt"
 viewBox="0.00 0.00 766.72 373.86" xmlns="http://www.w3.org/2000/svg" xmlns:xlink="http://www.w3.org/1999/xlink">
<g id="graph0" class="graph" transform="scale(1 1) rotate(0) translate(4 369.86)">
<title>%3</title>
<polygon fill="#ffffff" stroke="transparent" points="-4,4 -4,-369.86 762.7193,-369.86 762.7193,4 -4,4"/>
<g id="clust1" class="cluster">
<title>cluster919</title>
<path fill="none" stroke="#000000" d="M20,-8C20,-8 175,-8 175,-8 181,-8 187,-14 187,-20 187,-20 187,-212.93 187,-212.93 187,-218.93 181,-224.93 175,-224.93 175,-224.93 20,-224.93 20,-224.93 14,-224.93 8,-218.93 8,-212.93 8,-212.93 8,-20 8,-20 8,-14 14,-8 20,-8"/>
<text text-anchor="middle" x="168.5" y="-15.8" font-family="Times,serif" font-size="14.00" fill="#000000">919</text>
</g>
<g id="clust2" class="cluster">
<title>cluster3</title>
<path fill="none" stroke="#000000" d="M390,-243.9066C390,-243.9066 552,-243.9066 552,-243.9066 558,-243.9066 564,-249.9066 564,-255.9066 564,-255.9066 564,-345.86 564,-345.86 564,-351.86 558,-357.86 552,-357.86 552,-357.86 390,-357.86 390,-357.86 384,-357.86 378,-351.86 378,-345.86 378,-345.86 378,-255.9066 378,-255.9066 378,-249.9066 384,-243.9066 390,-243.9066"/>
<text text-anchor="middle" x="552.5" y="-251.7066" font-family="Times,serif" font-size="14.00" fill="#000000">3</text>
</g>
<g id="clust3" class="cluster">
<title>cluster2</title>
<path fill="none" stroke="#000000" d="M333,-132.93C333,-132.93 417,-132.93 417,-132.93 423,-132.93 429,-138.93 429,-144.93 429,-144.93 429,-212.93 429,-212.93 429,-218.93 423,-224.93 417,-224.93 417,-224.93 333,-224.93 333,-224.93 327,-224.93 321,-218.93 321,-212.93 321,-212.93 321,-144.93 321,-144.93 321,-138.93 327,-132.93 333,-132.93"/>
<text text-anchor="middle" x="417.5" y="-140.73" font-family="Times,serif" font-size="14.00" fill="#000000">2</text>
</g>
<g id="clust4" class="cluster">
<title>cluster2 x 2</title>
<path fill="none" stroke="#000000" d="M449,-132.93C449,-132.93 533,-132.93 533,-132.93 539,-132.93 545,-138.93 545,-144.93 545,-144.93 545,-212.93 545,-212.93 545,-218.93 539,-224.93 533,-224.93 533,-224.93 449,-224.93 449,-224.93 443,-224.93 437,-218.93 437,-212.93 437,-212.93 437,-144.93 437,-144.93 437,-138.93 443,-132.93 449,-132.93"/>
<text text-anchor="middle" x="523" y="-140.73" font-family="Times,serif" font-size="14.00" fill="#000000">2 x 2</text>
</g>
<g id="clust5" class="cluster">
<title>cluster85 x 2</title>
<path fill="none" stroke="#000000" d="M565,-121.9533C565,-121.9533 667,-121.9533 667,-121.9533 673,-121.9533 679,-127.9533 679,-133.9533 679,-133.9533 679,-223.9066 679,-223.9066 679,-229.9066 673,-235.9066 667,-235.9066 667,-235.9066 565,-235.9066 565,-235.9066 559,-235.9066 553,-229.9066 553,-223.9066 553,-223.9066 553,-133.9533 553,-133.9533 553,-127.9533 559,-121.9533 565,-121.9533"/>
<text text-anchor="middle" x="653.5" y="-129.7533" font-family="Times,serif" font-size="14.00" fill="#000000">85 x 2</text>
</g>
<!-- county_idx -->
<g id="node1" class="node">
<title>county_idx</title>
<path fill="#d3d3d3" stroke="#000000" d="M166.5,-216.93C166.5,-216.93 113.5,-216.93 113.5,-216.93 107.5,-216.93 101.5,-210.93 101.5,-204.93 101.5,-204.93 101.5,-175.93 101.5,-175.93 101.5,-169.93 107.5,-163.93 113.5,-163.93 113.5,-163.93 166.5,-163.93 166.5,-163.93 172.5,-163.93 178.5,-169.93 178.5,-175.93 178.5,-175.93 178.5,-204.93 178.5,-204.93 178.5,-210.93 172.5,-216.93 166.5,-216.93"/>
<text text-anchor="middle" x="140" y="-201.73" font-family="Times,serif" font-size="14.00" fill="#000000">county_idx</text>
<text text-anchor="middle" x="140" y="-186.73" font-family="Times,serif" font-size="14.00" fill="#000000">~</text>
<text text-anchor="middle" x="140" y="-171.73" font-family="Times,serif" font-size="14.00" fill="#000000">Data</text>
</g>
<!-- y -->
<g id="node3" class="node">
<title>y</title>
<ellipse fill="#d3d3d3" stroke="#000000" cx="137" cy="-76.4767" rx="41.9398" ry="37.4533"/>
<text text-anchor="middle" x="137" y="-87.7767" font-family="Times,serif" font-size="14.00" fill="#000000">y</text>
<text text-anchor="middle" x="137" y="-72.7767" font-family="Times,serif" font-size="14.00" fill="#000000">~</text>
<text text-anchor="middle" x="137" y="-57.7767" font-family="Times,serif" font-size="14.00" fill="#000000">Normal</text>
</g>
<!-- county_idx&#45;&gt;y -->
<g id="edge8" class="edge">
<title>county_idx&#45;&gt;y</title>
<path fill="none" stroke="#000000" d="M139.2966,-163.713C138.9875,-151.9706 138.6148,-137.8127 138.2604,-124.3507"/>
<polygon fill="#000000" stroke="#000000" points="141.7563,-124.1478 137.9943,-114.2434 134.7588,-124.3321 141.7563,-124.1478"/>
</g>
<!-- floor_idx -->
<g id="node2" class="node">
<title>floor_idx</title>
<path fill="#d3d3d3" stroke="#000000" d="M71.5,-216.93C71.5,-216.93 28.5,-216.93 28.5,-216.93 22.5,-216.93 16.5,-210.93 16.5,-204.93 16.5,-204.93 16.5,-175.93 16.5,-175.93 16.5,-169.93 22.5,-163.93 28.5,-163.93 28.5,-163.93 71.5,-163.93 71.5,-163.93 77.5,-163.93 83.5,-169.93 83.5,-175.93 83.5,-175.93 83.5,-204.93 83.5,-204.93 83.5,-210.93 77.5,-216.93 71.5,-216.93"/>
<text text-anchor="middle" x="50" y="-201.73" font-family="Times,serif" font-size="14.00" fill="#000000">floor_idx</text>
<text text-anchor="middle" x="50" y="-186.73" font-family="Times,serif" font-size="14.00" fill="#000000">~</text>
<text text-anchor="middle" x="50" y="-171.73" font-family="Times,serif" font-size="14.00" fill="#000000">Data</text>
</g>
<!-- floor_idx&#45;&gt;y -->
<g id="edge9" class="edge">
<title>floor_idx&#45;&gt;y</title>
<path fill="none" stroke="#000000" d="M64.4108,-163.8058C71.9617,-150.7261 81.7572,-135.0115 92,-121.9533 94.7742,-118.4166 97.7958,-114.8616 100.9173,-111.3825"/>
<polygon fill="#000000" stroke="#000000" points="103.6064,-113.6304 107.8531,-103.9239 98.4803,-108.8636 103.6064,-113.6304"/>
</g>
<!-- chol -->
<g id="node4" class="node">
<title>chol</title>
<ellipse fill="none" stroke="#000000" cx="471" cy="-312.3833" rx="84.7059" ry="37.4533"/>
<text text-anchor="middle" x="471" y="-323.6833" font-family="Times,serif" font-size="14.00" fill="#000000">chol</text>
<text text-anchor="middle" x="471" y="-308.6833" font-family="Times,serif" font-size="14.00" fill="#000000">~</text>
<text text-anchor="middle" x="471" y="-293.6833" font-family="Times,serif" font-size="14.00" fill="#000000">_LKJCholeskyCov</text>
</g>
<!-- chol_stds -->
<g id="node5" class="node">
<title>chol_stds</title>
<polygon fill="none" stroke="#000000" points="420.5,-216.93 329.5,-216.93 329.5,-163.93 420.5,-163.93 420.5,-216.93"/>
<text text-anchor="middle" x="375" y="-201.73" font-family="Times,serif" font-size="14.00" fill="#000000">chol_stds</text>
<text text-anchor="middle" x="375" y="-186.73" font-family="Times,serif" font-size="14.00" fill="#000000">~</text>
<text text-anchor="middle" x="375" y="-171.73" font-family="Times,serif" font-size="14.00" fill="#000000">Deterministic</text>
</g>
<!-- chol&#45;&gt;chol_stds -->
<g id="edge1" class="edge">
<title>chol&#45;&gt;chol_stds</title>
<path fill="none" stroke="#000000" d="M442.9748,-276.7815C430.1559,-260.4971 415.0237,-241.274 402.2947,-225.1038"/>
<polygon fill="#000000" stroke="#000000" points="404.8179,-222.6505 395.8823,-216.9578 399.3176,-226.9803 404.8179,-222.6505"/>
</g>
<!-- chol_corr -->
<g id="node6" class="node">
<title>chol_corr</title>
<polygon fill="none" stroke="#000000" points="536.5,-216.93 445.5,-216.93 445.5,-163.93 536.5,-163.93 536.5,-216.93"/>
<text text-anchor="middle" x="491" y="-201.73" font-family="Times,serif" font-size="14.00" fill="#000000">chol_corr</text>
<text text-anchor="middle" x="491" y="-186.73" font-family="Times,serif" font-size="14.00" fill="#000000">~</text>
<text text-anchor="middle" x="491" y="-171.73" font-family="Times,serif" font-size="14.00" fill="#000000">Deterministic</text>
</g>
<!-- chol&#45;&gt;chol_corr -->
<g id="edge2" class="edge">
<title>chol&#45;&gt;chol_corr</title>
<path fill="none" stroke="#000000" d="M477.1639,-274.7982C479.6444,-259.6725 482.4962,-242.2834 484.9638,-227.2369"/>
<polygon fill="#000000" stroke="#000000" points="488.4369,-227.6855 486.6014,-217.2509 481.5291,-226.5526 488.4369,-227.6855"/>
</g>
<!-- ab_county -->
<g id="node10" class="node">
<title>ab_county</title>
<ellipse fill="none" stroke="#000000" cx="616" cy="-190.43" rx="55.3091" ry="37.4533"/>
<text text-anchor="middle" x="616" y="-201.73" font-family="Times,serif" font-size="14.00" fill="#000000">ab_county</text>
<text text-anchor="middle" x="616" y="-186.73" font-family="Times,serif" font-size="14.00" fill="#000000">~</text>
<text text-anchor="middle" x="616" y="-171.73" font-family="Times,serif" font-size="14.00" fill="#000000">MvNormal</text>
</g>
<!-- chol&#45;&gt;ab_county -->
<g id="edge4" class="edge">
<title>chol&#45;&gt;ab_county</title>
<path fill="none" stroke="#000000" d="M510.6219,-279.059C530.0164,-262.7471 553.3934,-243.0857 573.1967,-226.43"/>
<polygon fill="#000000" stroke="#000000" points="575.4762,-229.0862 580.8764,-219.9709 570.9705,-223.729 575.4762,-229.0862"/>
</g>
<!-- b -->
<g id="node7" class="node">
<title>b</title>
<ellipse fill="none" stroke="#000000" cx="616" cy="-312.3833" rx="41.9398" ry="37.4533"/>
<text text-anchor="middle" x="616" y="-323.6833" font-family="Times,serif" font-size="14.00" fill="#000000">b</text>
<text text-anchor="middle" x="616" y="-308.6833" font-family="Times,serif" font-size="14.00" fill="#000000">~</text>
<text text-anchor="middle" x="616" y="-293.6833" font-family="Times,serif" font-size="14.00" fill="#000000">Normal</text>
</g>
<!-- b&#45;&gt;ab_county -->
<g id="edge3" class="edge">
<title>b&#45;&gt;ab_county</title>
<path fill="none" stroke="#000000" d="M616,-274.7982C616,-263.2068 616,-250.2861 616,-238.1091"/>
<polygon fill="#000000" stroke="#000000" points="619.5001,-238.1009 616,-228.1009 612.5001,-238.101 619.5001,-238.1009"/>
</g>
<!-- a -->
<g id="node8" class="node">
<title>a</title>
<ellipse fill="none" stroke="#000000" cx="717" cy="-312.3833" rx="41.9398" ry="37.4533"/>
<text text-anchor="middle" x="717" y="-323.6833" font-family="Times,serif" font-size="14.00" fill="#000000">a</text>
<text text-anchor="middle" x="717" y="-308.6833" font-family="Times,serif" font-size="14.00" fill="#000000">~</text>
<text text-anchor="middle" x="717" y="-293.6833" font-family="Times,serif" font-size="14.00" fill="#000000">Normal</text>
</g>
<!-- a&#45;&gt;ab_county -->
<g id="edge5" class="edge">
<title>a&#45;&gt;ab_county</title>
<path fill="none" stroke="#000000" d="M694.941,-280.3635C686.5224,-268.6381 676.6289,-255.4272 667,-243.9066 662.8965,-238.997 658.4562,-233.9707 653.966,-229.0594"/>
<polygon fill="#000000" stroke="#000000" points="656.2824,-226.4106 646.9102,-221.4697 651.1556,-231.1768 656.2824,-226.4106"/>
</g>
<!-- sigma -->
<g id="node9" class="node">
<title>sigma</title>
<ellipse fill="none" stroke="#000000" cx="254" cy="-190.43" rx="57.9655" ry="37.4533"/>
<text text-anchor="middle" x="254" y="-201.73" font-family="Times,serif" font-size="14.00" fill="#000000">sigma</text>
<text text-anchor="middle" x="254" y="-186.73" font-family="Times,serif" font-size="14.00" fill="#000000">~</text>
<text text-anchor="middle" x="254" y="-171.73" font-family="Times,serif" font-size="14.00" fill="#000000">Exponential</text>
</g>
<!-- sigma&#45;&gt;y -->
<g id="edge7" class="edge">
<title>sigma&#45;&gt;y</title>
<path fill="none" stroke="#000000" d="M225.33,-157.5796C214.8364,-146.0151 202.6704,-133.123 191,-121.9533 186.1811,-117.3412 180.9707,-112.6348 175.753,-108.0827"/>
<polygon fill="#000000" stroke="#000000" points="178.015,-105.4117 168.1479,-101.5526 173.4548,-110.7226 178.015,-105.4117"/>
</g>
<!-- ab_county&#45;&gt;y -->
<g id="edge6" class="edge">
<title>ab_county&#45;&gt;y</title>
<path fill="none" stroke="#000000" d="M591.5309,-156.8323C580.1328,-143.7318 565.4493,-129.9626 549,-121.9533 486.7304,-91.634 285.1763,-81.1985 188.9979,-77.8866"/>
<polygon fill="#000000" stroke="#000000" points="189.0266,-74.3858 178.9161,-77.5524 188.7946,-81.3819 189.0266,-74.3858"/>
</g>
</g>
</svg>
