<?xml version="1.0" encoding="UTF-8" standalone="no"?>
<!DOCTYPE svg PUBLIC "-//W3C//DTD SVG 1.1//EN"
 "http://www.w3.org/Graphics/SVG/1.1/DTD/svg11.dtd">
<!-- Generated by graphviz version 2.42.3 (20191010.1750)
 -->
<!-- Title: %3 Pages: 1 -->
<svg width="404pt" height="438pt"
 viewBox="0.00 0.00 404.02 437.91" xmlns="http://www.w3.org/2000/svg" xmlns:xlink="http://www.w3.org/1999/xlink">
<g id="graph0" class="graph" transform="scale(1 1) rotate(0) translate(4 433.91)">
<title>%3</title>
<polygon fill="white" stroke="transparent" points="-4,4 -4,-433.91 400.02,-433.91 400.02,4 -4,4"/>
<g id="clust1" class="cluster">
<title>cluster3</title>
<path fill="none" stroke="black" d="M242.02,-218.95C242.02,-218.95 376.02,-218.95 376.02,-218.95 382.02,-218.95 388.02,-224.95 388.02,-230.95 388.02,-230.95 388.02,-409.91 388.02,-409.91 388.02,-415.91 382.02,-421.91 376.02,-421.91 376.02,-421.91 242.02,-421.91 242.02,-421.91 236.02,-421.91 230.02,-415.91 230.02,-409.91 230.02,-409.91 230.02,-230.95 230.02,-230.95 230.02,-224.95 236.02,-218.95 242.02,-218.95"/>
<text text-anchor="middle" x="375.02" y="-226.75" font-family="Times,serif" font-size="14.00">3</text>
</g>
<g id="clust2" class="cluster">
<title>cluster20 x 3</title>
<path fill="none" stroke="black" d="M252.02,-8C252.02,-8 366.02,-8 366.02,-8 372.02,-8 378.02,-14 378.02,-20 378.02,-20 378.02,-198.95 378.02,-198.95 378.02,-204.95 372.02,-210.95 366.02,-210.95 366.02,-210.95 252.02,-210.95 252.02,-210.95 246.02,-210.95 240.02,-204.95 240.02,-198.95 240.02,-198.95 240.02,-20 240.02,-20 240.02,-14 246.02,-8 252.02,-8"/>
<text text-anchor="middle" x="347.52" y="-15.8" font-family="Times,serif" font-size="14.00">20 x 3</text>
</g>
<!-- europe_mean_temp -->
<g id="node1" class="node">
<title>europe_mean_temp</title>
<ellipse fill="none" stroke="black" cx="111.02" cy="-376.43" rx="111.03" ry="37.45"/>
<text text-anchor="middle" x="111.02" y="-387.73" font-family="Times,serif" font-size="14.00">europe_mean_temp</text>
<text text-anchor="middle" x="111.02" y="-372.73" font-family="Times,serif" font-size="14.00">~</text>
<text text-anchor="middle" x="111.02" y="-357.73" font-family="Times,serif" font-size="14.00">Normal</text>
</g>
<!-- city_temperature -->
<g id="node2" class="node">
<title>city_temperature</title>
<polygon fill="none" stroke="black" points="379.52,-302.95 238.52,-302.95 238.52,-249.95 379.52,-249.95 379.52,-302.95"/>
<text text-anchor="middle" x="309.02" y="-287.75" font-family="Times,serif" font-size="14.00">city_temperature</text>
<text text-anchor="middle" x="309.02" y="-272.75" font-family="Times,serif" font-size="14.00">~</text>
<text text-anchor="middle" x="309.02" y="-257.75" font-family="Times,serif" font-size="14.00">Deterministic</text>
</g>
<!-- europe_mean_temp&#45;&gt;city_temperature -->
<g id="edge1" class="edge">
<title>europe_mean_temp&#45;&gt;city_temperature</title>
<path fill="none" stroke="black" d="M172.31,-345.1C196.48,-333.14 224.17,-319.44 248.29,-307.5"/>
<polygon fill="black" stroke="black" points="249.93,-310.6 257.34,-303.02 246.83,-304.32 249.93,-310.6"/>
</g>
<!-- likelihood -->
<g id="node4" class="node">
<title>likelihood</title>
<ellipse fill="lightgrey" stroke="black" cx="309.02" cy="-165.48" rx="60.62" ry="37.45"/>
<text text-anchor="middle" x="309.02" y="-176.78" font-family="Times,serif" font-size="14.00">likelihood</text>
<text text-anchor="middle" x="309.02" y="-161.78" font-family="Times,serif" font-size="14.00">~</text>
<text text-anchor="middle" x="309.02" y="-146.78" font-family="Times,serif" font-size="14.00">Normal</text>
</g>
<!-- city_temperature&#45;&gt;likelihood -->
<g id="edge4" class="edge">
<title>city_temperature&#45;&gt;likelihood</title>
<path fill="none" stroke="black" d="M309.02,-249.9C309.02,-238.99 309.02,-225.9 309.02,-213.36"/>
<polygon fill="black" stroke="black" points="312.52,-213.01 309.02,-203.01 305.52,-213.01 312.52,-213.01"/>
</g>
<!-- city_offset -->
<g id="node3" class="node">
<title>city_offset</title>
<ellipse fill="none" stroke="black" cx="309.02" cy="-376.43" rx="65.11" ry="37.45"/>
<text text-anchor="middle" x="309.02" y="-387.73" font-family="Times,serif" font-size="14.00">city_offset</text>
<text text-anchor="middle" x="309.02" y="-372.73" font-family="Times,serif" font-size="14.00">~</text>
<text text-anchor="middle" x="309.02" y="-357.73" font-family="Times,serif" font-size="14.00">Normal</text>
</g>
<!-- city_offset&#45;&gt;city_temperature -->
<g id="edge2" class="edge">
<title>city_offset&#45;&gt;city_temperature</title>
<path fill="none" stroke="black" d="M309.02,-338.95C309.02,-330.53 309.02,-321.59 309.02,-313.2"/>
<polygon fill="black" stroke="black" points="312.52,-312.96 309.02,-302.96 305.52,-312.96 312.52,-312.96"/>
</g>
<!-- data -->
<g id="node5" class="node">
<title>data</title>
<path fill="lightgrey" stroke="black" d="M324.02,-92C324.02,-92 294.02,-92 294.02,-92 288.02,-92 282.02,-86 282.02,-80 282.02,-80 282.02,-51 282.02,-51 282.02,-45 288.02,-39 294.02,-39 294.02,-39 324.02,-39 324.02,-39 330.02,-39 336.02,-45 336.02,-51 336.02,-51 336.02,-80 336.02,-80 336.02,-86 330.02,-92 324.02,-92"/>
<text text-anchor="middle" x="309.02" y="-76.8" font-family="Times,serif" font-size="14.00">data</text>
<text text-anchor="middle" x="309.02" y="-61.8" font-family="Times,serif" font-size="14.00">~</text>
<text text-anchor="middle" x="309.02" y="-46.8" font-family="Times,serif" font-size="14.00">Data</text>
</g>
<!-- likelihood&#45;&gt;data -->
<g id="edge3" class="edge">
<title>likelihood&#45;&gt;data</title>
<path fill="none" stroke="black" d="M309.02,-127.99C309.02,-119.58 309.02,-110.63 309.02,-102.25"/>
<polygon fill="black" stroke="black" points="312.52,-102.01 309.02,-92.01 305.52,-102.01 312.52,-102.01"/>
</g>
</g>
</svg>
