<?xml version="1.0" encoding="UTF-8" standalone="no"?>
<!DOCTYPE svg PUBLIC "-//W3C//DTD SVG 1.1//EN"
 "http://www.w3.org/Graphics/SVG/1.1/DTD/svg11.dtd">
<!-- Generated by graphviz version 2.40.1 (20161225.0304)
 -->
<!-- Title: %3 Pages: 1 -->
<svg width="429pt" height="252pt"
 viewBox="0.00 0.00 428.98 251.91" xmlns="http://www.w3.org/2000/svg" xmlns:xlink="http://www.w3.org/1999/xlink">
<g id="graph0" class="graph" transform="scale(1 1) rotate(0) translate(4 247.9066)">
<title>%3</title>
<polygon fill="#ffffff" stroke="transparent" points="-4,4 -4,-247.9066 424.9828,-247.9066 424.9828,4 -4,4"/>
<g id="clust1" class="cluster">
<title>cluster919</title>
<path fill="none" stroke="#000000" d="M20,-8C20,-8 175,-8 175,-8 181,-8 187,-14 187,-20 187,-20 187,-212.93 187,-212.93 187,-218.93 181,-224.93 175,-224.93 175,-224.93 20,-224.93 20,-224.93 14,-224.93 8,-218.93 8,-212.93 8,-212.93 8,-20 8,-20 8,-14 14,-8 20,-8"/>
<text text-anchor="middle" x="168.5" y="-15.8" font-family="Times,serif" font-size="14.00" fill="#000000">919</text>
</g>
<g id="clust2" class="cluster">
<title>cluster85 x 2</title>
<path fill="none" stroke="#000000" d="M207,-121.9533C207,-121.9533 283,-121.9533 283,-121.9533 289,-121.9533 295,-127.9533 295,-133.9533 295,-133.9533 295,-223.9066 295,-223.9066 295,-229.9066 289,-235.9066 283,-235.9066 283,-235.9066 207,-235.9066 207,-235.9066 201,-235.9066 195,-229.9066 195,-223.9066 195,-223.9066 195,-133.9533 195,-133.9533 195,-127.9533 201,-121.9533 207,-121.9533"/>
<text text-anchor="middle" x="269.5" y="-129.7533" font-family="Times,serif" font-size="14.00" fill="#000000">85 x 2</text>
</g>
<!-- county_idx -->
<g id="node1" class="node">
<title>county_idx</title>
<path fill="#d3d3d3" stroke="#000000" d="M166.5,-216.93C166.5,-216.93 113.5,-216.93 113.5,-216.93 107.5,-216.93 101.5,-210.93 101.5,-204.93 101.5,-204.93 101.5,-175.93 101.5,-175.93 101.5,-169.93 107.5,-163.93 113.5,-163.93 113.5,-163.93 166.5,-163.93 166.5,-163.93 172.5,-163.93 178.5,-169.93 178.5,-175.93 178.5,-175.93 178.5,-204.93 178.5,-204.93 178.5,-210.93 172.5,-216.93 166.5,-216.93"/>
<text text-anchor="middle" x="140" y="-201.73" font-family="Times,serif" font-size="14.00" fill="#000000">county_idx</text>
<text text-anchor="middle" x="140" y="-186.73" font-family="Times,serif" font-size="14.00" fill="#000000">~</text>
<text text-anchor="middle" x="140" y="-171.73" font-family="Times,serif" font-size="14.00" fill="#000000">Data</text>
</g>
<!-- y -->
<g id="node3" class="node">
<title>y</title>
<ellipse fill="#d3d3d3" stroke="#000000" cx="137" cy="-76.4767" rx="41.9398" ry="37.4533"/>
<text text-anchor="middle" x="137" y="-87.7767" font-family="Times,serif" font-size="14.00" fill="#000000">y</text>
<text text-anchor="middle" x="137" y="-72.7767" font-family="Times,serif" font-size="14.00" fill="#000000">~</text>
<text text-anchor="middle" x="137" y="-57.7767" font-family="Times,serif" font-size="14.00" fill="#000000">Normal</text>
</g>
<!-- county_idx&#45;&gt;y -->
<g id="edge1" class="edge">
<title>county_idx&#45;&gt;y</title>
<path fill="none" stroke="#000000" d="M139.2966,-163.713C138.9875,-151.9706 138.6148,-137.8127 138.2604,-124.3507"/>
<polygon fill="#000000" stroke="#000000" points="141.7563,-124.1478 137.9943,-114.2434 134.7588,-124.3321 141.7563,-124.1478"/>
</g>
<!-- floor_idx -->
<g id="node2" class="node">
<title>floor_idx</title>
<path fill="#d3d3d3" stroke="#000000" d="M71.5,-216.93C71.5,-216.93 28.5,-216.93 28.5,-216.93 22.5,-216.93 16.5,-210.93 16.5,-204.93 16.5,-204.93 16.5,-175.93 16.5,-175.93 16.5,-169.93 22.5,-163.93 28.5,-163.93 28.5,-163.93 71.5,-163.93 71.5,-163.93 77.5,-163.93 83.5,-169.93 83.5,-175.93 83.5,-175.93 83.5,-204.93 83.5,-204.93 83.5,-210.93 77.5,-216.93 71.5,-216.93"/>
<text text-anchor="middle" x="50" y="-201.73" font-family="Times,serif" font-size="14.00" fill="#000000">floor_idx</text>
<text text-anchor="middle" x="50" y="-186.73" font-family="Times,serif" font-size="14.00" fill="#000000">~</text>
<text text-anchor="middle" x="50" y="-171.73" font-family="Times,serif" font-size="14.00" fill="#000000">Data</text>
</g>
<!-- floor_idx&#45;&gt;y -->
<g id="edge4" class="edge">
<title>floor_idx&#45;&gt;y</title>
<path fill="none" stroke="#000000" d="M64.9096,-163.8825C72.6785,-150.8217 82.6945,-135.1008 93,-121.9533 95.7427,-118.4543 98.7177,-114.9251 101.7832,-111.4627"/>
<polygon fill="#000000" stroke="#000000" points="104.4173,-113.7686 108.5833,-104.0272 99.2518,-109.0445 104.4173,-113.7686"/>
</g>
<!-- a -->
<g id="node4" class="node">
<title>a</title>
<ellipse fill="none" stroke="#000000" cx="245" cy="-190.43" rx="41.9398" ry="37.4533"/>
<text text-anchor="middle" x="245" y="-201.73" font-family="Times,serif" font-size="14.00" fill="#000000">a</text>
<text text-anchor="middle" x="245" y="-186.73" font-family="Times,serif" font-size="14.00" fill="#000000">~</text>
<text text-anchor="middle" x="245" y="-171.73" font-family="Times,serif" font-size="14.00" fill="#000000">Normal</text>
</g>
<!-- a&#45;&gt;y -->
<g id="edge2" class="edge">
<title>a&#45;&gt;y</title>
<path fill="none" stroke="#000000" d="M222.0796,-158.6383C212.9192,-146.6872 201.9533,-133.2649 191,-121.9533 186.3599,-117.1614 181.2522,-112.3517 176.0855,-107.7483"/>
<polygon fill="#000000" stroke="#000000" points="178.3657,-105.0929 168.5209,-101.1775 173.7752,-110.3776 178.3657,-105.0929"/>
</g>
<!-- sigma -->
<g id="node5" class="node">
<title>sigma</title>
<ellipse fill="none" stroke="#000000" cx="363" cy="-190.43" rx="57.9655" ry="37.4533"/>
<text text-anchor="middle" x="363" y="-201.73" font-family="Times,serif" font-size="14.00" fill="#000000">sigma</text>
<text text-anchor="middle" x="363" y="-186.73" font-family="Times,serif" font-size="14.00" fill="#000000">~</text>
<text text-anchor="middle" x="363" y="-171.73" font-family="Times,serif" font-size="14.00" fill="#000000">Exponential</text>
</g>
<!-- sigma&#45;&gt;y -->
<g id="edge3" class="edge">
<title>sigma&#45;&gt;y</title>
<path fill="none" stroke="#000000" d="M337.7044,-156.3296C326.9877,-143.9469 313.598,-130.8318 299,-121.9533 265.1852,-101.3871 221.7877,-89.8521 188.4218,-83.5494"/>
<polygon fill="#000000" stroke="#000000" points="188.8709,-80.0742 178.4106,-81.7571 187.6373,-86.9647 188.8709,-80.0742"/>
</g>
</g>
</svg>
