<?xml version="1.0" encoding="UTF-8" standalone="no"?>
<!DOCTYPE svg PUBLIC "-//W3C//DTD SVG 1.1//EN"
 "http://www.w3.org/Graphics/SVG/1.1/DTD/svg11.dtd">
<!-- Generated by graphviz version 2.42.3 (20191010.1750)
 -->
<!-- Title: %3 Pages: 1 -->
<svg width="202pt" height="322pt"
 viewBox="0.00 0.00 201.75 321.91" xmlns="http://www.w3.org/2000/svg" xmlns:xlink="http://www.w3.org/1999/xlink">
<g id="graph0" class="graph" transform="scale(1 1) rotate(0) translate(4 317.91)">
<title>%3</title>
<polygon fill="white" stroke="transparent" points="-4,4 -4,-317.91 197.75,-317.91 197.75,4 -4,4"/>
<g id="clust1" class="cluster">
<title>cluster19</title>
<path fill="none" stroke="black" d="M42.87,-8C42.87,-8 150.87,-8 150.87,-8 156.87,-8 162.87,-14 162.87,-20 162.87,-20 162.87,-198.95 162.87,-198.95 162.87,-204.95 156.87,-210.95 150.87,-210.95 150.87,-210.95 42.87,-210.95 42.87,-210.95 36.87,-210.95 30.87,-204.95 30.87,-198.95 30.87,-198.95 30.87,-20 30.87,-20 30.87,-14 36.87,-8 42.87,-8"/>
<text text-anchor="middle" x="145.37" y="-15.8" font-family="Times,serif" font-size="14.00">19</text>
</g>
<!-- variance_of_shot -->
<g id="node1" class="node">
<title>variance_of_shot</title>
<ellipse fill="none" stroke="black" cx="96.87" cy="-276.43" rx="96.75" ry="37.45"/>
<text text-anchor="middle" x="96.87" y="-287.73" font-family="Times,serif" font-size="14.00">variance_of_shot</text>
<text text-anchor="middle" x="96.87" y="-272.73" font-family="Times,serif" font-size="14.00">~</text>
<text text-anchor="middle" x="96.87" y="-257.73" font-family="Times,serif" font-size="14.00">HalfNormal</text>
</g>
<!-- p_goes_in -->
<g id="node3" class="node">
<title>p_goes_in</title>
<polygon fill="none" stroke="black" points="154.37,-202.95 39.37,-202.95 39.37,-149.95 154.37,-149.95 154.37,-202.95"/>
<text text-anchor="middle" x="96.87" y="-187.75" font-family="Times,serif" font-size="14.00">p_goes_in</text>
<text text-anchor="middle" x="96.87" y="-172.75" font-family="Times,serif" font-size="14.00">~</text>
<text text-anchor="middle" x="96.87" y="-157.75" font-family="Times,serif" font-size="14.00">Deterministic</text>
</g>
<!-- variance_of_shot&#45;&gt;p_goes_in -->
<g id="edge1" class="edge">
<title>variance_of_shot&#45;&gt;p_goes_in</title>
<path fill="none" stroke="black" d="M96.87,-238.95C96.87,-230.53 96.87,-221.59 96.87,-213.2"/>
<polygon fill="black" stroke="black" points="100.37,-212.96 96.87,-202.96 93.37,-212.96 100.37,-212.96"/>
</g>
<!-- success -->
<g id="node2" class="node">
<title>success</title>
<ellipse fill="lightgrey" stroke="black" cx="96.87" cy="-76.48" rx="56.64" ry="37.45"/>
<text text-anchor="middle" x="96.87" y="-87.78" font-family="Times,serif" font-size="14.00">success</text>
<text text-anchor="middle" x="96.87" y="-72.78" font-family="Times,serif" font-size="14.00">~</text>
<text text-anchor="middle" x="96.87" y="-57.78" font-family="Times,serif" font-size="14.00">Binomial</text>
</g>
<!-- p_goes_in&#45;&gt;success -->
<g id="edge2" class="edge">
<title>p_goes_in&#45;&gt;success</title>
<path fill="none" stroke="black" d="M96.87,-149.71C96.87,-141.89 96.87,-133.03 96.87,-124.27"/>
<polygon fill="black" stroke="black" points="100.37,-124.1 96.87,-114.1 93.37,-124.1 100.37,-124.1"/>
</g>
</g>
</svg>
