<?xml version="1.0" encoding="UTF-8" standalone="no"?>
<!DOCTYPE svg PUBLIC "-//W3C//DTD SVG 1.1//EN"
 "http://www.w3.org/Graphics/SVG/1.1/DTD/svg11.dtd">
<!-- Generated by graphviz version 2.40.1 (20161225.0304)
 -->
<!-- Title: %3 Pages: 1 -->
<svg width="670pt" height="347pt"
 viewBox="0.00 0.00 669.98 346.86" xmlns="http://www.w3.org/2000/svg" xmlns:xlink="http://www.w3.org/1999/xlink">
<g id="graph0" class="graph" transform="scale(1 1) rotate(0) translate(4 342.86)">
<title>%3</title>
<polygon fill="#ffffff" stroke="transparent" points="-4,4 -4,-342.86 665.9828,-342.86 665.9828,4 -4,4"/>
<g id="clust1" class="cluster">
<title>cluster919</title>
<path fill="none" stroke="#000000" d="M20,-8C20,-8 175,-8 175,-8 181,-8 187,-14 187,-20 187,-20 187,-212.93 187,-212.93 187,-218.93 181,-224.93 175,-224.93 175,-224.93 20,-224.93 20,-224.93 14,-224.93 8,-218.93 8,-212.93 8,-212.93 8,-20 8,-20 8,-14 14,-8 20,-8"/>
<text text-anchor="middle" x="168.5" y="-15.8" font-family="Times,serif" font-size="14.00" fill="#000000">919</text>
</g>
<g id="clust2" class="cluster">
<title>cluster85</title>
<path fill="none" stroke="#000000" d="M334,-121.9533C334,-121.9533 532,-121.9533 532,-121.9533 538,-121.9533 544,-127.9533 544,-133.9533 544,-133.9533 544,-223.9066 544,-223.9066 544,-229.9066 538,-235.9066 532,-235.9066 532,-235.9066 334,-235.9066 334,-235.9066 328,-235.9066 322,-229.9066 322,-223.9066 322,-223.9066 322,-133.9533 322,-133.9533 322,-127.9533 328,-121.9533 334,-121.9533"/>
<text text-anchor="middle" x="529" y="-129.7533" font-family="Times,serif" font-size="14.00" fill="#000000">85</text>
</g>
<!-- county_idx -->
<g id="node1" class="node">
<title>county_idx</title>
<path fill="#d3d3d3" stroke="#000000" d="M166.5,-216.93C166.5,-216.93 113.5,-216.93 113.5,-216.93 107.5,-216.93 101.5,-210.93 101.5,-204.93 101.5,-204.93 101.5,-175.93 101.5,-175.93 101.5,-169.93 107.5,-163.93 113.5,-163.93 113.5,-163.93 166.5,-163.93 166.5,-163.93 172.5,-163.93 178.5,-169.93 178.5,-175.93 178.5,-175.93 178.5,-204.93 178.5,-204.93 178.5,-210.93 172.5,-216.93 166.5,-216.93"/>
<text text-anchor="middle" x="140" y="-201.73" font-family="Times,serif" font-size="14.00" fill="#000000">county_idx</text>
<text text-anchor="middle" x="140" y="-186.73" font-family="Times,serif" font-size="14.00" fill="#000000">~</text>
<text text-anchor="middle" x="140" y="-171.73" font-family="Times,serif" font-size="14.00" fill="#000000">Data</text>
</g>
<!-- y -->
<g id="node3" class="node">
<title>y</title>
<ellipse fill="#d3d3d3" stroke="#000000" cx="137" cy="-76.4767" rx="41.9398" ry="37.4533"/>
<text text-anchor="middle" x="137" y="-87.7767" font-family="Times,serif" font-size="14.00" fill="#000000">y</text>
<text text-anchor="middle" x="137" y="-72.7767" font-family="Times,serif" font-size="14.00" fill="#000000">~</text>
<text text-anchor="middle" x="137" y="-57.7767" font-family="Times,serif" font-size="14.00" fill="#000000">Normal</text>
</g>
<!-- county_idx&#45;&gt;y -->
<g id="edge5" class="edge">
<title>county_idx&#45;&gt;y</title>
<path fill="none" stroke="#000000" d="M139.2966,-163.713C138.9875,-151.9706 138.6148,-137.8127 138.2604,-124.3507"/>
<polygon fill="#000000" stroke="#000000" points="141.7563,-124.1478 137.9943,-114.2434 134.7588,-124.3321 141.7563,-124.1478"/>
</g>
<!-- floor_idx -->
<g id="node2" class="node">
<title>floor_idx</title>
<path fill="#d3d3d3" stroke="#000000" d="M71.5,-216.93C71.5,-216.93 28.5,-216.93 28.5,-216.93 22.5,-216.93 16.5,-210.93 16.5,-204.93 16.5,-204.93 16.5,-175.93 16.5,-175.93 16.5,-169.93 22.5,-163.93 28.5,-163.93 28.5,-163.93 71.5,-163.93 71.5,-163.93 77.5,-163.93 83.5,-169.93 83.5,-175.93 83.5,-175.93 83.5,-204.93 83.5,-204.93 83.5,-210.93 77.5,-216.93 71.5,-216.93"/>
<text text-anchor="middle" x="50" y="-201.73" font-family="Times,serif" font-size="14.00" fill="#000000">floor_idx</text>
<text text-anchor="middle" x="50" y="-186.73" font-family="Times,serif" font-size="14.00" fill="#000000">~</text>
<text text-anchor="middle" x="50" y="-171.73" font-family="Times,serif" font-size="14.00" fill="#000000">Data</text>
</g>
<!-- floor_idx&#45;&gt;y -->
<g id="edge9" class="edge">
<title>floor_idx&#45;&gt;y</title>
<path fill="none" stroke="#000000" d="M64.4108,-163.8058C71.9617,-150.7261 81.7572,-135.0115 92,-121.9533 94.7742,-118.4166 97.7958,-114.8616 100.9173,-111.3825"/>
<polygon fill="#000000" stroke="#000000" points="103.6064,-113.6304 107.8531,-103.9239 98.4803,-108.8636 103.6064,-113.6304"/>
</g>
<!-- sigma_a -->
<g id="node4" class="node">
<title>sigma_a</title>
<ellipse fill="none" stroke="#000000" cx="262" cy="-301.3833" rx="57.9655" ry="37.4533"/>
<text text-anchor="middle" x="262" y="-312.6833" font-family="Times,serif" font-size="14.00" fill="#000000">sigma_a</text>
<text text-anchor="middle" x="262" y="-297.6833" font-family="Times,serif" font-size="14.00" fill="#000000">~</text>
<text text-anchor="middle" x="262" y="-282.6833" font-family="Times,serif" font-size="14.00" fill="#000000">Exponential</text>
</g>
<!-- a_county -->
<g id="node9" class="node">
<title>a_county</title>
<ellipse fill="none" stroke="#000000" cx="377" cy="-190.43" rx="46.8387" ry="37.4533"/>
<text text-anchor="middle" x="377" y="-201.73" font-family="Times,serif" font-size="14.00" fill="#000000">a_county</text>
<text text-anchor="middle" x="377" y="-186.73" font-family="Times,serif" font-size="14.00" fill="#000000">~</text>
<text text-anchor="middle" x="377" y="-171.73" font-family="Times,serif" font-size="14.00" fill="#000000">Normal</text>
</g>
<!-- sigma_a&#45;&gt;a_county -->
<g id="edge1" class="edge">
<title>sigma_a&#45;&gt;a_county</title>
<path fill="none" stroke="#000000" d="M294.3399,-270.1813C308.3699,-256.645 324.8893,-240.7069 339.4575,-226.6514"/>
<polygon fill="#000000" stroke="#000000" points="342.1079,-228.9577 346.8743,-219.4956 337.2476,-223.9201 342.1079,-228.9577"/>
</g>
<!-- sigma -->
<g id="node5" class="node">
<title>sigma</title>
<ellipse fill="none" stroke="#000000" cx="254" cy="-190.43" rx="57.9655" ry="37.4533"/>
<text text-anchor="middle" x="254" y="-201.73" font-family="Times,serif" font-size="14.00" fill="#000000">sigma</text>
<text text-anchor="middle" x="254" y="-186.73" font-family="Times,serif" font-size="14.00" fill="#000000">~</text>
<text text-anchor="middle" x="254" y="-171.73" font-family="Times,serif" font-size="14.00" fill="#000000">Exponential</text>
</g>
<!-- sigma&#45;&gt;y -->
<g id="edge8" class="edge">
<title>sigma&#45;&gt;y</title>
<path fill="none" stroke="#000000" d="M225.33,-157.5796C214.8364,-146.0151 202.6704,-133.123 191,-121.9533 186.1811,-117.3412 180.9707,-112.6348 175.753,-108.0827"/>
<polygon fill="#000000" stroke="#000000" points="178.015,-105.4117 168.1479,-101.5526 173.4548,-110.7226 178.015,-105.4117"/>
</g>
<!-- b -->
<g id="node6" class="node">
<title>b</title>
<ellipse fill="none" stroke="#000000" cx="486" cy="-301.3833" rx="41.9398" ry="37.4533"/>
<text text-anchor="middle" x="486" y="-312.6833" font-family="Times,serif" font-size="14.00" fill="#000000">b</text>
<text text-anchor="middle" x="486" y="-297.6833" font-family="Times,serif" font-size="14.00" fill="#000000">~</text>
<text text-anchor="middle" x="486" y="-282.6833" font-family="Times,serif" font-size="14.00" fill="#000000">Normal</text>
</g>
<!-- b_county -->
<g id="node10" class="node">
<title>b_county</title>
<ellipse fill="none" stroke="#000000" cx="489" cy="-190.43" rx="47.2526" ry="37.4533"/>
<text text-anchor="middle" x="489" y="-201.73" font-family="Times,serif" font-size="14.00" fill="#000000">b_county</text>
<text text-anchor="middle" x="489" y="-186.73" font-family="Times,serif" font-size="14.00" fill="#000000">~</text>
<text text-anchor="middle" x="489" y="-171.73" font-family="Times,serif" font-size="14.00" fill="#000000">Normal</text>
</g>
<!-- b&#45;&gt;b_county -->
<g id="edge3" class="edge">
<title>b&#45;&gt;b_county</title>
<path fill="none" stroke="#000000" d="M487.0157,-263.8196C487.238,-255.5956 487.4763,-246.7834 487.7078,-238.2203"/>
<polygon fill="#000000" stroke="#000000" points="491.2137,-238.046 487.9854,-227.955 484.2163,-237.8567 491.2137,-238.046"/>
</g>
<!-- sigma_b -->
<g id="node7" class="node">
<title>sigma_b</title>
<ellipse fill="none" stroke="#000000" cx="604" cy="-301.3833" rx="57.9655" ry="37.4533"/>
<text text-anchor="middle" x="604" y="-312.6833" font-family="Times,serif" font-size="14.00" fill="#000000">sigma_b</text>
<text text-anchor="middle" x="604" y="-297.6833" font-family="Times,serif" font-size="14.00" fill="#000000">~</text>
<text text-anchor="middle" x="604" y="-282.6833" font-family="Times,serif" font-size="14.00" fill="#000000">Exponential</text>
</g>
<!-- sigma_b&#45;&gt;b_county -->
<g id="edge4" class="edge">
<title>sigma_b&#45;&gt;b_county</title>
<path fill="none" stroke="#000000" d="M571.6601,-270.1813C557.6301,-256.645 541.1107,-240.7069 526.5425,-226.6514"/>
<polygon fill="#000000" stroke="#000000" points="528.7524,-223.9201 519.1257,-219.4956 523.8921,-228.9577 528.7524,-223.9201"/>
</g>
<!-- a -->
<g id="node8" class="node">
<title>a</title>
<ellipse fill="none" stroke="#000000" cx="380" cy="-301.3833" rx="41.9398" ry="37.4533"/>
<text text-anchor="middle" x="380" y="-312.6833" font-family="Times,serif" font-size="14.00" fill="#000000">a</text>
<text text-anchor="middle" x="380" y="-297.6833" font-family="Times,serif" font-size="14.00" fill="#000000">~</text>
<text text-anchor="middle" x="380" y="-282.6833" font-family="Times,serif" font-size="14.00" fill="#000000">Normal</text>
</g>
<!-- a&#45;&gt;a_county -->
<g id="edge2" class="edge">
<title>a&#45;&gt;a_county</title>
<path fill="none" stroke="#000000" d="M378.9843,-263.8196C378.762,-255.5956 378.5237,-246.7834 378.2922,-238.2203"/>
<polygon fill="#000000" stroke="#000000" points="381.7837,-237.8567 378.0146,-227.955 374.7863,-238.046 381.7837,-237.8567"/>
</g>
<!-- a_county&#45;&gt;y -->
<g id="edge6" class="edge">
<title>a_county&#45;&gt;y</title>
<path fill="none" stroke="#000000" d="M356.2866,-156.7659C346.9511,-144.1383 334.8893,-130.7349 321,-121.9533 280.9158,-96.6099 227.6475,-85.3885 188.744,-80.4208"/>
<polygon fill="#000000" stroke="#000000" points="189.0195,-76.9291 178.6783,-79.2332 188.1993,-83.8809 189.0195,-76.9291"/>
</g>
<!-- b_county&#45;&gt;y -->
<g id="edge7" class="edge">
<title>b_county&#45;&gt;y</title>
<path fill="none" stroke="#000000" d="M468.9326,-156.4795C459.6203,-143.6509 447.403,-130.1784 433,-121.9533 392.305,-98.7139 262.1447,-85.6534 188.6986,-79.96"/>
<polygon fill="#000000" stroke="#000000" points="188.9624,-76.47 178.7267,-79.2052 188.434,-83.4501 188.9624,-76.47"/>
</g>
</g>
</svg>
