<?xml version="1.0" encoding="UTF-8" standalone="no"?>
<!DOCTYPE svg PUBLIC "-//W3C//DTD SVG 1.1//EN"
 "http://www.w3.org/Graphics/SVG/1.1/DTD/svg11.dtd">
<!-- Generated by graphviz version 2.42.3 (20191010.1750)
 -->
<!-- Title: %3 Pages: 1 -->
<svg width="616pt" height="449pt"
 viewBox="0.00 0.00 616.00 448.91" xmlns="http://www.w3.org/2000/svg" xmlns:xlink="http://www.w3.org/1999/xlink">
<g id="graph0" class="graph" transform="scale(1 1) rotate(0) translate(4 444.91)">
<title>%3</title>
<polygon fill="white" stroke="transparent" points="-4,4 -4,-444.91 612,-444.91 612,4 -4,4"/>
<g id="clust1" class="cluster">
<title>cluster20</title>
<path fill="none" stroke="black" d="M20,-318.95C20,-318.95 301,-318.95 301,-318.95 307,-318.95 313,-324.95 313,-330.95 313,-330.95 313,-420.91 313,-420.91 313,-426.91 307,-432.91 301,-432.91 301,-432.91 20,-432.91 20,-432.91 14,-432.91 8,-426.91 8,-420.91 8,-420.91 8,-330.95 8,-330.95 8,-324.95 14,-318.95 20,-318.95"/>
<text text-anchor="middle" x="298" y="-326.75" font-family="Times,serif" font-size="14.00">20</text>
</g>
<g id="clust2" class="cluster">
<title>cluster1 x 20</title>
<path fill="none" stroke="black" d="M333,-318.95C333,-318.95 510,-318.95 510,-318.95 516,-318.95 522,-324.95 522,-330.95 522,-330.95 522,-420.91 522,-420.91 522,-426.91 516,-432.91 510,-432.91 510,-432.91 333,-432.91 333,-432.91 327,-432.91 321,-426.91 321,-420.91 321,-420.91 321,-330.95 321,-330.95 321,-324.95 327,-318.95 333,-318.95"/>
<text text-anchor="middle" x="496.5" y="-326.75" font-family="Times,serif" font-size="14.00">1 x 20</text>
</g>
<g id="clust3" class="cluster">
<title>cluster221 x 1</title>
<path fill="none" stroke="black" d="M542,-329.93C542,-329.93 588,-329.93 588,-329.93 594,-329.93 600,-335.93 600,-341.93 600,-341.93 600,-409.93 600,-409.93 600,-415.93 594,-421.93 588,-421.93 588,-421.93 542,-421.93 542,-421.93 536,-421.93 530,-415.93 530,-409.93 530,-409.93 530,-341.93 530,-341.93 530,-335.93 536,-329.93 542,-329.93"/>
<text text-anchor="middle" x="571" y="-337.73" font-family="Times,serif" font-size="14.00">221 x 1</text>
</g>
<g id="clust4" class="cluster">
<title>cluster221 x 20</title>
<path fill="none" stroke="black" d="M321,-218.95C321,-218.95 514,-218.95 514,-218.95 520,-218.95 526,-224.95 526,-230.95 526,-230.95 526,-298.95 526,-298.95 526,-304.95 520,-310.95 514,-310.95 514,-310.95 321,-310.95 321,-310.95 315,-310.95 309,-304.95 309,-298.95 309,-298.95 309,-230.95 309,-230.95 309,-224.95 315,-218.95 321,-218.95"/>
<text text-anchor="middle" x="493.5" y="-226.75" font-family="Times,serif" font-size="14.00">221 x 20</text>
</g>
<g id="clust5" class="cluster">
<title>cluster221</title>
<path fill="none" stroke="black" d="M294,-8C294,-8 432,-8 432,-8 438,-8 444,-14 444,-20 444,-20 444,-198.95 444,-198.95 444,-204.95 438,-210.95 432,-210.95 432,-210.95 294,-210.95 294,-210.95 288,-210.95 282,-204.95 282,-198.95 282,-198.95 282,-20 282,-20 282,-14 288,-8 294,-8"/>
<text text-anchor="middle" x="425.5" y="-15.8" font-family="Times,serif" font-size="14.00">221</text>
</g>
<!-- tau -->
<g id="node1" class="node">
<title>tau</title>
<ellipse fill="none" stroke="black" cx="59" cy="-387.43" rx="43.27" ry="37.45"/>
<text text-anchor="middle" x="59" y="-398.73" font-family="Times,serif" font-size="14.00">tau</text>
<text text-anchor="middle" x="59" y="-383.73" font-family="Times,serif" font-size="14.00">~</text>
<text text-anchor="middle" x="59" y="-368.73" font-family="Times,serif" font-size="14.00">Gamma</text>
</g>
<!-- obs -->
<g id="node10" class="node">
<title>obs</title>
<ellipse fill="lightgrey" stroke="black" cx="363" cy="-165.48" rx="72.66" ry="37.45"/>
<text text-anchor="middle" x="363" y="-176.78" font-family="Times,serif" font-size="14.00">obs</text>
<text text-anchor="middle" x="363" y="-161.78" font-family="Times,serif" font-size="14.00">~</text>
<text text-anchor="middle" x="363" y="-146.78" font-family="Times,serif" font-size="14.00">NormalMixture</text>
</g>
<!-- tau&#45;&gt;obs -->
<g id="edge8" class="edge">
<title>tau&#45;&gt;obs</title>
<path fill="none" stroke="black" d="M79.85,-354.5C88.59,-342.51 99.42,-329.3 111,-318.95 169.04,-267.1 247.13,-223.01 300.93,-195.78"/>
<polygon fill="black" stroke="black" points="302.64,-198.84 310.01,-191.22 299.5,-192.58 302.64,-198.84"/>
</g>
<!-- gamma -->
<g id="node2" class="node">
<title>gamma</title>
<ellipse fill="none" stroke="black" cx="162" cy="-387.43" rx="41.94" ry="37.45"/>
<text text-anchor="middle" x="162" y="-398.73" font-family="Times,serif" font-size="14.00">gamma</text>
<text text-anchor="middle" x="162" y="-383.73" font-family="Times,serif" font-size="14.00">~</text>
<text text-anchor="middle" x="162" y="-368.73" font-family="Times,serif" font-size="14.00">Normal</text>
</g>
<!-- mu -->
<g id="node8" class="node">
<title>mu</title>
<polygon fill="none" stroke="black" points="408.5,-302.95 317.5,-302.95 317.5,-249.95 408.5,-249.95 408.5,-302.95"/>
<text text-anchor="middle" x="363" y="-287.75" font-family="Times,serif" font-size="14.00">mu</text>
<text text-anchor="middle" x="363" y="-272.75" font-family="Times,serif" font-size="14.00">~</text>
<text text-anchor="middle" x="363" y="-257.75" font-family="Times,serif" font-size="14.00">Deterministic</text>
</g>
<!-- gamma&#45;&gt;mu -->
<g id="edge6" class="edge">
<title>gamma&#45;&gt;mu</title>
<path fill="none" stroke="black" d="M180.02,-353.42C188.28,-341.01 199.13,-327.77 212,-318.95 240.21,-299.63 277.15,-289.27 307.44,-283.74"/>
<polygon fill="black" stroke="black" points="308.15,-287.17 317.43,-282.04 306.98,-280.27 308.15,-287.17"/>
</g>
<!-- alpha -->
<g id="node3" class="node">
<title>alpha</title>
<ellipse fill="none" stroke="black" cx="263" cy="-387.43" rx="41.94" ry="37.45"/>
<text text-anchor="middle" x="263" y="-398.73" font-family="Times,serif" font-size="14.00">alpha</text>
<text text-anchor="middle" x="263" y="-383.73" font-family="Times,serif" font-size="14.00">~</text>
<text text-anchor="middle" x="263" y="-368.73" font-family="Times,serif" font-size="14.00">Normal</text>
</g>
<!-- w -->
<g id="node7" class="node">
<title>w</title>
<polygon fill="none" stroke="black" points="517.5,-302.95 426.5,-302.95 426.5,-249.95 517.5,-249.95 517.5,-302.95"/>
<text text-anchor="middle" x="472" y="-287.75" font-family="Times,serif" font-size="14.00">w</text>
<text text-anchor="middle" x="472" y="-272.75" font-family="Times,serif" font-size="14.00">~</text>
<text text-anchor="middle" x="472" y="-257.75" font-family="Times,serif" font-size="14.00">Deterministic</text>
</g>
<!-- alpha&#45;&gt;w -->
<g id="edge3" class="edge">
<title>alpha&#45;&gt;w</title>
<path fill="none" stroke="black" d="M281.19,-353.52C290.18,-340.48 302.29,-326.75 317,-318.95 336.89,-308.41 396.61,-317.97 418,-310.95 420.94,-309.99 423.89,-308.83 426.81,-307.53"/>
<polygon fill="black" stroke="black" points="428.57,-310.57 435.97,-302.99 425.46,-304.3 428.57,-310.57"/>
</g>
<!-- beta -->
<g id="node4" class="node">
<title>beta</title>
<ellipse fill="none" stroke="black" cx="472" cy="-387.43" rx="41.94" ry="37.45"/>
<text text-anchor="middle" x="472" y="-398.73" font-family="Times,serif" font-size="14.00">beta</text>
<text text-anchor="middle" x="472" y="-383.73" font-family="Times,serif" font-size="14.00">~</text>
<text text-anchor="middle" x="472" y="-368.73" font-family="Times,serif" font-size="14.00">Normal</text>
</g>
<!-- beta&#45;&gt;w -->
<g id="edge2" class="edge">
<title>beta&#45;&gt;w</title>
<path fill="none" stroke="black" d="M472,-349.84C472,-338.1 472,-325.11 472,-313.42"/>
<polygon fill="black" stroke="black" points="475.5,-313.11 472,-303.11 468.5,-313.11 475.5,-313.11"/>
</g>
<!-- delta -->
<g id="node5" class="node">
<title>delta</title>
<ellipse fill="none" stroke="black" cx="371" cy="-387.43" rx="41.94" ry="37.45"/>
<text text-anchor="middle" x="371" y="-398.73" font-family="Times,serif" font-size="14.00">delta</text>
<text text-anchor="middle" x="371" y="-383.73" font-family="Times,serif" font-size="14.00">~</text>
<text text-anchor="middle" x="371" y="-368.73" font-family="Times,serif" font-size="14.00">Normal</text>
</g>
<!-- delta&#45;&gt;mu -->
<g id="edge5" class="edge">
<title>delta&#45;&gt;mu</title>
<path fill="none" stroke="black" d="M368.31,-349.84C367.45,-338.1 366.5,-325.11 365.64,-313.42"/>
<polygon fill="black" stroke="black" points="369.11,-312.83 364.88,-303.11 362.13,-313.34 369.11,-312.83"/>
</g>
<!-- x -->
<g id="node6" class="node">
<title>x</title>
<path fill="lightgrey" stroke="black" d="M580,-413.93C580,-413.93 550,-413.93 550,-413.93 544,-413.93 538,-407.93 538,-401.93 538,-401.93 538,-372.93 538,-372.93 538,-366.93 544,-360.93 550,-360.93 550,-360.93 580,-360.93 580,-360.93 586,-360.93 592,-366.93 592,-372.93 592,-372.93 592,-401.93 592,-401.93 592,-407.93 586,-413.93 580,-413.93"/>
<text text-anchor="middle" x="565" y="-398.73" font-family="Times,serif" font-size="14.00">x</text>
<text text-anchor="middle" x="565" y="-383.73" font-family="Times,serif" font-size="14.00">~</text>
<text text-anchor="middle" x="565" y="-368.73" font-family="Times,serif" font-size="14.00">Data</text>
</g>
<!-- x&#45;&gt;w -->
<g id="edge1" class="edge">
<title>x&#45;&gt;w</title>
<path fill="none" stroke="black" d="M553.24,-360.85C546.4,-347.53 536.97,-331.47 526,-318.95 523.24,-315.8 520.21,-312.73 517.03,-309.77"/>
<polygon fill="black" stroke="black" points="519.25,-307.06 509.43,-303.1 514.63,-312.33 519.25,-307.06"/>
</g>
<!-- x&#45;&gt;mu -->
<g id="edge4" class="edge">
<title>x&#45;&gt;mu</title>
<path fill="none" stroke="black" d="M556.92,-360.62C550.88,-345.82 541.01,-328.37 526,-318.95 505.61,-306.16 440.91,-318.31 418,-310.95 414.91,-309.96 411.82,-308.77 408.76,-307.42"/>
<polygon fill="black" stroke="black" points="410.25,-304.26 399.73,-303.02 407.18,-310.55 410.25,-304.26"/>
</g>
<!-- w&#45;&gt;obs -->
<g id="edge9" class="edge">
<title>w&#45;&gt;obs</title>
<path fill="none" stroke="black" d="M448.05,-249.9C438.77,-240.12 427.98,-228.93 418,-218.95 413.75,-214.71 409.28,-210.32 404.79,-205.96"/>
<polygon fill="black" stroke="black" points="406.9,-203.13 397.27,-198.71 402.04,-208.17 406.9,-203.13"/>
</g>
<!-- mu&#45;&gt;obs -->
<g id="edge10" class="edge">
<title>mu&#45;&gt;obs</title>
<path fill="none" stroke="black" d="M363,-249.9C363,-238.99 363,-225.9 363,-213.36"/>
<polygon fill="black" stroke="black" points="366.5,-213.01 363,-203.01 359.5,-213.01 366.5,-213.01"/>
</g>
<!-- y -->
<g id="node9" class="node">
<title>y</title>
<path fill="lightgrey" stroke="black" d="M378,-92C378,-92 348,-92 348,-92 342,-92 336,-86 336,-80 336,-80 336,-51 336,-51 336,-45 342,-39 348,-39 348,-39 378,-39 378,-39 384,-39 390,-45 390,-51 390,-51 390,-80 390,-80 390,-86 384,-92 378,-92"/>
<text text-anchor="middle" x="363" y="-76.8" font-family="Times,serif" font-size="14.00">y</text>
<text text-anchor="middle" x="363" y="-61.8" font-family="Times,serif" font-size="14.00">~</text>
<text text-anchor="middle" x="363" y="-46.8" font-family="Times,serif" font-size="14.00">Data</text>
</g>
<!-- obs&#45;&gt;y -->
<g id="edge7" class="edge">
<title>obs&#45;&gt;y</title>
<path fill="none" stroke="black" d="M363,-127.99C363,-119.58 363,-110.63 363,-102.25"/>
<polygon fill="black" stroke="black" points="366.5,-102.01 363,-92.01 359.5,-102.01 366.5,-102.01"/>
</g>
</g>
</svg>
