<?xml version="1.0" encoding="UTF-8" standalone="no"?>
<!DOCTYPE svg PUBLIC "-//W3C//DTD SVG 1.1//EN"
 "http://www.w3.org/Graphics/SVG/1.1/DTD/svg11.dtd">
<!-- Generated by graphviz version 2.40.1 (20161225.0304)
 -->
<!-- Title: %3 Pages: 1 -->
<svg width="547pt" height="366pt"
 viewBox="0.00 0.00 546.98 365.86" xmlns="http://www.w3.org/2000/svg" xmlns:xlink="http://www.w3.org/1999/xlink">
<g id="graph0" class="graph" transform="scale(1 1) rotate(0) translate(4 361.86)">
<title>%3</title>
<polygon fill="#ffffff" stroke="transparent" points="-4,4 -4,-361.86 542.9828,-361.86 542.9828,4 -4,4"/>
<g id="clust1" class="cluster">
<title>cluster919</title>
<path fill="none" stroke="#000000" d="M20,-8C20,-8 175,-8 175,-8 181,-8 187,-14 187,-20 187,-20 187,-212.93 187,-212.93 187,-218.93 181,-224.93 175,-224.93 175,-224.93 20,-224.93 20,-224.93 14,-224.93 8,-218.93 8,-212.93 8,-212.93 8,-20 8,-20 8,-14 14,-8 20,-8"/>
<text text-anchor="middle" x="168.5" y="-15.8" font-family="Times,serif" font-size="14.00" fill="#000000">919</text>
</g>
<g id="clust2" class="cluster">
<title>cluster85</title>
<path fill="none" stroke="#000000" d="M207,-121.9533C207,-121.9533 293,-121.9533 293,-121.9533 299,-121.9533 305,-127.9533 305,-133.9533 305,-133.9533 305,-326.8833 305,-326.8833 305,-332.8833 299,-338.8833 293,-338.8833 293,-338.8833 207,-338.8833 207,-338.8833 201,-338.8833 195,-332.8833 195,-326.8833 195,-326.8833 195,-133.9533 195,-133.9533 195,-127.9533 201,-121.9533 207,-121.9533"/>
<text text-anchor="middle" x="290" y="-129.7533" font-family="Times,serif" font-size="14.00" fill="#000000">85</text>
</g>
<g id="clust3" class="cluster">
<title>cluster2</title>
<path fill="none" stroke="#000000" d="M325,-235.9066C325,-235.9066 401,-235.9066 401,-235.9066 407,-235.9066 413,-241.9066 413,-247.9066 413,-247.9066 413,-337.86 413,-337.86 413,-343.86 407,-349.86 401,-349.86 401,-349.86 325,-349.86 325,-349.86 319,-349.86 313,-343.86 313,-337.86 313,-337.86 313,-247.9066 313,-247.9066 313,-241.9066 319,-235.9066 325,-235.9066"/>
<text text-anchor="middle" x="401.5" y="-243.7066" font-family="Times,serif" font-size="14.00" fill="#000000">2</text>
</g>
<!-- county_idx -->
<g id="node1" class="node">
<title>county_idx</title>
<path fill="#d3d3d3" stroke="#000000" d="M166.5,-216.93C166.5,-216.93 113.5,-216.93 113.5,-216.93 107.5,-216.93 101.5,-210.93 101.5,-204.93 101.5,-204.93 101.5,-175.93 101.5,-175.93 101.5,-169.93 107.5,-163.93 113.5,-163.93 113.5,-163.93 166.5,-163.93 166.5,-163.93 172.5,-163.93 178.5,-169.93 178.5,-175.93 178.5,-175.93 178.5,-204.93 178.5,-204.93 178.5,-210.93 172.5,-216.93 166.5,-216.93"/>
<text text-anchor="middle" x="140" y="-201.73" font-family="Times,serif" font-size="14.00" fill="#000000">county_idx</text>
<text text-anchor="middle" x="140" y="-186.73" font-family="Times,serif" font-size="14.00" fill="#000000">~</text>
<text text-anchor="middle" x="140" y="-171.73" font-family="Times,serif" font-size="14.00" fill="#000000">Data</text>
</g>
<!-- y -->
<g id="node3" class="node">
<title>y</title>
<ellipse fill="#d3d3d3" stroke="#000000" cx="137" cy="-76.4767" rx="41.9398" ry="37.4533"/>
<text text-anchor="middle" x="137" y="-87.7767" font-family="Times,serif" font-size="14.00" fill="#000000">y</text>
<text text-anchor="middle" x="137" y="-72.7767" font-family="Times,serif" font-size="14.00" fill="#000000">~</text>
<text text-anchor="middle" x="137" y="-57.7767" font-family="Times,serif" font-size="14.00" fill="#000000">Normal</text>
</g>
<!-- county_idx&#45;&gt;y -->
<g id="edge4" class="edge">
<title>county_idx&#45;&gt;y</title>
<path fill="none" stroke="#000000" d="M139.2966,-163.713C138.9875,-151.9706 138.6148,-137.8127 138.2604,-124.3507"/>
<polygon fill="#000000" stroke="#000000" points="141.7563,-124.1478 137.9943,-114.2434 134.7588,-124.3321 141.7563,-124.1478"/>
</g>
<!-- floor_idx -->
<g id="node2" class="node">
<title>floor_idx</title>
<path fill="#d3d3d3" stroke="#000000" d="M71.5,-216.93C71.5,-216.93 28.5,-216.93 28.5,-216.93 22.5,-216.93 16.5,-210.93 16.5,-204.93 16.5,-204.93 16.5,-175.93 16.5,-175.93 16.5,-169.93 22.5,-163.93 28.5,-163.93 28.5,-163.93 71.5,-163.93 71.5,-163.93 77.5,-163.93 83.5,-169.93 83.5,-175.93 83.5,-175.93 83.5,-204.93 83.5,-204.93 83.5,-210.93 77.5,-216.93 71.5,-216.93"/>
<text text-anchor="middle" x="50" y="-201.73" font-family="Times,serif" font-size="14.00" fill="#000000">floor_idx</text>
<text text-anchor="middle" x="50" y="-186.73" font-family="Times,serif" font-size="14.00" fill="#000000">~</text>
<text text-anchor="middle" x="50" y="-171.73" font-family="Times,serif" font-size="14.00" fill="#000000">Data</text>
</g>
<!-- floor_idx&#45;&gt;y -->
<g id="edge8" class="edge">
<title>floor_idx&#45;&gt;y</title>
<path fill="none" stroke="#000000" d="M64.9096,-163.8825C72.6785,-150.8217 82.6945,-135.1008 93,-121.9533 95.7427,-118.4543 98.7177,-114.9251 101.7832,-111.4627"/>
<polygon fill="#000000" stroke="#000000" points="104.4173,-113.7686 108.5833,-104.0272 99.2518,-109.0445 104.4173,-113.7686"/>
</g>
<!-- a_county -->
<g id="node4" class="node">
<title>a_county</title>
<ellipse fill="none" stroke="#000000" cx="250" cy="-190.43" rx="46.8387" ry="37.4533"/>
<text text-anchor="middle" x="250" y="-201.73" font-family="Times,serif" font-size="14.00" fill="#000000">a_county</text>
<text text-anchor="middle" x="250" y="-186.73" font-family="Times,serif" font-size="14.00" fill="#000000">~</text>
<text text-anchor="middle" x="250" y="-171.73" font-family="Times,serif" font-size="14.00" fill="#000000">Normal</text>
</g>
<!-- a_county&#45;&gt;y -->
<g id="edge5" class="edge">
<title>a_county&#45;&gt;y</title>
<path fill="none" stroke="#000000" d="M224.5739,-158.811C214.5181,-146.881 202.6049,-133.4282 191,-121.9533 186.2569,-117.2634 181.09,-112.5122 175.8939,-107.9379"/>
<polygon fill="#000000" stroke="#000000" points="178.1635,-105.2734 168.306,-101.3901 173.5903,-110.5731 178.1635,-105.2734"/>
</g>
<!-- uranium -->
<g id="node5" class="node">
<title>uranium</title>
<path fill="#d3d3d3" stroke="#000000" d="M269,-330.8833C269,-330.8833 231,-330.8833 231,-330.8833 225,-330.8833 219,-324.8833 219,-318.8833 219,-318.8833 219,-289.8833 219,-289.8833 219,-283.8833 225,-277.8833 231,-277.8833 231,-277.8833 269,-277.8833 269,-277.8833 275,-277.8833 281,-283.8833 281,-289.8833 281,-289.8833 281,-318.8833 281,-318.8833 281,-324.8833 275,-330.8833 269,-330.8833"/>
<text text-anchor="middle" x="250" y="-315.6833" font-family="Times,serif" font-size="14.00" fill="#000000">uranium</text>
<text text-anchor="middle" x="250" y="-300.6833" font-family="Times,serif" font-size="14.00" fill="#000000">~</text>
<text text-anchor="middle" x="250" y="-285.6833" font-family="Times,serif" font-size="14.00" fill="#000000">Data</text>
</g>
<!-- uranium&#45;&gt;a_county -->
<g id="edge2" class="edge">
<title>uranium&#45;&gt;a_county</title>
<path fill="none" stroke="#000000" d="M250,-277.6663C250,-265.9239 250,-251.766 250,-238.304"/>
<polygon fill="#000000" stroke="#000000" points="253.5001,-238.1967 250,-228.1967 246.5001,-238.1968 253.5001,-238.1967"/>
</g>
<!-- g -->
<g id="node6" class="node">
<title>g</title>
<ellipse fill="none" stroke="#000000" cx="363" cy="-304.3833" rx="41.9398" ry="37.4533"/>
<text text-anchor="middle" x="363" y="-315.6833" font-family="Times,serif" font-size="14.00" fill="#000000">g</text>
<text text-anchor="middle" x="363" y="-300.6833" font-family="Times,serif" font-size="14.00" fill="#000000">~</text>
<text text-anchor="middle" x="363" y="-285.6833" font-family="Times,serif" font-size="14.00" fill="#000000">Normal</text>
</g>
<!-- g&#45;&gt;a_county -->
<g id="edge3" class="edge">
<title>g&#45;&gt;a_county</title>
<path fill="none" stroke="#000000" d="M340.5984,-272.6836C331.4183,-260.6135 320.303,-247.0852 309,-235.9066 304.1193,-231.0797 298.7262,-226.2994 293.243,-221.7539"/>
<polygon fill="#000000" stroke="#000000" points="295.1811,-218.8212 285.1941,-215.2841 290.7955,-224.2771 295.1811,-218.8212"/>
</g>
<!-- b -->
<g id="node7" class="node">
<title>b</title>
<ellipse fill="none" stroke="#000000" cx="356" cy="-190.43" rx="41.9398" ry="37.4533"/>
<text text-anchor="middle" x="356" y="-201.73" font-family="Times,serif" font-size="14.00" fill="#000000">b</text>
<text text-anchor="middle" x="356" y="-186.73" font-family="Times,serif" font-size="14.00" fill="#000000">~</text>
<text text-anchor="middle" x="356" y="-171.73" font-family="Times,serif" font-size="14.00" fill="#000000">Normal</text>
</g>
<!-- b&#45;&gt;y -->
<g id="edge7" class="edge">
<title>b&#45;&gt;y</title>
<path fill="none" stroke="#000000" d="M338.9323,-155.811C331.3132,-143.5127 321.258,-130.5917 309,-121.9533 289.5587,-108.2528 231.2622,-94.5783 187.8951,-85.8567"/>
<polygon fill="#000000" stroke="#000000" points="188.5472,-82.418 178.0581,-83.9111 187.1889,-89.2849 188.5472,-82.418"/>
</g>
<!-- sigma_a -->
<g id="node8" class="node">
<title>sigma_a</title>
<ellipse fill="none" stroke="#000000" cx="481" cy="-304.3833" rx="57.9655" ry="37.4533"/>
<text text-anchor="middle" x="481" y="-315.6833" font-family="Times,serif" font-size="14.00" fill="#000000">sigma_a</text>
<text text-anchor="middle" x="481" y="-300.6833" font-family="Times,serif" font-size="14.00" fill="#000000">~</text>
<text text-anchor="middle" x="481" y="-285.6833" font-family="Times,serif" font-size="14.00" fill="#000000">Exponential</text>
</g>
<!-- sigma_a&#45;&gt;a_county -->
<g id="edge1" class="edge">
<title>sigma_a&#45;&gt;a_county</title>
<path fill="none" stroke="#000000" d="M457.4644,-269.7748C446.7296,-256.8454 432.8607,-243.4754 417,-235.9066 394.4804,-225.1603 328.5675,-236.1035 305,-227.9066 300.5289,-226.3516 296.0803,-224.3344 291.7615,-222.0429"/>
<polygon fill="#000000" stroke="#000000" points="293.5172,-219.0152 283.1131,-217.0141 289.9985,-225.0666 293.5172,-219.0152"/>
</g>
<!-- sigma -->
<g id="node9" class="node">
<title>sigma</title>
<ellipse fill="none" stroke="#000000" cx="474" cy="-190.43" rx="57.9655" ry="37.4533"/>
<text text-anchor="middle" x="474" y="-201.73" font-family="Times,serif" font-size="14.00" fill="#000000">sigma</text>
<text text-anchor="middle" x="474" y="-186.73" font-family="Times,serif" font-size="14.00" fill="#000000">~</text>
<text text-anchor="middle" x="474" y="-171.73" font-family="Times,serif" font-size="14.00" fill="#000000">Exponential</text>
</g>
<!-- sigma&#45;&gt;y -->
<g id="edge6" class="edge">
<title>sigma&#45;&gt;y</title>
<path fill="none" stroke="#000000" d="M448.675,-156.5748C437.3319,-143.7608 422.9199,-130.2734 407,-121.9533 369.8836,-102.5554 255.9475,-88.3158 188.5257,-81.3235"/>
<polygon fill="#000000" stroke="#000000" points="188.8303,-77.8365 178.5269,-80.3042 188.1204,-84.8004 188.8303,-77.8365"/>
</g>
</g>
</svg>
