<?xml version="1.0" encoding="UTF-8" standalone="no"?>
<!DOCTYPE svg PUBLIC "-//W3C//DTD SVG 1.1//EN"
 "http://www.w3.org/Graphics/SVG/1.1/DTD/svg11.dtd">
<!-- Generated by graphviz version 2.40.1 (20161225.0304)
 -->
<!-- Title: %3 Pages: 1 -->
<svg width="350pt" height="252pt"
 viewBox="0.00 0.00 349.98 251.91" xmlns="http://www.w3.org/2000/svg" xmlns:xlink="http://www.w3.org/1999/xlink">
<g id="graph0" class="graph" transform="scale(1 1) rotate(0) translate(4 247.9066)">
<title>%3</title>
<polygon fill="#ffffff" stroke="transparent" points="-4,4 -4,-247.9066 345.9828,-247.9066 345.9828,4 -4,4"/>
<g id="clust1" class="cluster">
<title>cluster919</title>
<path fill="none" stroke="#000000" d="M20,-8C20,-8 96,-8 96,-8 102,-8 108,-14 108,-20 108,-20 108,-212.93 108,-212.93 108,-218.93 102,-224.93 96,-224.93 96,-224.93 20,-224.93 20,-224.93 14,-224.93 8,-218.93 8,-212.93 8,-212.93 8,-20 8,-20 8,-14 14,-8 20,-8"/>
<text text-anchor="middle" x="89.5" y="-15.8" font-family="Times,serif" font-size="14.00" fill="#000000">919</text>
</g>
<g id="clust2" class="cluster">
<title>cluster2</title>
<path fill="none" stroke="#000000" d="M128,-121.9533C128,-121.9533 204,-121.9533 204,-121.9533 210,-121.9533 216,-127.9533 216,-133.9533 216,-133.9533 216,-223.9066 216,-223.9066 216,-229.9066 210,-235.9066 204,-235.9066 204,-235.9066 128,-235.9066 128,-235.9066 122,-235.9066 116,-229.9066 116,-223.9066 116,-223.9066 116,-133.9533 116,-133.9533 116,-127.9533 122,-121.9533 128,-121.9533"/>
<text text-anchor="middle" x="204.5" y="-129.7533" font-family="Times,serif" font-size="14.00" fill="#000000">2</text>
</g>
<!-- floor_idx -->
<g id="node1" class="node">
<title>floor_idx</title>
<path fill="#d3d3d3" stroke="#000000" d="M79.5,-216.93C79.5,-216.93 36.5,-216.93 36.5,-216.93 30.5,-216.93 24.5,-210.93 24.5,-204.93 24.5,-204.93 24.5,-175.93 24.5,-175.93 24.5,-169.93 30.5,-163.93 36.5,-163.93 36.5,-163.93 79.5,-163.93 79.5,-163.93 85.5,-163.93 91.5,-169.93 91.5,-175.93 91.5,-175.93 91.5,-204.93 91.5,-204.93 91.5,-210.93 85.5,-216.93 79.5,-216.93"/>
<text text-anchor="middle" x="58" y="-201.73" font-family="Times,serif" font-size="14.00" fill="#000000">floor_idx</text>
<text text-anchor="middle" x="58" y="-186.73" font-family="Times,serif" font-size="14.00" fill="#000000">~</text>
<text text-anchor="middle" x="58" y="-171.73" font-family="Times,serif" font-size="14.00" fill="#000000">Data</text>
</g>
<!-- y -->
<g id="node2" class="node">
<title>y</title>
<ellipse fill="#d3d3d3" stroke="#000000" cx="58" cy="-76.4767" rx="41.9398" ry="37.4533"/>
<text text-anchor="middle" x="58" y="-87.7767" font-family="Times,serif" font-size="14.00" fill="#000000">y</text>
<text text-anchor="middle" x="58" y="-72.7767" font-family="Times,serif" font-size="14.00" fill="#000000">~</text>
<text text-anchor="middle" x="58" y="-57.7767" font-family="Times,serif" font-size="14.00" fill="#000000">Normal</text>
</g>
<!-- floor_idx&#45;&gt;y -->
<g id="edge3" class="edge">
<title>floor_idx&#45;&gt;y</title>
<path fill="none" stroke="#000000" d="M58,-163.713C58,-151.9706 58,-137.8127 58,-124.3507"/>
<polygon fill="#000000" stroke="#000000" points="61.5001,-124.2434 58,-114.2434 54.5001,-124.2434 61.5001,-124.2434"/>
</g>
<!-- a -->
<g id="node3" class="node">
<title>a</title>
<ellipse fill="none" stroke="#000000" cx="166" cy="-190.43" rx="41.9398" ry="37.4533"/>
<text text-anchor="middle" x="166" y="-201.73" font-family="Times,serif" font-size="14.00" fill="#000000">a</text>
<text text-anchor="middle" x="166" y="-186.73" font-family="Times,serif" font-size="14.00" fill="#000000">~</text>
<text text-anchor="middle" x="166" y="-171.73" font-family="Times,serif" font-size="14.00" fill="#000000">Normal</text>
</g>
<!-- a&#45;&gt;y -->
<g id="edge1" class="edge">
<title>a&#45;&gt;y</title>
<path fill="none" stroke="#000000" d="M143.0796,-158.6383C133.9192,-146.6872 122.9533,-133.2649 112,-121.9533 107.3599,-117.1614 102.2522,-112.3517 97.0855,-107.7483"/>
<polygon fill="#000000" stroke="#000000" points="99.3657,-105.0929 89.5209,-101.1775 94.7752,-110.3776 99.3657,-105.0929"/>
</g>
<!-- sigma -->
<g id="node4" class="node">
<title>sigma</title>
<ellipse fill="none" stroke="#000000" cx="284" cy="-190.43" rx="57.9655" ry="37.4533"/>
<text text-anchor="middle" x="284" y="-201.73" font-family="Times,serif" font-size="14.00" fill="#000000">sigma</text>
<text text-anchor="middle" x="284" y="-186.73" font-family="Times,serif" font-size="14.00" fill="#000000">~</text>
<text text-anchor="middle" x="284" y="-171.73" font-family="Times,serif" font-size="14.00" fill="#000000">Exponential</text>
</g>
<!-- sigma&#45;&gt;y -->
<g id="edge2" class="edge">
<title>sigma&#45;&gt;y</title>
<path fill="none" stroke="#000000" d="M258.7044,-156.3296C247.9877,-143.9469 234.598,-130.8318 220,-121.9533 186.1852,-101.3871 142.7877,-89.8521 109.4218,-83.5494"/>
<polygon fill="#000000" stroke="#000000" points="109.8709,-80.0742 99.4106,-81.7571 108.6373,-86.9647 109.8709,-80.0742"/>
</g>
</g>
</svg>
